<svg fill="none" xmlns="http://www.w3.org/2000/svg">
<circle opacity="0.9" cx="20" cy="20" r="20" fill="#050708"/>
<path fill-rule="evenodd" clip-rule="evenodd" d="M23.8113 10C23.8113 10 24.22 11.9036 23.0133 13.1333C21.8065 14.3622 20.0346 14.5279 20.0346 14.5279C20.0346 14.5279 19.8468 12.6608 20.9814 11.4787C22.1167 10.2974 23.8113 10 23.8113 10ZM27.4826 16.7508C27.4826 16.7508 24.8804 18.3587 25.4251 21.1002C25.9699 23.8435 28.0757 24.5268 28.0757 24.5268C28.0757 24.5268 26.9403 27.5785 25.686 28.6425C24.4351 29.7065 24.0543 29.9903 22.9683 29.6843C22.6197 29.5863 22.3126 29.4615 22.0198 29.3425C21.3968 29.0894 20.8385 28.8626 20.0823 28.9747C19.5764 29.0506 19.1098 29.2338 18.6645 29.4087C18.132 29.6178 17.63 29.8149 17.1274 29.8025C16.2046 29.7787 14.9043 28.9518 13.6279 26.7516C12.3514 24.5531 11.6894 21.7164 11.9962 19.4932C12.303 17.2709 14.001 15.4089 15.6139 15.0019C17.101 14.6257 18.0059 15.0133 18.7831 15.3462C19.2296 15.5375 19.634 15.7106 20.0823 15.7106C20.0823 15.7106 20.5072 15.7106 21.3587 15.3554C21.4337 15.3242 21.5086 15.2921 21.5842 15.2597C22.3662 14.9244 23.2118 14.5619 24.7648 14.9067C26.4687 15.2841 27.4826 16.7508 27.4826 16.7508Z" fill="white"/>
</svg>
