<svg width="14" height="14" viewBox="0 0 14 14" xmlns="http://www.w3.org/2000/svg">
<g clip-path="url(#clip0_2154_39051)">
<path d="M11.2407 4.60768L7.25657 8.59185L3.2724 4.60768C3.1674 4.50268 3.03323 4.44435 2.88157 4.44435C2.7299 4.44435 2.59573 4.50268 2.49073 4.60768C2.2749 4.82351 2.2749 5.17352 2.49073 5.38352L6.86573 9.75852C6.97073 9.86352 7.1049 9.91602 7.25657 9.91602C7.4024 9.91602 7.5424 9.85768 7.64157 9.75852L12.0107 5.38352C12.2266 5.16768 12.2266 4.82352 12.0107 4.60768C11.9057 4.50268 11.7716 4.45018 11.6257 4.44435C11.4799 4.44435 11.3399 4.50268 11.2407 4.60768Z" />
</g>
<defs>
<clipPath id="clip0_2154_39051">
<rect width="5.47167" height="9.84083"  transform="translate(2.33325 9.91602) rotate(-90)"/>
</clipPath>
</defs>
</svg>
