<svg width="14" height="14" viewBox="0 0 14 14"  xmlns="http://www.w3.org/2000/svg">
<g clip-path="url(#clip0_2272_7063)">
<path d="M9.39159 11.242L5.40742 7.25779L9.39159 3.27362C9.49659 3.16862 9.55492 3.03445 9.55492 2.88279C9.55492 2.73112 9.49659 2.59695 9.39159 2.49195C9.17575 2.27612 8.82575 2.27612 8.61575 2.49195L4.24075 6.86695C4.13575 6.97195 4.08325 7.10612 4.08325 7.25779C4.08325 7.40362 4.14159 7.54362 4.24075 7.64279L8.61575 12.012C8.83158 12.2278 9.17575 12.2278 9.39159 12.012C9.49659 11.907 9.54909 11.7728 9.55492 11.627C9.55492 11.4811 9.49659 11.3411 9.39159 11.242Z" />
</g>
<defs>
<clipPath id="clip0_2272_7063">
<rect width="5.47167" height="9.84083"  transform="translate(4.08325 2.33398)"/>
</clipPath>
</defs>
</svg>
