<svg width="14" height="14" viewBox="0 0 14 14" fill="none" xmlns="http://www.w3.org/2000/svg">
<g clip-path="url(#clip0_5562_185227)">
<path d="M4.24684 3.26781L8.23101 7.25198L4.24684 11.2361C4.14184 11.3411 4.08351 11.4753 4.08351 11.627C4.08351 11.7786 4.14184 11.9128 4.24684 12.0178C4.46268 12.2336 4.81268 12.2336 5.02268 12.0178L9.39768 7.64281C9.50268 7.53781 9.55518 7.40365 9.55518 7.25198C9.55518 7.10615 9.49684 6.96615 9.39768 6.86698L5.02268 2.49781C4.80684 2.28198 4.46267 2.28198 4.24684 2.49781C4.14184 2.60281 4.08934 2.73698 4.08351 2.88281C4.08351 3.02865 4.14184 3.16865 4.24684 3.26781Z" fill="#FF3C78"/>
</g>
<defs>
<clipPath id="clip0_5562_185227">
<rect width="5.47167" height="9.84083" fill="white" transform="translate(9.55518 12.1719) rotate(180)"/>
</clipPath>
</defs>
</svg>
