<svg viewBox="0 0 18 18" fill="none" xmlns="http://www.w3.org/2000/svg">
    <g clip-path="url(#clip0_4222_217128)">
        <path
            d="M9.2325 2.25C5.385 2.25 2.25 5.385 2.25 9.2325C2.25 13.08 5.385 16.215 9.2325 16.215C13.08 16.215 16.215 13.08 16.215 9.2325C16.215 5.385 13.08 2.25 9.2325 2.25ZM9.2325 14.9475C6.0825 14.9475 3.5175 12.3825 3.5175 9.2325C3.5175 6.0825 6.0825 3.5175 9.2325 3.5175C12.3825 3.5175 14.9475 6.0825 14.9475 9.2325C14.9475 12.3825 12.3825 14.9475 9.2325 14.9475Z"
            fill="inherit" />
        <path
            d="M8.75369 9.57685L8.59475 7.19771C8.56495 6.73414 8.55005 6.40135 8.55005 6.19937C8.55005 5.92453 8.62124 5.71096 8.76362 5.55864C8.90932 5.40301 9.09972 5.3252 9.33482 5.3252C9.61958 5.3252 9.80998 5.42453 9.90601 5.62321C10.002 5.81857 10.05 6.10169 10.05 6.47255C10.05 6.69109 10.0385 6.91294 10.0153 7.13811L9.8017 9.58678C9.77853 9.87818 9.72886 10.1017 9.6527 10.2573C9.57654 10.4129 9.45071 10.4908 9.27521 10.4908C9.09641 10.4908 8.97223 10.4163 8.9027 10.2672C8.83316 10.1149 8.78349 9.8848 8.75369 9.57685ZM9.30502 12.8451C9.10303 12.8451 8.92588 12.7805 8.77356 12.6514C8.62455 12.5189 8.55005 12.3351 8.55005 12.1C8.55005 11.8947 8.62124 11.7209 8.76362 11.5785C8.90932 11.4328 9.08647 11.36 9.29508 11.36C9.50369 11.36 9.68084 11.4328 9.82654 11.5785C9.97555 11.7209 10.05 11.8947 10.05 12.1C10.05 12.3318 9.97555 12.5139 9.82654 12.6464C9.67753 12.7788 9.50369 12.8451 9.30502 12.8451Z"
            fill="inherit" />
    </g>
    <defs>
        <clipPath id="clip0_4222_217128">
            <rect width="13.965" height="13.965" fill="white" transform="translate(2.25 2.25)" />
        </clipPath>
    </defs>
</svg>