<svg viewBox="0 0 24 24" fill='none' xmlns="http://www.w3.org/2000/svg">
    <path d="M3.97454 18.771C6.34478 17.4313 9.0831 16.6667 12 16.6667C14.9169 16.6667 17.6552 17.4313 20.0255 18.771M15.5 9.66667C15.5 11.5997 13.933 13.1667 12 13.1667C10.067 13.1667 8.5 11.5997 8.5 9.66667C8.5 7.73367 10.067 6.16667 12 6.16667C13.933 6.16667 15.5 7.73367 15.5 9.66667ZM22.5 12C22.5 17.799 17.799 22.5 12 22.5C6.20101 22.5 1.5 17.799 1.5 12C1.5 6.20101 6.20101 1.5 12 1.5C17.799 1.5 22.5 6.20101 22.5 12Z" stroke="inherit" stroke-width="1.8" stroke-linecap="round" stroke-linejoin="round" />
</svg>