<svg viewBox="0 0 1170 780" fill="none" xmlns="http://www.w3.org/2000/svg">
<g clip-path="url(#clip0_2476_90970)">
<path d="M-269.787 167.415L346.771 523.178L826.794 246.229L-269.787 -386.269V167.397V167.415Z" fill="url(#paint0_linear_2476_90970)"/>
<path d="M-269.787 642.48C-269.787 747.713 -155.793 813.327 -64.7823 760.701L346.753 523.16L-270 167.415V642.267L-269.787 642.48Z" fill="url(#paint1_linear_2476_90970)"/>
<path d="M1101.37 -148.728L-64.7646 -821.484C-156.006 -874.109 -269.787 -808.283 -269.787 -703.262V-386.269L826.776 246.212L1101.56 87.7151C1192.81 35.0896 1192.81 -96.3325 1101.56 -148.728H1101.35H1101.37Z" fill="url(#paint2_linear_2476_90970)"/>
</g>
<defs>
<linearGradient id="paint0_linear_2476_90970" x1="-664.227" y1="-353.595" x2="1016.98" y2="647.519" gradientUnits="userSpaceOnUse">
<stop stop-color="#ACA2FA"/>
<stop offset="0.5" stop-color="#FFB4F0"/>
<stop offset="1" stop-color="#FFD7A5"/>
</linearGradient>
<linearGradient id="paint1_linear_2476_90970" x1="-977.994" y1="-16.8627" x2="421.082" y2="862.019" gradientUnits="userSpaceOnUse">
<stop stop-color="#ACA2FA"/>
<stop offset="0.5" stop-color="#FFB4F0"/>
<stop offset="1" stop-color="#FFD7A5"/>
</linearGradient>
<linearGradient id="paint2_linear_2476_90970" x1="-292.061" y1="-693.588" x2="2576.59" y2="1035.82" gradientUnits="userSpaceOnUse">
<stop stop-color="#ACA2FA"/>
<stop offset="0.5" stop-color="#FFB4F0"/>
<stop offset="1" stop-color="#FFD7A5"/>
</linearGradient>
<clipPath id="clip0_2476_90970">
<rect width="1440" height="1619.25" fill="white" transform="translate(-270 -840)"/>
</clipPath>
</defs>
</svg>
