<svg width="30" height="37" viewBox="0 0 30 37" fill="none" xmlns="http://www.w3.org/2000/svg">
    <ellipse cx="20.4172" cy="9" rx="5" ry="5.5" fill="#64BE3C" />
    <circle cx="9.91724" cy="9" r="5.5" fill="#FF3C78" />
    <circle cx="14.4172" cy="7.5" r="5" fill="#FF9428" />
    <circle cx="18.4172" cy="1.5" r="1" fill="#7CE29F" />
    <circle cx="25.4172" cy="3.5" r="1" fill="#F8F8F8" />
    <circle cx="6.41724" cy="4.5" r="1" fill="#FFF48F" />
    <mask id="mask0_2132_31515" style="mask-type:alpha" maskUnits="userSpaceOnUse" x="0" y="6"
        width="31" height="31">
        <path
            d="M23.4695 36.5H6.51947C2.9339 36.5 0.000244141 33.6071 0.000244141 30.0714V29.8571L0.652167 12.7143C0.760821 9.17857 3.69447 6.5 7.1714 6.5H22.8175C26.2945 6.5 29.2281 9.17857 29.3368 12.7143L29.9887 29.8571C30.0974 31.5714 29.4454 33.1786 28.2502 34.4643C27.055 35.75 25.4252 36.5 23.6868 36.5H23.4695Z"
            fill="url(#paint0_linear_2132_31515)" />
    </mask>
    <g mask="url(#mask0_2132_31515)">
        <path d="M-1.79224 18.6989L31.9484 38.1843L58.2056 23.0277L-1.79224 -11.6143V18.6989Z"
            fill="url(#paint1_linear_2132_31515)" />
        <path
            d="M-1.7916 44.7197C-1.7916 50.4835 4.44656 54.077 9.4276 51.1951L31.949 38.1851L-1.80347 18.6997V44.7079L-1.7916 44.7197Z"
            fill="url(#paint2_linear_2132_31515)" />
        <path
            d="M73.2436 1.38335L9.42696 -35.4645C4.43405 -38.3464 -1.79224 -34.7411 -1.79224 -28.9891V-11.6267L58.2174 23.0153L73.2554 14.3341C78.2484 11.4522 78.2484 4.25338 73.2554 1.38335H73.2436Z"
            fill="url(#paint3_linear_2132_31515)" />
    </g>
    <path
        d="M14.9945 15.8938C11.4102 15.8938 8.56079 13.084 8.56079 9.54958C8.56079 9.00583 8.92818 8.64355 9.47959 8.64355C10.031 8.64355 10.3984 9.00583 10.3984 9.54958C10.3984 12.0875 12.4207 14.0811 14.9938 14.0811C17.5668 14.0811 19.5892 12.0869 19.5892 9.54958C19.5892 9.00583 19.9565 8.64355 20.508 8.64355C21.0594 8.64355 21.4268 9.00583 21.4268 9.54958C21.4268 13.084 18.5773 15.8938 14.9931 15.8938H14.9945Z"
        fill="white" />
    <g filter="url(#filter0_d_2132_31515)">
        <path
            d="M11.7955 29.5V27.68H6.96553V26.252L11.5575 19.7H13.5875V26.126H14.8755V27.68H13.5875V29.5H11.7955ZM8.88353 26.126H11.9075V21.674L8.88353 26.126ZM19.7423 29.668C19.0703 29.668 18.4636 29.5513 17.9223 29.318C17.3809 29.0753 16.9469 28.7347 16.6203 28.296C16.3029 27.8573 16.1443 27.3487 16.1443 26.77C16.1443 26.1727 16.2983 25.65 16.6063 25.202C16.9236 24.754 17.3389 24.432 17.8523 24.236C17.4043 24.04 17.0496 23.76 16.7883 23.396C16.5269 23.0227 16.3963 22.6073 16.3963 22.15C16.3963 21.6833 16.5223 21.254 16.7743 20.862C17.0263 20.4607 17.3996 20.1387 17.8943 19.896C18.3983 19.6533 19.0143 19.532 19.7423 19.532C20.4703 19.532 21.0816 19.6533 21.5763 19.896C22.0709 20.1387 22.4443 20.4607 22.6963 20.862C22.9483 21.254 23.0743 21.6833 23.0743 22.15C23.0743 22.598 22.9389 23.0133 22.6683 23.396C22.4069 23.7693 22.0569 24.0493 21.6183 24.236C22.1409 24.432 22.5563 24.754 22.8643 25.202C23.1723 25.65 23.3263 26.1727 23.3263 26.77C23.3263 27.3487 23.1676 27.8573 22.8503 28.296C22.5329 28.7347 22.0989 29.0753 21.5483 29.318C21.0069 29.5513 20.4049 29.668 19.7423 29.668ZM19.7423 23.704C20.2276 23.704 20.6103 23.578 20.8903 23.326C21.1703 23.074 21.3103 22.752 21.3103 22.36C21.3103 21.9307 21.1703 21.5947 20.8903 21.352C20.6196 21.1093 20.2369 20.988 19.7423 20.988C19.2383 20.988 18.8509 21.1093 18.5803 21.352C18.3096 21.5947 18.1743 21.9307 18.1743 22.36C18.1743 22.7613 18.3096 23.088 18.5803 23.34C18.8603 23.5827 19.2476 23.704 19.7423 23.704ZM19.7423 28.17C20.3396 28.17 20.7923 28.0253 21.1003 27.736C21.4083 27.4373 21.5623 27.064 21.5623 26.616C21.5623 26.1213 21.3989 25.734 21.0723 25.454C20.7549 25.174 20.3116 25.034 19.7423 25.034C19.1729 25.034 18.7203 25.174 18.3843 25.454C18.0576 25.734 17.8943 26.1213 17.8943 26.616C17.8943 27.064 18.0483 27.4373 18.3563 27.736C18.6736 28.0253 19.1356 28.17 19.7423 28.17Z"
            fill="#F5F5F5" />
    </g>
    <defs>
        <filter id="filter0_d_2132_31515" x="4.96558" y="17.5322" width="20.3606" height="14.1357"
            filterUnits="userSpaceOnUse" color-interpolation-filters="sRGB">
            <feFlood flood-opacity="0" result="BackgroundImageFix" />
            <feColorMatrix in="SourceAlpha" type="matrix"
                values="0 0 0 0 0 0 0 0 0 0 0 0 0 0 0 0 0 0 127 0" result="hardAlpha" />
            <feOffset />
            <feGaussianBlur stdDeviation="1" />
            <feComposite in2="hardAlpha" operator="out" />
            <feColorMatrix type="matrix"
                values="0 0 0 0 0.8125 0 0 0 0 0.0677083 0 0 0 0 0.296875 0 0 0 1 0" />
            <feBlend mode="normal" in2="BackgroundImageFix" result="effect1_dropShadow_2132_31515" />
            <feBlend mode="normal" in="SourceGraphic" in2="effect1_dropShadow_2132_31515"
                result="shape" />
        </filter>
        <linearGradient id="paint0_linear_2132_31515" x1="15.0003" y1="6.5" x2="15.0003"
            y2="36.2348" gradientUnits="userSpaceOnUse">
            <stop stop-color="#FF3C78" />
            <stop offset="1" stop-color="#FF1A60" />
        </linearGradient>
        <linearGradient id="paint1_linear_2132_31515" x1="-23.3768" y1="-9.82345" x2="68.6539"
            y2="44.9324" gradientUnits="userSpaceOnUse">
            <stop stop-color="#6458C4" />
            <stop offset="0.25" stop-color="#BE42B5" />
            <stop offset="0.5" stop-color="#FF3C78" />
            <stop offset="0.75" stop-color="#FF6B4D" />
            <stop offset="1" stop-color="#FF9428" />
        </linearGradient>
        <linearGradient id="paint2_linear_2132_31515" x1="-40.5489" y1="8.60717" x2="36.0524"
            y2="56.6861" gradientUnits="userSpaceOnUse">
            <stop stop-color="#6458C4" />
            <stop offset="0.25" stop-color="#BE42B5" />
            <stop offset="0.5" stop-color="#FF3C78" />
            <stop offset="0.75" stop-color="#FF6B4D" />
            <stop offset="1" stop-color="#FF9428" />
        </linearGradient>
        <linearGradient id="paint3_linear_2132_31515" x1="-3.01378" y1="-28.4555" x2="154.043"
            y2="66.1487" gradientUnits="userSpaceOnUse">
            <stop stop-color="#6458C4" />
            <stop offset="0.25" stop-color="#BE42B5" />
            <stop offset="0.5" stop-color="#FF3C78" />
            <stop offset="0.75" stop-color="#FF6B4D" />
            <stop offset="1" stop-color="#FF9428" />
        </linearGradient>
    </defs>
</svg>