<svg width="24" height="24" viewBox="0 0 24 24" xmlns="http://www.w3.org/2000/svg">
<path fill-rule="evenodd" clip-rule="evenodd" d="M3.51914 3.25008C3.51915 3.25008 3.51915 3.25008 3.51915 3.25008L5.77657 4.41554L5.77659 4.41556C6.24097 4.65533 6.53205 5.13451 6.53205 5.65668V10.1938C6.53205 10.5304 6.25922 10.8032 5.92267 10.8032C5.58612 10.8032 5.3133 10.5304 5.3133 10.1938V5.65668C5.3133 5.58946 5.27583 5.52863 5.21747 5.49848C5.21746 5.49848 5.21745 5.49847 5.21744 5.49847L2.96004 4.33302L2.96004 4.33301C2.84503 4.27364 2.7041 4.35615 2.7041 4.49121V10.1938C2.7041 10.5304 2.43128 10.8032 2.09473 10.8032C1.75818 10.8032 1.48535 10.5304 1.48535 10.1938V4.49121C1.48535 3.44783 2.5889 2.7698 3.51914 3.25008Z" />
<path fill-rule="evenodd" clip-rule="evenodd" d="M7.12354 12.2461C7.12354 12.5826 6.85071 12.8555 6.51416 12.8555H1.50309C1.16655 12.8555 0.89372 12.5826 0.89372 12.2461V10.2378C0.89372 9.90126 1.16655 9.62844 1.50309 9.62844H6.51416C6.85071 9.62844 7.12354 9.90126 7.12354 10.2378V12.2461ZM5.90479 11.6367V10.8472H2.11247V11.6367H5.90479Z" />
<path fill-rule="evenodd" clip-rule="evenodd" d="M0.562256 12.2461C0.562256 11.9095 0.835082 11.6367 1.17163 11.6367H6.84556C7.18211 11.6367 7.45494 11.9095 7.45494 12.2461V19.2304C7.45494 20.156 6.70465 20.9062 5.77914 20.9062H2.23806C1.31253 20.9062 0.562256 20.1559 0.562256 19.2304V12.2461ZM1.78101 12.8555V19.2304C1.78101 19.4829 1.98566 19.6875 2.23806 19.6875H5.77914C6.03155 19.6875 6.23619 19.4829 6.23619 19.2304V12.8555H1.78101Z" />
<path fill-rule="evenodd" clip-rule="evenodd" d="M8.05005 17.4534C8.05005 17.1168 8.32288 16.844 8.65942 16.844H22.8286C23.1651 16.844 23.438 17.1168 23.438 17.4534V17.4565C23.438 19.326 21.9224 20.8415 20.0529 20.8415H11.4351C9.5656 20.8415 8.05005 19.326 8.05005 17.4565V17.4534ZM9.35477 18.0627C9.617 18.9641 10.4491 19.6228 11.4351 19.6228H20.0529C21.0389 19.6228 21.871 18.9641 22.1332 18.0627H9.35477Z" />
<path fill-rule="evenodd" clip-rule="evenodd" d="M8.49219 11.546C8.49219 7.53402 11.7376 4.2793 15.7439 4.2793C19.7502 4.2793 22.9956 7.53397 22.9956 11.546C22.9956 14.3499 21.4105 16.7824 19.0911 17.9937C19.0041 18.0392 18.9073 18.063 18.8091 18.063H12.6787C12.5805 18.063 12.4837 18.0392 12.3966 17.9937C10.0772 16.7824 8.49219 14.3499 8.49219 11.546ZM15.7439 5.49805C12.4133 5.49805 9.71094 8.20452 9.71094 11.546C9.71094 13.8271 10.9705 15.8137 12.8321 16.8442H18.6557C20.5173 15.8137 21.7769 13.8271 21.7769 11.546C21.7769 8.20448 19.0745 5.49805 15.7439 5.49805Z" />
<path fill-rule="evenodd" clip-rule="evenodd" d="M15.744 7.97607C13.7764 7.97607 12.179 9.5751 12.179 11.5505C12.179 13.5259 13.7764 15.1249 15.744 15.1249C17.7116 15.1249 19.309 13.5259 19.309 11.5505C19.309 9.5751 17.7116 7.97607 15.744 7.97607ZM10.9602 11.5505C10.9602 8.90459 13.1007 6.75732 15.744 6.75732C18.3873 6.75732 20.5278 8.90459 20.5278 11.5505C20.5278 14.1964 18.3873 16.3437 15.744 16.3437C13.1007 16.3437 10.9602 14.1964 10.9602 11.5505Z" />
</svg>
