<svg viewBox="0 0 30 30" xmlns="http://www.w3.org/2000/svg">
<path d="M23.9118 7.93174H6.0882C5.46964 7.93174 5 7.51489 5 6.96587C5 6.41685 5.46964 6 6.0882 6H23.9118C24.5304 6 25 6.41685 25 6.96587C25 7.51489 24.5304 7.93174 23.9118 7.93174Z" fill="inherit"/>
<path d="M23.9118 15.8634H6.0882C5.46964 15.8634 5 15.4465 5 14.8975C5 14.3485 5.46964 13.9316 6.0882 13.9316H23.9118C24.5304 13.9316 25 14.3485 25 14.8975C25 15.4465 24.5304 15.8634 23.9118 15.8634Z" fill="inherit"/>
<path d="M23.9118 23.795H6.0882C5.46964 23.795 5 23.3782 5 22.8291C5 22.2801 5.46964 21.8633 6.0882 21.8633H23.9118C24.5304 21.8633 25 22.2801 25 22.8291C25 23.3782 24.5304 23.795 23.9118 23.795Z" fill="inherit"/>
</svg>
