<svg viewBox="0 0 34 34" fill="none" xmlns="http://www.w3.org/2000/svg">
    <path fill-rule="evenodd" clip-rule="evenodd"
        d="M9.34998 14.8746C9.34998 13.4801 10.4805 12.3496 11.875 12.3496H18.4375C19.832 12.3496 20.9625 13.4801 20.9625 14.8746V15.4365L23.7757 13.522C23.7942 13.5094 23.8134 13.4978 23.8332 13.4871C24.141 13.3214 24.5959 13.1771 25.0297 13.4025C25.4778 13.6354 25.6098 14.1061 25.6323 14.4742C25.6331 14.4867 25.6335 14.4993 25.6335 14.5119L25.6498 19.9604C25.657 20.4012 25.4673 20.8485 25.0171 21.053C24.6055 21.24 24.1667 21.1328 23.8464 20.9354C23.8336 20.9275 23.8211 20.9192 23.8088 20.9104L20.9625 18.8711V19.5621C20.9625 20.9566 19.832 22.0871 18.4375 22.0871H11.875C10.4805 22.0871 9.34998 20.9566 9.34998 19.5621V14.8746ZM19.6625 17.5972C19.6624 17.6025 19.6624 17.6079 19.6625 17.6133V19.5621C19.6625 20.2387 19.114 20.7871 18.4375 20.7871H11.875C11.1984 20.7871 10.65 20.2387 10.65 19.5621V14.8746C10.65 14.1981 11.1984 13.6496 11.875 13.6496H18.4375C19.114 13.6496 19.6625 14.1981 19.6625 14.8746V16.6565C19.6624 16.6626 19.6624 16.6687 19.6625 16.6747V17.5972ZM20.9625 17.2719L24.349 19.6982L24.3341 14.7145L20.9625 17.0089V17.2719Z"
        fill="inherit" />
    <path fill-rule="evenodd" clip-rule="evenodd"
        d="M23.4432 8.45903C23.7424 8.70384 23.7865 9.14486 23.5417 9.44407L10.0417 25.9441C9.79691 26.2433 9.35589 26.2874 9.05668 26.0426C8.75747 25.7978 8.71337 25.3567 8.95818 25.0575L22.4582 8.55754C22.703 8.25832 23.144 8.21422 23.4432 8.45903Z"
        fill="inherit" />
</svg>