<svg width="20" height="20" viewBox="0 0 20 20" fill="none" xmlns="http://www.w3.org/2000/svg">
    <g>
        <path fill-rule="evenodd" clip-rule="evenodd"
            d="M13.5582 18.4998C13.0082 18.1748 12.5582 17.7082 12.2415 17.1415H5.45817C4.2165 17.1415 3.20817 16.1415 3.20817 14.9248L3.5665 5.28317C3.62484 4.17484 4.4915 3.2665 5.64984 3.18317H14.5748C15.8165 3.18317 16.7665 4.0665 16.8248 5.28317L17.0832 12.1998C17.1415 12.2332 17.1998 12.2582 17.2498 12.2915L16.9832 5.27484C16.9248 3.9665 15.8998 3.0165 14.5665 3.0165H5.8165H14.5748C15.9082 3.0165 16.9332 3.9665 16.9915 5.27484L17.2582 12.2915C17.7332 12.5832 18.1415 12.9665 18.4415 13.4415L18.1332 5.27484C18.1332 5.03317 18.0915 4.7915 18.0415 4.5665C18.0998 4.7915 18.1248 5.03317 18.1332 5.27484L18.4415 13.4415C18.5082 13.5498 18.5665 13.6582 18.6248 13.7748L18.2998 5.27484C18.2332 3.2165 16.5248 1.6665 14.5082 1.6665H5.8165C3.79984 1.6665 2.0915 3.22484 2.02484 5.27484L1.6665 14.8082V14.9332C1.6665 16.9915 3.37484 18.6748 5.45817 18.6748H13.8665C13.7582 18.6248 13.6582 18.5665 13.5582 18.5082V18.4998ZM5.8165 3.02484C5.8165 3.02484 5.8165 3.02484 5.80817 3.02484C5.80817 3.02484 5.80817 3.02484 5.8165 3.02484ZM3.39984 5.28317C3.39984 5.28317 3.39984 5.25817 3.39984 5.24984C3.39984 5.25817 3.39984 5.27484 3.39984 5.28317Z"
            fill="white" />
        <path
            d="M15.3997 19.5997C13.083 19.5997 11.1997 17.7164 11.1997 15.3997C11.1997 13.0831 13.083 11.1914 15.3997 11.1914C17.7164 11.1914 19.608 13.0747 19.608 15.3997C19.608 17.7247 17.7247 19.5997 15.3997 19.5997ZM15.3997 12.3581C13.7247 12.3581 12.3664 13.7247 12.3664 15.3997C12.3664 17.0747 13.7247 18.4331 15.3997 18.4331C17.0747 18.4331 18.4414 17.0747 18.4414 15.3997C18.4414 13.7247 17.0747 12.3581 15.3997 12.3581Z"
            fill="white" />
        <path
            d="M17.458 15.3997C17.458 15.5997 17.2997 15.758 17.0997 15.758H15.758V17.0997C15.758 17.2997 15.5997 17.458 15.3997 17.458C15.2997 17.458 15.208 17.4164 15.1414 17.3497C15.0747 17.283 15.033 17.1914 15.033 17.0914V15.7497H13.6914C13.5914 15.7497 13.4997 15.708 13.433 15.6414C13.3664 15.5747 13.3247 15.483 13.3247 15.383C13.3247 15.183 13.483 15.0247 13.683 15.0247H15.0247V13.683C15.0247 13.483 15.183 13.3247 15.383 13.3247C15.583 13.3247 15.7414 13.483 15.7414 13.683V15.0247H17.083C17.283 15.0247 17.4414 15.183 17.4414 15.383L17.458 15.3997Z"
            fill="white" />
        <path fill-rule="evenodd" clip-rule="evenodd"
            d="M10.1665 9.14147C12.6082 9.14147 14.5582 7.2248 14.5582 4.80814C14.5582 4.59147 14.4832 4.3998 14.3415 4.25814C14.1998 4.11647 14.0082 4.0498 13.7915 4.0498C13.5748 4.0498 13.3748 4.1248 13.2415 4.25814C13.0998 4.3998 13.0248 4.59147 13.0248 4.80814C13.0248 6.38314 11.7748 7.61647 10.1748 7.61647C8.57484 7.61647 7.32484 6.3748 7.32484 4.80814C7.32484 4.59147 7.24984 4.3998 7.10817 4.25814C6.9665 4.11647 6.77484 4.0498 6.55817 4.0498C6.3415 4.0498 6.1415 4.1248 6.00817 4.25814C5.8665 4.3998 5.7915 4.59147 5.7915 4.80814C5.7915 7.2248 7.7415 9.14147 10.1832 9.14147H10.1665Z"
            fill="white" />
    </g>
</svg>