<svg width="24" height="24" viewBox="0 0 24 24" xmlns="http://www.w3.org/2000/svg">
<g clip-path="url(#clip0_3057_12842)">
<path d="M20.0099 8.4C19.5599 7.34 18.9299 6.4 18.1099 5.59C17.2999 4.78 16.3499 4.14 15.2999 3.69C13.1099 2.77 10.5899 2.77 8.4099 3.69C7.3599 4.14 6.4099 4.77 5.5999 5.59C4.7899 6.4 4.1499 7.35 3.6999 8.4C3.2399 9.49 2.9999 10.65 2.9999 11.85C2.9999 13.36 3.3899 14.84 4.1199 16.16L3.0399 19.49C2.9299 19.82 3.0199 20.18 3.2699 20.42C3.5199 20.66 3.8799 20.75 4.1999 20.65L7.5399 19.57C8.8499 20.3 10.3399 20.69 11.8499 20.69C13.0399 20.69 14.1999 20.46 15.2999 19.99C16.3499 19.54 17.2999 18.91 18.1099 18.09C18.9199 17.27 19.5599 16.33 20.0099 15.28C20.4699 14.19 20.7099 13.03 20.7099 11.83C20.7099 10.63 20.4799 9.48 20.0099 8.38V8.4ZM5.9999 16.33C6.0799 16.07 6.0499 15.79 5.8999 15.56C5.2099 14.45 4.8399 13.17 4.8399 11.85C4.8399 9.98 5.5699 8.22 6.8899 6.89C8.2099 5.57 9.9699 4.84 11.8499 4.84C13.7299 4.84 15.4799 5.57 16.7999 6.89C18.1199 8.21 18.8499 9.97 18.8499 11.85C18.8499 13.73 18.1199 15.48 16.7999 16.8C15.4799 18.12 13.7199 18.85 11.8499 18.85C10.5299 18.85 9.2499 18.48 8.1399 17.79C7.9899 17.7 7.8199 17.65 7.6499 17.65C7.5499 17.65 7.4499 17.67 7.3699 17.69L5.3499 18.34L5.9999 16.32V16.33Z" fill="url(#paint0_linear_3057_12842)"/>
<path d="M11.85 12.9398C12.45 12.9398 12.94 12.4498 12.94 11.8498C12.94 11.2498 12.45 10.7598 11.85 10.7598C11.25 10.7598 10.76 11.2498 10.76 11.8498C10.76 12.4498 11.25 12.9398 11.85 12.9398Z" fill="inherit"/>
<path d="M15.2101 12.9398C15.8101 12.9398 16.3001 12.4498 16.3001 11.8498C16.3001 11.2498 15.8101 10.7598 15.2101 10.7598C14.6101 10.7598 14.1201 11.2498 14.1201 11.8498C14.1201 12.4498 14.6101 12.9398 15.2101 12.9398Z" fill="inherit"/>
<path d="M8.4899 12.9398C9.0899 12.9398 9.5799 12.4498 9.5799 11.8498C9.5799 11.2498 9.0899 10.7598 8.4899 10.7598C7.8899 10.7598 7.3999 11.2498 7.3999 11.8498C7.3999 12.4498 7.8899 12.9398 8.4899 12.9398Z" fill="inherit"/>
</g>
<defs>
<linearGradient id="paint0_linear_3057_12842" x1="11.8518" y1="3" x2="11.8518" y2="20.5339" gradientUnits="userSpaceOnUse">
<stop stop-color="#FF3C78"/>
<stop offset="1" stop-color="#FF1A60"/>
</linearGradient>
<clipPath id="clip0_3057_12842">
<rect width="17.7" height="17.7" fill="white" transform="translate(3 3)"/>
</clipPath>
</defs>
</svg>
