<svg viewBox="0 0 60 62" fill="none" xmlns="http://www.w3.org/2000/svg">
    <g>
        <path
            d="M34.725 23.9872C34.975 24.2153 35.3 24.3421 35.65 24.3421C36.05 24.3421 36.425 24.1646 36.7 23.8605C37.2 23.2775 37.15 22.3903 36.6 21.8834C36.35 21.6553 35.625 20.7935 35.65 19.9824C35.65 19.4754 35.95 19.0192 36.55 18.5376C38.1 17.2702 38.475 15.8761 38.475 14.9383C38.525 12.6824 36.775 11.0601 36.6 10.8827C36.325 10.6292 35.95 10.5025 35.6 10.5278C35.225 10.5278 34.9 10.7053 34.65 11.0094C34.4 11.2883 34.275 11.6431 34.3 12.0233C34.3 12.4035 34.475 12.733 34.775 12.9865C34.775 12.9865 35.75 13.9244 35.725 14.8876C35.725 15.3945 35.425 15.8508 34.825 16.3577C33.275 17.6251 32.9 19.0192 32.9 19.957C32.85 22.2129 34.575 23.8351 34.775 24.0126L34.725 23.9872Z"
            fill="white" />
        <path
            d="M27.4999 23.9872C27.7499 24.2153 28.0749 24.3421 28.4249 24.3421C28.8249 24.3421 29.1999 24.1646 29.4749 23.8605C29.9749 23.2775 29.9249 22.3903 29.3749 21.8834C29.1249 21.6553 28.3999 20.7935 28.4249 19.9824C28.4249 19.4754 28.7249 19.0192 29.3249 18.5376C30.8749 17.2702 31.2499 15.8761 31.2499 14.9383C31.2999 12.6824 29.5499 11.0601 29.3749 10.8827C29.0999 10.6292 28.7499 10.5025 28.3749 10.5278C27.9999 10.5278 27.6749 10.7053 27.4249 11.0094C27.1749 11.2883 27.0499 11.6431 27.0749 12.0233C27.0749 12.4035 27.2499 12.733 27.5499 12.9865C27.5499 12.9865 28.5249 13.9244 28.4999 14.8876C28.4999 15.3945 28.1999 15.8508 27.5999 16.3577C26.0499 17.6251 25.6749 19.0192 25.6749 19.957C25.6249 22.2129 27.3499 23.8351 27.5499 24.0126L27.4999 23.9872Z"
            fill="white" />
        <path
            d="M45.45 29.3861H44.35V28.8032C44.35 28.0174 43.725 27.4091 42.95 27.4091H13.9C13.125 27.4091 12.5 28.0427 12.5 28.8032V34.9118C12.5 39.9306 15 44.5691 19.25 47.4587H13.9C13.125 47.4334 12.5 48.067 12.5 48.8275C12.5 49.5879 13.125 50.2469 13.875 50.2469H42.975C43.75 50.2469 44.375 49.6132 44.375 48.8275C44.375 48.0417 43.75 47.408 42.975 47.408H37.625C39.825 45.9125 41.575 43.9354 42.75 41.6035H45.475C48.8 41.6035 51.525 38.866 51.525 35.4695C51.525 32.0729 48.825 29.3354 45.475 29.3354L45.45 29.3861ZM48.725 35.5202C48.725 37.3452 47.25 38.8407 45.45 38.8407H43.825C44.175 37.5479 44.35 36.2299 44.35 34.9118V32.225H45.45C47.25 32.225 48.725 33.7205 48.725 35.5455V35.5202ZM41.575 30.1973V34.8865C41.575 41.8063 35.675 47.4334 28.425 47.4334C21.175 47.4334 15.275 41.8063 15.275 34.8865V30.1973H41.575Z"
            fill="white" />
        <path
            d="M20.275 23.9872C20.525 24.2153 20.85 24.342 21.2 24.342C21.6 24.342 21.975 24.1646 22.25 23.8605C22.75 23.2775 22.7 22.3903 22.125 21.858C22.125 21.858 21.15 20.9202 21.175 19.957C21.175 19.4754 21.475 18.9938 22.075 18.4868C23.625 17.2195 24 15.8254 24 14.8875C24.05 12.6316 22.3 11.0094 22.125 10.832C21.85 10.6292 21.475 10.5025 21.125 10.5278C20.75 10.5278 20.425 10.7052 20.175 11.0094C19.925 11.2882 19.8 11.6431 19.825 12.0233C19.825 12.4035 20 12.733 20.3 12.9865C20.3 12.9865 21.275 13.9243 21.25 14.8875C21.25 15.3945 20.95 15.8507 20.35 16.3577C18.8 17.625 18.425 19.0191 18.425 19.957C18.375 22.1368 19.975 23.7337 20.3 24.0125L20.275 23.9872Z"
            fill="white" />
    </g>
</svg>