<svg width="12" height="12" viewBox="0 0 12 12" xmlns="http://www.w3.org/2000/svg">
<g clip-path="url(#clip0_2222_83382)">
<path fill-rule="evenodd" clip-rule="evenodd" d="M3.93766 1.87565C3.81109 1.87565 3.7085 1.97825 3.7085 2.10482V2.79232H8.06266C8.69549 2.79232 9.2085 3.30532 9.2085 3.93815V8.29232H9.896C10.0226 8.29232 10.1252 8.18973 10.1252 8.06315V2.10482C10.1252 1.97825 10.0226 1.87565 9.896 1.87565H3.93766ZM9.2085 9.20899H9.896C10.5288 9.20899 11.0418 8.69599 11.0418 8.06315V2.10482C11.0418 1.472 10.5288 0.958984 9.896 0.958984H3.93766C3.30482 0.958984 2.79183 1.472 2.79183 2.10482V2.79232H2.10433C1.4715 2.79232 0.958496 3.30532 0.958496 3.93815V9.89649C0.958496 10.5293 1.4715 11.0423 2.10433 11.0423H8.06266C8.69549 11.0423 9.2085 10.5293 9.2085 9.89649V9.20899ZM2.10433 3.70898C1.97776 3.70898 1.87516 3.81159 1.87516 3.93815V9.89649C1.87516 10.0231 1.97776 10.1257 2.10433 10.1257H8.06266C8.18923 10.1257 8.29183 10.0231 8.29183 9.89649V3.93815C8.29183 3.81159 8.18923 3.70898 8.06266 3.70898H2.10433Z" />
</g>
<defs>
<clipPath id="clip0_2222_83382">
<rect width="12" height="12" />
</clipPath>
</defs>
</svg>
