<svg width="24" height="24" viewBox="0 0 24 24" xmlns="http://www.w3.org/2000/svg">
<g clip-path="url(#clip0_3163_18831)">
<path d="M9.62548 16.026H14.8695C15.4755 16.026 15.9735 15.528 15.9735 14.922C15.9735 14.316 15.4755 13.818 14.8695 13.818H9.62548C9.01948 13.818 8.52148 14.31 8.52148 14.922C8.52148 15.534 9.01348 16.026 9.62548 16.026ZM9.41548 14.922C9.41548 14.808 9.51148 14.712 9.62548 14.712H14.8695C14.9835 14.712 15.0795 14.808 15.0795 14.922C15.0795 15.036 14.9835 15.132 14.8695 15.132H9.62548C9.51148 15.132 9.41548 15.036 9.41548 14.922Z" fill="inherit"/>
<path d="M19.9634 8.244L16.6394 6.264C16.3634 6.096 16.0334 6.048 15.7154 6.126C15.4034 6.204 15.1334 6.402 14.9774 6.666L12.3074 11.142C12.1994 10.92 12.1214 10.68 12.0734 10.44C12.4334 10.368 12.6914 10.056 12.6914 9.696C12.7334 9.426 12.6914 9.144 12.5834 8.892C13.5974 8.358 14.3294 7.044 14.3294 5.748C14.3294 3.864 12.9074 3 11.5874 3C10.8734 3 10.2014 3.246 9.70939 3.684C9.14539 4.182 8.85139 4.896 8.85139 5.742C8.85139 7.038 9.5834 8.352 10.5974 8.886C10.4894 9.138 10.4474 9.42 10.4894 9.672C10.4894 10.062 10.7894 10.392 11.1734 10.44C11.2334 10.956 11.3714 11.232 11.5094 11.508C11.5994 11.688 11.6834 11.862 11.7434 12.102L11.5034 12.504H10.5134C10.6754 11.67 10.4174 10.812 9.82939 10.2C9.93139 9.822 9.7274 9.414 9.36139 9.276C9.34339 9.27 9.31939 9.258 9.30139 9.258L4.95139 7.956C4.75339 7.896 4.53739 7.914 4.35139 8.016C4.16539 8.118 4.03339 8.28 3.97339 8.484C3.93139 8.634 3.93139 8.784 3.97339 8.934L5.10139 12.69C4.78339 12.894 4.59739 13.236 4.59739 13.614V20.004C4.59739 20.61 5.08939 21.108 5.70139 21.108H18.1454C18.7514 21.108 19.2494 20.61 19.2494 20.004V13.614C19.2494 13.242 19.0514 12.888 18.7394 12.69L20.3894 9.924C20.7314 9.348 20.5394 8.598 19.9634 8.25V8.244ZM11.3894 9.348C11.3894 9.234 11.4854 9.138 11.5994 9.138C11.7134 9.138 11.8094 9.234 11.8094 9.348V9.558H11.3954V9.348H11.3894ZM13.4414 5.742C13.4414 7.026 12.5414 8.244 11.5934 8.244C10.6454 8.244 9.7454 7.026 9.7454 5.736C9.7214 5.268 9.87739 4.824 10.1834 4.476C10.4954 4.128 10.9214 3.924 11.3834 3.894C11.4134 3.894 11.4494 3.894 11.4854 3.894C11.5214 3.894 11.5574 3.894 11.5934 3.894C11.6234 3.894 11.6594 3.894 11.6894 3.894C12.1214 3.894 12.5294 4.05 12.8534 4.338C13.2014 4.65 13.4054 5.076 13.4354 5.538C13.4354 5.604 13.4354 5.67 13.4354 5.742H13.4414ZM5.95939 12.45C6.70939 11.652 7.35139 10.752 7.86139 9.774L8.8454 10.074L6.41539 12.51H5.98339L5.96539 12.45H5.95939ZM5.65939 11.442L5.44339 10.704C5.79739 10.278 6.10939 9.816 6.37939 9.33L6.99139 9.516C6.61939 10.206 6.17539 10.854 5.66539 11.442H5.65939ZM5.48539 13.614C5.48539 13.5 5.58139 13.404 5.69539 13.404H18.1454C18.2594 13.404 18.3554 13.5 18.3554 13.614V20.004C18.3554 20.118 18.2594 20.214 18.1454 20.214H5.69539C5.58139 20.214 5.48539 20.118 5.48539 20.004V13.614ZM12.5414 12.51L15.7334 7.146C15.8234 6.996 16.0274 6.942 16.1774 7.032L19.5014 9.012C19.6574 9.102 19.7054 9.306 19.6154 9.456L17.7974 12.504H16.6994C16.6634 11.67 15.9914 11.004 15.1514 10.974C14.2634 10.944 13.5374 11.628 13.4954 12.504H12.5294L12.5414 12.51ZM14.5934 12.12C14.7254 11.982 14.8994 11.904 15.0914 11.904C15.0914 11.904 15.0914 11.904 15.1034 11.904C15.4514 11.904 15.7574 12.168 15.8054 12.51H14.4014C14.4254 12.366 14.4854 12.228 14.5934 12.12ZM7.68139 12.51L9.2654 10.926C9.63739 11.37 9.7574 11.958 9.5954 12.51H7.68139ZM5.50339 9.06C5.38939 9.258 5.26339 9.45 5.13139 9.636L4.90939 8.88L5.50339 9.06Z" fill="inherit"/>
</g>
<defs>
<clipPath id="clip0_3163_18831">
<rect width="16.62" height="18.102" fill="white" transform="translate(3.9375 3)"/>
</clipPath>
</defs>
</svg>
