<svg width="34" height="34" viewBox="0 0 34 34" fill="inherit" xmlns="http://www.w3.org/2000/svg">
    <g >
        <path
            d="M14.8051 23.9471C15.7323 23.0828 15.8741 21.728 15.1218 20.9211C14.3696 20.1141 13.0082 20.1606 12.0811 21.0248C11.1539 21.8891 11.0121 23.2439 11.7644 24.0508C12.5166 24.8578 13.878 24.8113 14.8051 23.9471Z"
            fill="inherit" />
        <path
            d="M27.0551 23.9496C27.9823 23.0854 28.1241 21.7306 27.3718 20.9236C26.6196 20.1167 25.2582 20.1631 24.3311 21.0274C23.4039 21.8917 23.2621 23.2464 24.0144 24.0534C24.7666 24.8604 26.128 24.8139 27.0551 23.9496Z"
            fill="inherit" />
        <path
            d="M4.12349 12.41C4.66182 12.41 5.08682 12.8492 5.08682 13.3733C5.08682 13.9117 4.64766 14.3367 4.12349 14.3367C3.58516 14.3367 3.16016 13.8975 3.16016 13.3733C3.16016 12.835 3.59932 12.41 4.12349 12.41Z"
            fill="inherit" />
        <path
            d="M22.4832 22.2842C22.8232 20.5842 24.4381 19.2383 26.1523 19.2383C27.8665 19.2383 29.014 20.485 28.9856 22.1C30.7848 22.1425 31.2806 19.7767 31.2806 19.7767C31.4365 19.1108 31.6631 17.8217 31.8473 16.5608C31.904 16.1642 31.8615 15.7675 31.7056 15.3992C31.2381 14.3083 30.6715 13.2458 30.0057 12.2542C29.3823 11.3192 28.334 10.7667 27.144 10.7525C26.4356 10.7525 25.7273 10.7383 25.2031 10.7383C25.1323 9.59083 24.3106 8.72667 23.1348 8.61333C22.384 8.5425 19.3806 8.5 17.9357 8.5C17.369 8.5 16.5473 8.5 15.7115 8.52833H5.72398C5.18565 8.52833 4.76065 8.9675 4.76065 9.49167C4.76065 10.03 5.18565 10.455 5.72398 10.455H7.73565C8.23148 10.4975 8.62815 10.9083 8.62815 11.4183C8.62815 11.9567 8.20315 12.3958 7.66482 12.3958H6.63065C6.09232 12.3958 5.66732 12.835 5.66732 13.3592C5.66732 13.8975 6.10648 14.3225 6.63065 14.3225H7.66482C8.20315 14.3225 8.62815 14.7617 8.62815 15.2858C8.62815 15.8242 8.18898 16.2492 7.66482 16.2492H3.79732C3.27315 16.2633 2.83398 16.6883 2.83398 17.2267C2.83398 17.765 3.27315 18.19 3.79732 18.19H7.66482C8.20315 18.19 8.62815 18.6292 8.62815 19.1533C8.62815 19.6917 8.18898 20.1167 7.66482 20.1167H6.47482C5.93648 20.1167 5.51148 20.5558 5.51148 21.08C5.51148 21.6183 5.95065 22.0433 6.47482 22.0433H10.2857L10.5973 21.25C11.249 20.06 12.5382 19.21 13.8982 19.21C15.6265 19.21 16.8448 20.5558 16.7173 22.27H22.469M12.8782 12.835H11.5748L11.4615 13.685H12.4248C12.5948 13.685 12.7507 13.8125 12.7507 13.9967C12.7507 14.025 12.7507 14.0392 12.7507 14.0675C12.7223 14.28 12.5382 14.4358 12.3257 14.45H11.3623L11.1923 15.6825C11.164 15.895 10.9798 16.0508 10.7673 16.065C10.5973 16.065 10.4415 15.9375 10.4415 15.7533C10.4415 15.725 10.4415 15.7108 10.4415 15.6825L10.8948 12.4808C10.9373 12.2542 11.1215 12.0842 11.3482 12.0842H13.0057C13.1757 12.0842 13.3315 12.2117 13.3315 12.3958C13.3315 12.4242 13.3315 12.4383 13.3315 12.4667C13.3032 12.6792 13.119 12.835 12.9065 12.835H12.8782ZM16.349 12.3392C16.4907 12.4525 16.5757 12.6225 16.6181 12.7925C16.6607 12.9908 16.6748 13.2033 16.6465 13.4017C16.604 13.7133 16.4765 14.0108 16.2782 14.2517C16.1507 14.3933 15.9948 14.5067 15.8248 14.5775L16.1507 15.5125C16.2357 15.7675 16.009 16.0508 15.7398 16.0508H15.7257C15.584 16.0508 15.4565 15.9658 15.414 15.8383L15.0315 14.705H14.2098L14.0682 15.6683C14.0398 15.8808 13.8557 16.0367 13.6432 16.0508C13.4732 16.0508 13.3173 15.9233 13.3173 15.7392C13.3173 15.7108 13.3173 15.6967 13.3173 15.6683L13.7707 12.4667C13.8132 12.24 13.9973 12.07 14.224 12.07H15.499C15.499 12.07 16.0657 12.0558 16.3773 12.325L16.349 12.3392ZM19.8765 12.4383C19.8482 12.6367 19.6782 12.7783 19.4798 12.7925H17.9923L17.879 13.6283H19.0406C19.2106 13.6283 19.3382 13.7558 19.3523 13.9117C19.3523 13.9258 19.3523 13.9542 19.3523 13.9683C19.324 14.1667 19.154 14.3083 18.9557 14.3225H17.794L17.6523 15.3283H19.1398C19.3098 15.3283 19.4373 15.4558 19.4515 15.6117C19.4515 15.6258 19.4515 15.6542 19.4515 15.6683C19.4231 15.8667 19.2532 16.0083 19.0548 16.0225H17.2132C17.029 16.0225 16.8732 15.8808 16.8732 15.6825C16.8732 15.6683 16.8732 15.64 16.8732 15.6258L17.3265 12.4525C17.369 12.2258 17.5532 12.0558 17.7798 12.0558H19.6215C19.7915 12.0558 19.919 12.1833 19.919 12.3392C19.919 12.3533 19.919 12.3817 19.919 12.3958L19.8765 12.4383ZM22.9648 12.4383C22.9365 12.6367 22.7665 12.7783 22.5682 12.7925H21.0807L20.9673 13.6283H22.129C22.299 13.6283 22.4265 13.7558 22.4407 13.9117C22.4407 13.9258 22.4407 13.9542 22.4407 13.9683C22.4123 14.1667 22.2423 14.3083 22.044 14.3225H20.8823L20.7407 15.3283H22.2281C22.3981 15.3283 22.5257 15.4558 22.5398 15.6117C22.5398 15.6258 22.5398 15.6542 22.5398 15.6683C22.5115 15.8667 22.3415 16.0083 22.1432 16.0225H20.3015C20.1173 16.0225 19.9615 15.8808 19.9615 15.6825C19.9615 15.6683 19.9615 15.64 19.9615 15.6258L20.4148 12.4525C20.4573 12.2258 20.6415 12.0558 20.8682 12.0558H22.7098C22.8798 12.0558 23.0073 12.1833 23.0073 12.3392C23.0073 12.3533 23.0073 12.3817 23.0073 12.3958L22.9648 12.4383ZM25.1182 12.07C25.6281 12.07 26.2798 12.07 26.9315 12.0842C27.7248 12.0842 28.419 12.4667 28.844 13.09C29.2973 13.77 29.694 14.4642 30.0481 15.1867C30.2323 15.5692 29.8923 16.065 29.439 16.065H24.6082L25.1182 12.07Z"
            fill="inherit" />
        <path
            d="M15.1737 14.0108H14.2812L14.4512 12.7783H15.3437C15.3437 12.7783 15.9954 12.7358 15.8963 13.3875C15.8963 13.3875 15.8254 13.9967 15.1737 13.9967V14.0108Z"
            fill="inherit" />
    </g>

</svg>