<svg width="24" height="24" viewBox="0 0 24 24" xmlns="http://www.w3.org/2000/svg">
<path d="M6.04216 6.20996C5.77216 6.20996 5.55615 6.42596 5.55615 6.69596V7.99796C5.55615 8.26796 5.77216 8.48396 6.04216 8.48396C6.31216 8.48396 6.52816 8.26796 6.52816 7.99796V6.69596C6.52816 6.42596 6.31216 6.20996 6.04216 6.20996Z" fill="inherit"/>
<path d="M6.04216 11.424C5.77216 11.424 5.55615 11.6399 5.55615 11.9099V14.5139C5.55615 14.7839 5.77216 15 6.04216 15C6.31216 15 6.52816 14.7839 6.52816 14.5139V11.9099C6.52816 11.6399 6.31216 11.424 6.04216 11.424Z" fill="inherit"/>
<path d="M18.8161 6.92398H13.6981V5.06398C13.6981 4.25398 13.0381 3.59998 12.2341 3.59998H5.0641C4.2541 3.59998 3.6001 4.25998 3.6001 5.06398V18.822C3.6001 19.632 4.2601 20.286 5.0641 20.286H18.8161C19.6261 20.286 20.2801 19.626 20.2801 18.822V8.39398C20.2801 7.58398 19.6201 6.92998 18.8161 6.92998V6.92398ZM19.3021 8.38798V10.182H10.5061V8.38798C10.5061 8.11798 10.7281 7.90198 10.9921 7.90198H18.8101C19.0801 7.90198 19.2961 8.12398 19.2961 8.38798H19.3021ZM4.57209 5.06398C4.57209 4.79398 4.7941 4.57798 5.0581 4.57798H12.2281C12.4981 4.57798 12.7141 4.79998 12.7141 5.06398V6.92398H10.9861C10.1761 6.92398 9.52209 7.58398 9.52209 8.38798V9.46198H4.5661V5.06998L4.57209 5.06398ZM4.57209 18.816V10.446H9.5281V18.822C9.5281 18.996 9.5641 19.158 9.6181 19.308H5.0641C4.7941 19.308 4.5781 19.086 4.5781 18.822L4.57209 18.816ZM19.3021 18.816C19.3021 19.086 19.0801 19.302 18.8161 19.302H10.9981C10.7281 19.302 10.5121 19.08 10.5121 18.816V11.16H19.3081V18.816H19.3021Z" fill="inherit"/>
<path d="M17.838 9.53401C18.108 9.53401 18.324 9.31801 18.324 9.04801C18.324 8.77801 18.108 8.56201 17.838 8.56201C17.568 8.56201 17.3521 8.77801 17.3521 9.04801C17.3521 9.31801 17.568 9.53401 17.838 9.53401Z" fill="inherit"/>
<path d="M15.8881 9.53401C16.1581 9.53401 16.3741 9.31801 16.3741 9.04801C16.3741 8.77801 16.1581 8.56201 15.8881 8.56201C15.6181 8.56201 15.4021 8.77801 15.4021 9.04801C15.4021 9.31801 15.6181 9.53401 15.8881 9.53401Z" fill="inherit"/>
<path d="M14.9102 18.3299C16.6142 18.3299 18.0062 16.9439 18.0062 15.2339C18.0062 13.5239 16.6202 12.1379 14.9102 12.1379C13.2002 12.1379 11.8142 13.5239 11.8142 15.2339C11.8142 16.9439 13.2002 18.3299 14.9102 18.3299ZM14.9102 13.1159C16.0802 13.1159 17.0282 14.0639 17.0282 15.2339C17.0282 16.4039 16.0802 17.3519 14.9102 17.3519C13.7402 17.3519 12.7922 16.4039 12.7922 15.2339C12.7922 14.0639 13.7402 13.1159 14.9102 13.1159Z" fill="inherit"/>
</svg>
