<svg viewBox="0 0 9 9" fill="none" xmlns="http://www.w3.org/2000/svg">
<path fill-rule="evenodd" clip-rule="evenodd" d="M5.94276 0.75C6.04227 0.749981 6.13771 0.789514 6.20805 0.859893L7.57772 2.23016C7.72409 2.3766 7.72409 2.61394 7.57772 2.76038L3.6997 6.64011C3.62937 6.71047 3.53396 6.75 3.43447 6.75H2.0625C1.85539 6.75 1.6875 6.58211 1.6875 6.375V5.00998C1.6875 4.9106 1.72695 4.81529 1.79718 4.74498L5.67751 0.859994C5.74783 0.789588 5.84325 0.750019 5.94276 0.75ZM5.94293 1.65555L2.4375 5.16518V6H3.2791L6.78229 2.49527L5.94293 1.65555ZM0.9375 7.875C0.9375 7.66789 1.10539 7.5 1.3125 7.5H8.0625C8.26961 7.5 8.4375 7.66789 8.4375 7.875C8.4375 8.08211 8.26961 8.25 8.0625 8.25H1.3125C1.10539 8.25 0.9375 8.08211 0.9375 7.875Z" fill="#AAAAAA"/>
</svg>
