<svg width="20" height="21" viewBox="0 0 20 21"  xmlns="http://www.w3.org/2000/svg">
<g clip-path="url(#clip0_3576_98954)">
<path d="M5.55012 15.3151C5.68345 15.3151 5.71679 15.2984 5.83345 15.2734L8.28345 14.7818C8.54179 14.7151 8.80012 14.5901 9.00845 14.3901L14.9501 8.44844C15.8668 7.53177 15.8668 5.9651 14.9501 5.05677L14.4418 4.52344C13.5251 3.60677 11.9501 3.60677 11.0335 4.52344L5.10012 10.4734C4.90845 10.6651 4.77512 10.9401 4.70845 11.1984L4.18345 13.6734C4.11679 14.1401 4.25012 14.5901 4.57512 14.9151C4.83345 15.1734 5.21679 15.3068 5.54179 15.3068L5.55012 15.3151ZM6.01679 11.4568L11.9501 5.49844C12.3418 5.10677 13.0668 5.10677 13.4501 5.49844L13.9668 6.0151C14.4335 6.48177 14.4335 7.13177 13.9668 7.58177L8.04179 13.5401L5.51679 13.9651L6.00845 11.4568H6.01679Z" />
<path d="M14.9 16.1562H4.84168C4.45002 16.1562 4.18335 16.4146 4.18335 16.8146C4.18335 17.2146 4.50835 17.4729 4.84168 17.4729H14.8417C15.2334 17.4729 15.5667 17.2146 15.5667 16.8146C15.55 16.4229 15.225 16.1562 14.9 16.1562Z" />
</g>
<defs>
<clipPath id="clip0_3576_98954">
<rect width="11.4667" height="13.6333"  transform="translate(4.16675 3.83203)"/>
</clipPath>
</defs>
</svg>
