<svg width="40" height="40" viewBox="0 0 40 40" fill="none" xmlns="http://www.w3.org/2000/svg">
<path d="M20 40C31.0457 40 40 31.0457 40 20C40 8.9543 31.0457 0 20 0C8.9543 0 0 8.9543 0 20C0 31.0457 8.9543 40 20 40Z" fill="#E5C12C"/>
<path d="M20.5562 22.4281C20.375 22.5414 20.1703 22.5867 19.9891 22.5867C19.8078 22.5867 19.6031 22.5414 19.4219 22.4281L10.3906 16.9141V24.2438C10.3906 25.8094 11.6617 27.0805 13.2273 27.0805H26.775C28.3406 27.0805 29.6117 25.8094 29.6117 24.2438V16.9141L20.5578 22.4281H20.5562Z" fill="white"/>
<path d="M26.7734 12.9219H13.2266C11.8875 12.9219 10.7531 13.875 10.4805 15.1461L20.0109 20.9555L29.5187 15.1461C29.2461 13.875 28.1117 12.9219 26.7727 12.9219H26.7734Z" fill="white"/>
</svg>
