<svg width="60" height="61" viewBox="0 0 60 61" xmlns="http://www.w3.org/2000/svg">
<g clip-path="url(#clip0_4052_167705)">
<path d="M50 29.668C50 28.6003 49.1146 27.7148 48.0469 27.7148H11.9531C10.8854 27.7148 10 28.6003 10 29.668C10 32.6367 12.4219 35.0586 15.3906 35.0586H17.8385C17.8385 35.0586 17.7865 35.1367 17.7604 35.1888L15.3646 38.8607H11.1719C10.5208 38.8607 10 39.3815 10 40.0326C10 40.6836 10.5208 41.2044 11.1719 41.2044H15.9896C16.3802 41.2044 16.7448 40.9961 16.9792 40.6836L19.7396 36.4909C20.3125 35.6315 21.25 35.1107 22.2917 35.1107H30.1302C30.6771 35.1107 31.1458 35.5534 31.1458 36.1263C31.1458 36.6992 30.7031 37.1419 30.1302 37.1419H26.901C25.0521 37.1419 23.5417 38.6523 23.5417 40.5013C23.5417 42.3503 25.0521 43.8607 26.901 43.8607H30.3385C31.3542 43.8607 32.3177 43.4961 33.099 42.8451L41.276 35.9961C41.6667 35.6576 42.2135 35.6315 42.6562 35.8919C43.0729 36.1523 43.1771 36.5169 43.2031 36.7253C43.2292 36.9336 43.2292 37.3242 42.9167 37.6888L35 46.5169C34.0365 47.5846 32.6562 48.2096 31.224 48.2096H11.1719C10.5208 48.1576 10 48.6784 10 49.3294C10 49.9805 10.5208 50.5013 11.1719 50.5013H31.1719C33.2813 50.5013 35.2865 49.5898 36.6927 48.0273L44.6094 39.1992C45.3125 38.418 45.625 37.3763 45.4688 36.3607C45.3906 35.8919 45.2344 35.4492 45.026 35.0586C47.8125 34.8503 50 32.5065 50 29.694V29.668ZM44.6094 32.7148H15.3906C13.8542 32.7148 12.5521 31.543 12.3698 30.0586H47.6302C47.4479 31.543 46.1458 32.7148 44.6094 32.7148ZM31.5625 40.9961C31.224 41.2826 30.7552 41.4648 30.3125 41.4648H26.875C26.3281 41.4648 25.8594 41.0221 25.8594 40.4492C25.8594 39.8763 26.3021 39.4336 26.875 39.4336H30.1042C31.9531 39.4336 33.4635 37.9232 33.4635 36.0742C33.4635 35.7096 33.4115 35.3711 33.3073 35.0326H38.6458L31.5625 40.9701V40.9961Z" fill="inherit"/>
<path d="M39.2708 23.8867C39.2708 24.5378 39.7916 25.0586 40.4426 25.0586H43.4895C44.1405 25.0586 44.6614 24.5378 44.6614 23.8867C44.6614 23.2357 44.1405 22.7148 43.4895 22.7148H40.4426C39.7916 22.7148 39.2708 23.2357 39.2708 23.8867Z" fill="inherit"/>
<path d="M38.3595 19.302C38.6199 19.302 38.8803 19.2239 39.0886 19.0416L41.4845 17.1405C41.9792 16.7239 42.0834 15.9947 41.6667 15.4999C41.2501 15.0051 40.5209 14.901 40.0261 15.3176L37.6303 17.2187C37.1355 17.6353 37.0313 18.3645 37.448 18.8593C37.6824 19.1457 38.0209 19.302 38.3595 19.302Z" fill="inherit"/>
<path d="M32.8125 15.7099C32.8125 15.7099 33.0469 15.762 33.1771 15.762C33.6719 15.762 34.1406 15.4495 34.2969 14.9547L35.2344 12.038C35.4427 11.413 35.1042 10.762 34.4792 10.5536C33.8542 10.3453 33.2031 10.6839 32.9948 11.3089L32.0573 14.2255C31.849 14.8505 32.1875 15.5016 32.8125 15.7099Z" fill="inherit"/>
<path d="M25.7031 14.9547C25.8593 15.4495 26.3281 15.762 26.8229 15.762C26.9531 15.762 27.0572 15.762 27.1874 15.7099C27.8124 15.5016 28.151 14.8505 27.9426 14.2255L27.0051 11.3089C26.7968 10.6839 26.1458 10.3453 25.5208 10.5536C24.8958 10.762 24.5572 11.413 24.7656 12.038L25.7031 14.9547Z" fill="inherit"/>
<path d="M18.5155 17.1405L20.9114 19.0416C21.1197 19.2239 21.3801 19.302 21.6405 19.302C21.9791 19.302 22.3176 19.1457 22.552 18.8593C22.9687 18.3645 22.8645 17.6093 22.3697 17.2187L19.9739 15.3176C19.4791 14.901 18.7239 15.0051 18.3333 15.4999C17.9426 15.9947 18.0208 16.7499 18.5155 17.1405Z" fill="inherit"/>
<path d="M16.4844 25.0586H19.5313C20.1823 25.0586 20.7031 24.5378 20.7031 23.8867C20.7031 23.2357 20.1823 22.7148 19.5313 22.7148H16.4844C15.8333 22.7148 15.3125 23.2357 15.3125 23.8867C15.3125 24.5378 15.8333 25.0586 16.4844 25.0586Z" fill="inherit"/>
</g>
<defs>
<clipPath id="clip0_4052_167705">
<rect width="40" height="40" fill="white" transform="translate(10 10.5)"/>
</clipPath>
</defs>
</svg>
