<svg viewBox="0 0 34 34" fill="none" xmlns="http://www.w3.org/2000/svg">
    <g clip-path="url(#clip0_1217_20181)">
        <path
            d="M23.5675 23.7529H19.3745C18.9575 23.7529 18.6216 23.417 18.6216 23C18.6216 22.583 18.9575 22.2471 19.3745 22.2471H23.5675C24.0772 22.2471 24.4942 21.8301 24.4942 21.3205V10.4324C24.4942 9.92278 24.0772 9.50579 23.5675 9.50579H12.6795C12.1699 9.50579 11.7529 9.92278 11.7529 10.4324V14.6255C11.7529 15.0425 11.417 15.3784 11 15.3784C10.583 15.3784 10.2471 15.0425 10.2471 14.6255V10.4324C10.2471 9.10039 11.3359 8 12.6795 8H23.5791C24.9112 8 26.0116 9.0888 26.0116 10.4324V21.3205C26.0116 22.6525 24.9227 23.7529 23.5791 23.7529H23.5675Z"
            fill="inherit" />
        <path fill-rule="evenodd" clip-rule="evenodd"
            d="M12.6796 8.04922C11.3637 8.04922 10.2971 9.12706 10.2971 10.4317V14.6247C10.2971 15.0141 10.6107 15.3276 11 15.3276C11.3894 15.3276 11.7029 15.0141 11.7029 14.6247V10.4317C11.7029 9.89438 12.1423 9.45501 12.6796 9.45501H23.5676C24.1049 9.45501 24.5442 9.89438 24.5442 10.4317V21.3197C24.5442 21.8569 24.1049 22.2963 23.5676 22.2963H19.3746C18.9852 22.2963 18.6717 22.6098 18.6717 22.9992C18.6717 23.3886 18.9852 23.7021 19.3746 23.7021H23.5792C24.8951 23.7021 25.9616 22.6243 25.9616 21.3197V10.4317C25.9616 9.11579 24.8838 8.04922 23.5792 8.04922H12.6796ZM10.1971 10.4317C10.1971 9.07215 11.3082 7.94922 12.6796 7.94922H23.5792C24.9387 7.94922 26.0616 9.06025 26.0616 10.4317V21.3197C26.0616 22.6792 24.9506 23.8021 23.5792 23.8021H19.3746C18.93 23.8021 18.5717 23.4438 18.5717 22.9992C18.5717 22.5546 18.93 22.1963 19.3746 22.1963H23.5676C24.0496 22.1963 24.4442 21.8017 24.4442 21.3197V10.4317C24.4442 9.94961 24.0496 9.55501 23.5676 9.55501H12.6796C12.1975 9.55501 11.8029 9.94961 11.8029 10.4317V14.6247C11.8029 15.0693 11.4446 15.4276 11 15.4276C10.5554 15.4276 10.1971 15.0693 10.1971 14.6247V10.4317Z"
            fill="inherit" />
        <path
            d="M19.2471 13.9999H16.2471C15.8301 13.9999 15.4942 14.3358 15.4942 14.7528C15.4942 15.1697 15.8301 15.5057 16.2471 15.5057H17.4286L15.7143 17.2199C15.4247 17.0809 15.0888 16.9999 14.7413 16.9999H10.2471C9.00772 16.9999 8 18.0076 8 19.247V23.7412C8 24.9806 9.00772 25.9883 10.2471 25.9883H14.7413C15.9807 25.9883 16.9884 24.9806 16.9884 23.7412V19.247C16.9884 18.8995 16.9073 18.5752 16.7683 18.274L18.4826 16.5597V17.7412C18.4826 18.1582 18.8185 18.4941 19.2355 18.4941C19.6525 18.4941 19.9884 18.1582 19.9884 17.7412V14.7412C19.9884 14.3242 19.6525 13.9883 19.2355 13.9883L19.2471 13.9999ZM15.4942 23.7528C15.4942 24.1697 15.1583 24.5057 14.7413 24.5057H10.2471C9.83012 24.5057 9.49421 24.1697 9.49421 23.7528V19.2586C9.49421 18.8416 9.83012 18.5057 10.2471 18.5057H14.7413C15.1583 18.5057 15.4942 18.8416 15.4942 19.2586V23.7528Z"
            fill="inherit" />
        <path fill-rule="evenodd" clip-rule="evenodd"
            d="M19.1148 13.9375H19.2355C19.6801 13.9375 20.0384 14.2958 20.0384 14.7404V17.7404C20.0384 18.185 19.6801 18.5433 19.2355 18.5433C18.7909 18.5433 18.4326 18.185 18.4326 17.7404V16.6796L16.8281 18.2841C16.961 18.5821 17.0384 18.9029 17.0384 19.2462V23.7404C17.0384 25.0074 16.0083 26.0375 14.7413 26.0375H10.2471C8.98006 26.0375 7.94995 25.0074 7.94995 23.7404V19.2462C7.94995 17.9792 8.98006 16.9491 10.2471 16.9491H14.7413C15.0836 16.9491 15.415 17.0261 15.7037 17.159L17.3078 15.5549H16.2471C15.8025 15.5549 15.4442 15.1966 15.4442 14.752C15.4442 14.3074 15.8025 13.9491 16.2471 13.9491H19.1263L19.1148 13.9375ZM19.3638 14.0491H16.2471C15.8577 14.0491 15.5442 14.3626 15.5442 14.752C15.5442 15.1414 15.8577 15.4549 16.2471 15.4549H17.5492L15.7245 17.2796L15.6926 17.2642C15.4096 17.1284 15.0811 17.0491 14.7413 17.0491H10.2471C9.03529 17.0491 8.04995 18.0344 8.04995 19.2462V23.7404C8.04995 24.9522 9.03529 25.9375 10.2471 25.9375H14.7413C15.953 25.9375 16.9384 24.9522 16.9384 23.7404V19.2462C16.9384 18.9067 16.8592 18.5895 16.7229 18.2942L16.7083 18.2625L18.5326 16.4382V17.7404C18.5326 18.1298 18.8461 18.4433 19.2355 18.4433C19.6248 18.4433 19.9384 18.1298 19.9384 17.7404V14.7404C19.9384 14.3949 19.6915 14.1091 19.3638 14.0491ZM10.2471 18.5549C9.85768 18.5549 9.54416 18.8684 9.54416 19.2578V23.752C9.54416 24.1414 9.85768 24.4549 10.2471 24.4549H14.7413C15.1306 24.4549 15.4442 24.1414 15.4442 23.752V19.2578C15.4442 18.8684 15.1306 18.5549 14.7413 18.5549H10.2471ZM9.44416 19.2578C9.44416 18.8132 9.80245 18.4549 10.2471 18.4549H14.7413C15.1859 18.4549 15.5442 18.8132 15.5442 19.2578V23.752C15.5442 24.1966 15.1859 24.5549 14.7413 24.5549H10.2471C9.80245 24.5549 9.44416 24.1966 9.44416 23.752V19.2578Z"
            fill="inherit" />
    </g>
    <defs>
        <clipPath id="clip0_1217_20181">
            <rect width="18" height="18" fill="inherit" transform="translate(8 8)" />
        </clipPath>
    </defs>
</svg>