<svg width="40" height="40" viewBox="0 0 40 40" fill="none" xmlns="http://www.w3.org/2000/svg">
<circle opacity="0.9" cx="20" cy="20" r="20" fill="#1877F2"/>
<path d="M17.646 15.5498V14.8305C17.646 14.418 17.8517 14.1089 18.0574 13.6986C18.2642 13.2861 18.6756 12.9771 19.2926 12.6691C19.8074 12.3611 20.6302 12.1543 21.6586 12.1543H24.5405V15.3441H22.3791C22.1745 15.3441 21.9677 15.4475 21.762 15.5498C21.5563 15.7555 21.4529 15.8589 21.4529 15.9612V17.9169H24.4371C24.4371 18.3283 24.3337 18.6374 24.3337 19.0477L24.2314 19.9738C24.2314 20.2829 24.128 20.592 24.128 20.9H21.4529V29.6457H17.5437V20.9011H15.6914V17.9169H17.646V15.5498Z" fill="white"/>
</svg>
