<svg width="50" height="51" viewBox="0 0 50 51" fill="none" xmlns="http://www.w3.org/2000/svg">
<g clip-path="url(#clip0_1681_146492)">
<path d="M48.7902 10.1992C49.4202 10.1992 49.9202 10.7092 49.9202 11.3292C49.9202 11.9492 49.4102 12.4592 48.7902 12.4592C48.1702 12.4592 47.6602 11.9492 47.6602 11.3292C47.6602 10.7092 48.1702 10.1992 48.7902 10.1992Z" fill="#FFA4AE"/>
<path d="M48.7902 39.6504C49.4202 39.6504 49.9202 40.1604 49.9202 40.7804C49.9202 41.4004 49.4102 41.9104 48.7902 41.9104C48.1702 41.9104 47.6602 41.4004 47.6602 40.7804C47.6602 40.1604 48.1702 39.6504 48.7902 39.6504Z" fill="#FFA4AE"/>
<path d="M43.1299 46.4492C44.3799 46.4492 45.3999 47.4592 45.3999 48.7192C45.3999 49.9792 44.3899 50.9892 43.1299 50.9892C41.8699 50.9892 40.8599 49.9792 40.8599 48.7192C40.8599 47.4592 41.8699 46.4492 43.1299 46.4492Z" fill="#FFA4AE"/>
<path d="M40.86 0C41.49 0 41.99 0.51 41.99 1.13C41.99 1.75 41.48 2.26 40.86 2.26C40.24 2.26 39.73 1.75 39.73 1.13C39.73 0.51 40.24 0 40.86 0Z" fill="#FFA4AE"/>
<path d="M25.0001 3.40039C12.4901 3.40039 2.3501 13.5404 2.3501 26.0504C2.3501 38.5604 12.4901 48.7104 25.0101 48.7104C37.5301 48.7104 47.6701 38.5704 47.6701 26.0504C47.6701 13.5304 37.5101 3.40039 25.0001 3.40039Z" fill="#E60019"/>
<path d="M25.0003 43.0505C15.6203 43.0505 8.01025 35.4405 8.01025 26.0605C8.01025 16.6805 15.6203 9.06055 25.0003 9.06055C34.3803 9.06055 41.9903 16.6705 41.9903 26.0505C41.9903 35.4305 34.3803 43.0405 25.0003 43.0405V43.0505Z" fill="white"/>
<path d="M8.00988 48.7109C8.63988 48.7109 9.13988 49.2209 9.13988 49.8409C9.13988 50.4609 8.62988 50.9709 8.00988 50.9709C7.38988 50.9709 6.87988 50.4609 6.87988 49.8409C6.87988 49.2209 7.38988 48.7109 8.00988 48.7109Z" fill="#FFA4AE"/>
<path d="M5.1801 2.26953C6.7401 2.26953 8.0101 3.53953 8.0101 5.09953C8.0101 6.65953 6.7401 7.92953 5.1801 7.92953C3.6201 7.92953 2.3501 6.65953 2.3501 5.09953C2.3501 3.53953 3.6201 2.26953 5.1801 2.26953Z" fill="#FFA4AE"/>
<path d="M1.21008 11.3301C1.84008 11.3301 2.34008 11.8401 2.34008 12.4601C2.34008 13.0801 1.83008 13.5901 1.21008 13.5901C0.590078 13.5901 0.0800781 13.0801 0.0800781 12.4601C0.0800781 11.8401 0.590078 11.3301 1.21008 11.3301Z" fill="#FFA4AE"/>
<path d="M1.21008 39.6504C1.84008 39.6504 2.34008 40.1604 2.34008 40.7804C2.34008 41.4004 1.83008 41.9104 1.21008 41.9104C0.590078 41.9104 0.0800781 41.4004 0.0800781 40.7804C0.0800781 40.1604 0.590078 39.6504 1.21008 39.6504Z" fill="#FFA4AE"/>
<path d="M19.2002 34.6198C18.6202 34.6198 18.0502 34.3998 17.6102 33.9598C16.7302 33.0798 16.7302 31.6598 17.6102 30.7798L30.1402 18.2498C31.0202 17.3698 32.4402 17.3698 33.3202 18.2498C34.2002 19.1298 34.2002 20.5498 33.3202 21.4298L20.7902 33.9598C20.3502 34.3998 19.7702 34.6198 19.2002 34.6198Z" fill="#E60019"/>
<path d="M31.7302 34.6198C31.1502 34.6198 30.5802 34.3998 30.1402 33.9598L17.6102 21.4298C16.7302 20.5498 16.7302 19.1298 17.6102 18.2498C18.4902 17.3698 19.9102 17.3698 20.7902 18.2498L33.3202 30.7798C34.2002 31.6598 34.2002 33.0798 33.3202 33.9598C32.8802 34.3998 32.3102 34.6198 31.7302 34.6198Z" fill="#E60019"/>
</g>
<defs>
<clipPath id="clip0_1681_146492">
<rect width="49.84" height="50.98" fill="white" transform="translate(0.0800781)"/>
</clipPath>
</defs>
</svg>
