<svg viewBox="0 0 30 30" fill="none" xmlns="http://www.w3.org/2000/svg">
    <g>
        <path
            d="M25.7625 18.6876C25.6875 18.4626 25.5125 18.2751 25.3 18.1626C24.85 17.9501 24.3 18.1376 24.0875 18.5876C22.6375 21.5751 19.6875 23.5376 16.375 23.7126C13.95 23.8376 11.625 23.0126 9.82497 21.3876C8.02497 19.7626 6.96247 17.5376 6.83747 15.1126C6.57497 10.1126 10.4375 5.83758 15.4375 5.57508C17.8375 5.46258 20.1625 6.28758 21.9375 7.87508L19.55 7.72508C19.05 7.70008 18.6125 8.07508 18.5875 8.57508C18.5625 9.07508 18.9375 9.51258 19.4375 9.53758L23.6125 9.80008C23.6125 9.80008 23.65 9.80008 23.675 9.80008C23.9 9.80008 24.1125 9.72508 24.275 9.57508C24.4625 9.41258 24.5625 9.18758 24.5875 8.95008L24.8375 4.82508C24.8625 4.32508 24.4875 3.88758 23.9875 3.86258C23.7375 3.85008 23.5125 3.92508 23.325 4.08758C23.1375 4.25008 23.0375 4.47508 23.0125 4.71258L22.9125 6.30008C20.8 4.53758 18.1 3.62508 15.3375 3.76258C9.33747 4.07508 4.69997 9.21258 5.01247 15.2126C5.16247 18.1251 6.43747 20.7876 8.59997 22.7501C10.625 24.5751 13.1875 25.5626 15.8875 25.5501C16.075 25.5501 16.275 25.5501 16.4625 25.5376C20.4375 25.3251 23.9875 22.9751 25.7125 19.3876C25.8125 19.1626 25.8375 18.9251 25.75 18.6876H25.7625Z"
            fill="white" />
        <path
            d="M11.9171 19.1152V12.8905L10.625 13.1938V12.0927L12.5239 11.25H13.4115V19.1152H11.9171Z"
            fill="white" />
        <path
            d="M17.7568 19.25C17.18 19.25 16.6819 19.1489 16.2624 18.9466C15.8504 18.7444 15.5245 18.4672 15.2848 18.1152C15.0526 17.7556 14.9178 17.3511 14.8804 16.9017H16.2848C16.3523 17.2238 16.5171 17.4934 16.7792 17.7107C17.0414 17.9204 17.3672 18.0253 17.7568 18.0253C18.1762 18.0253 18.5171 17.8717 18.7792 17.5646C19.0489 17.2575 19.1837 16.8755 19.1837 16.4185C19.1837 15.9466 19.0489 15.5721 18.7792 15.2949C18.5171 15.0178 18.1837 14.8792 17.7792 14.8792C17.4422 14.8792 17.15 14.9616 16.9028 15.1264C16.6556 15.2912 16.4796 15.4972 16.3747 15.7444H14.9927L15.6669 11.25H20.0264V12.5084H16.7455L16.386 14.3287C16.5508 14.1489 16.7755 14.0028 17.0601 13.8904C17.3448 13.7706 17.6631 13.7107 18.0152 13.7107C18.577 13.7107 19.0451 13.838 19.4197 14.0927C19.7942 14.3399 20.0789 14.6695 20.2736 15.0815C20.4684 15.486 20.5657 15.9279 20.5657 16.4073C20.5657 16.9541 20.4459 17.441 20.2062 17.868C19.974 18.2949 19.6444 18.632 19.2174 18.8792C18.798 19.1264 18.3111 19.25 17.7568 19.25Z"
            fill="white" />
    </g>
</svg>