<svg viewBox="0 0 30 30" fill="none" xmlns="http://www.w3.org/2000/svg">
    <g>
        <path
            d="M5.0388 18.6876C5.1138 18.4626 5.2888 18.2751 5.5013 18.1626C5.9513 17.9501 6.5013 18.1376 6.7138 18.5876C8.1638 21.5751 11.1138 23.5376 14.4263 23.7126C16.8513 23.8376 19.1763 23.0126 20.9763 21.3876C22.7763 19.7626 23.8388 17.5376 23.9638 15.1126C24.2263 10.1126 20.3638 5.83758 15.3638 5.57508C12.9638 5.46258 10.6388 6.28758 8.8638 7.87508L11.2513 7.72508C11.7513 7.70008 12.1888 8.07508 12.2138 8.57508C12.2388 9.07508 11.8638 9.51258 11.3638 9.53758L7.1888 9.80008C7.1888 9.80008 7.1513 9.80008 7.1263 9.80008C6.9013 9.80008 6.6888 9.72508 6.5263 9.57508C6.3388 9.41258 6.2388 9.18758 6.2138 8.95008L5.9638 4.82508C5.9388 4.32508 6.3138 3.88758 6.8138 3.86258C7.0638 3.85008 7.2888 3.92508 7.4763 4.08758C7.6638 4.25008 7.7638 4.47508 7.7888 4.71258L7.8888 6.30008C10.0013 4.53758 12.7013 3.62508 15.4638 3.76258C21.4638 4.07508 26.1013 9.21258 25.7888 15.2126C25.6388 18.1251 24.3638 20.7876 22.2013 22.7501C20.1763 24.5751 17.6138 25.5626 14.9138 25.5501C14.7263 25.5501 14.5263 25.5501 14.3388 25.5376C10.3638 25.3251 6.8138 22.9751 5.0888 19.3876C4.9888 19.1626 4.9638 18.9251 5.0513 18.6876H5.0388Z"
            fill="white" />
        <path d="M11.2921 19.1152V12.8905L10 13.1938V12.0927L11.8989 11.25H12.7865V19.1152H11.2921Z"
            fill="white" />
        <path
            d="M17.1318 19.25C16.555 19.25 16.0569 19.1489 15.6374 18.9466C15.2254 18.7444 14.8995 18.4672 14.6598 18.1152C14.4276 17.7556 14.2928 17.3511 14.2554 16.9017H15.6598C15.7273 17.2238 15.8921 17.4934 16.1542 17.7107C16.4164 17.9204 16.7422 18.0253 17.1318 18.0253C17.5512 18.0253 17.8921 17.8717 18.1542 17.5646C18.4239 17.2575 18.5587 16.8755 18.5587 16.4185C18.5587 15.9466 18.4239 15.5721 18.1542 15.2949C17.8921 15.0178 17.5587 14.8792 17.1542 14.8792C16.8172 14.8792 16.525 14.9616 16.2778 15.1264C16.0306 15.2912 15.8546 15.4972 15.7497 15.7444H14.3677L15.0419 11.25H19.4014V12.5084H16.1205L15.761 14.3287C15.9258 14.1489 16.1505 14.0028 16.4351 13.8904C16.7198 13.7706 17.0381 13.7107 17.3902 13.7107C17.952 13.7107 18.4201 13.838 18.7947 14.0927C19.1692 14.3399 19.4539 14.6695 19.6486 15.0815C19.8434 15.486 19.9407 15.9279 19.9407 16.4073C19.9407 16.9541 19.8209 17.441 19.5812 17.868C19.349 18.2949 19.0194 18.632 18.5924 18.8792C18.173 19.1264 17.6861 19.25 17.1318 19.25Z"
            fill="white" />
    </g>
</svg>