<svg width="18" height="18" viewBox="0 0 18 18" fill="none" xmlns="http://www.w3.org/2000/svg">
    <rect width="18" height="18" rx="9" fill="#AAAAAA" />
    <path fill-rule="evenodd" clip-rule="evenodd"
        d="M5.37204 5.37204C5.53476 5.20932 5.79858 5.20932 5.96129 5.37204L9 8.41074L12.0387 5.37204C12.2014 5.20932 12.4652 5.20932 12.628 5.37204C12.7907 5.53476 12.7907 5.79858 12.628 5.96129L9.58926 9L12.628 12.0387C12.7907 12.2014 12.7907 12.4652 12.628 12.628C12.4652 12.7907 12.2014 12.7907 12.0387 12.628L9 9.58926L5.96129 12.628C5.79858 12.7907 5.53476 12.7907 5.37204 12.628C5.20932 12.4652 5.20932 12.2014 5.37204 12.0387L8.41074 9L5.37204 5.96129C5.20932 5.79858 5.20932 5.53476 5.37204 5.37204Z"
        fill="inherit" />
</svg>