<svg width="46" height="46" viewBox="0 0 46 46" fill="none" xmlns="http://www.w3.org/2000/svg">
<g clip-path="url(#clip0_5742_23619)">
<path fill-rule="evenodd" clip-rule="evenodd" d="M9.45214 0.5H36.5478C40.2894 0.5 43.3217 3.52166 43.3217 7.24995V20.7498C43.3217 24.4781 40.2894 27.4998 36.5478 27.4998H9.45214C5.71061 27.4998 2.67822 24.4781 2.67822 20.7498V7.24995C2.67822 3.52166 5.71167 0.5 9.45214 0.5ZM9.45214 2.74963C6.95849 2.74963 4.93584 4.76407 4.93584 7.24995V20.7498C4.93584 23.2357 6.95744 25.2502 9.45214 25.2502H36.5478C39.0425 25.2502 41.0641 23.2357 41.0641 20.7498V7.24995C41.0641 4.76512 39.0425 2.74963 36.5478 2.74963H9.45214Z" fill="#FF3C78"/>
<path fill-rule="evenodd" clip-rule="evenodd" d="M28.9918 12.1312L21.9957 7.48319C20.4948 6.48652 18.4849 7.55807 18.4849 9.35525V18.6512C18.4849 20.4484 20.4948 21.5199 21.9957 20.5232L28.9918 15.8753C30.3329 14.9851 30.3329 13.0213 28.9918 12.1312ZM20.7425 18.6512V9.35525L27.7387 14.0032L20.7425 18.6512Z" fill="#FF3C78"/>
<path fill-rule="evenodd" clip-rule="evenodd" d="M23.0002 36.501C24.247 36.501 25.2578 35.4938 25.2578 34.2514C25.2578 33.009 24.247 32.0017 23.0002 32.0017C21.7534 32.0017 20.7426 33.009 20.7426 34.2514C20.7426 35.4938 21.7534 36.501 23.0002 36.501ZM23.0002 38.7506C25.4949 38.7506 27.5165 36.7362 27.5165 34.2503C27.5165 31.7644 25.4949 29.75 23.0002 29.75C20.5055 29.75 18.4839 31.7644 18.4839 34.2503C18.4839 36.7362 20.5055 38.7506 23.0002 38.7506Z" fill="#FF3C78"/>
<path fill-rule="evenodd" clip-rule="evenodd" d="M38.8054 36.501C40.0522 36.501 41.063 35.4938 41.063 34.2514C41.063 33.009 40.0522 32.0017 38.8054 32.0017C37.5585 32.0017 36.5477 33.009 36.5477 34.2514C36.5477 35.4938 37.5585 36.501 38.8054 36.501ZM38.8054 38.7506C41.3001 38.7506 43.3217 36.7362 43.3217 34.2503C43.3217 31.7644 41.3001 29.75 38.8054 29.75C36.3107 29.75 34.2891 31.7644 34.2891 34.2503C34.2891 36.7362 36.3107 38.7506 38.8054 38.7506Z" fill="#FF3C78"/>
<path fill-rule="evenodd" clip-rule="evenodd" d="M7.19452 36.501C8.44135 36.501 9.45214 35.4938 9.45214 34.2514C9.45214 33.009 8.44135 32.0017 7.19452 32.0017C5.9477 32.0017 4.9369 33.009 4.9369 34.2514C4.9369 35.4938 5.9477 36.501 7.19452 36.501ZM7.19452 38.7506C9.68817 38.7506 11.7108 36.7362 11.7108 34.2503C11.7108 31.7644 9.68923 29.75 7.19452 29.75C4.69981 29.75 2.67822 31.7644 2.67822 34.2503C2.67822 36.7362 4.69981 38.7506 7.19452 38.7506Z" fill="#FF3C78"/>
<path fill-rule="evenodd" clip-rule="evenodd" d="M11.571 44.3862C11.7245 44.9884 12.2156 45.4999 12.839 45.4999C13.4624 45.4999 13.9779 44.9926 13.8752 44.3799C13.3397 41.1853 10.5518 38.75 7.19445 38.75C3.83712 38.75 1.04817 41.1842 0.51261 44.3788C0.409942 44.9916 0.925395 45.4989 1.54881 45.4989C2.17222 45.4989 2.66333 44.9874 2.8168 44.3851C3.31426 42.4382 5.08501 40.9986 7.19339 40.9986C9.30177 40.9986 11.0725 42.4382 11.57 44.3851L11.571 44.3862Z" fill="#FF3C78"/>
<path fill-rule="evenodd" clip-rule="evenodd" d="M27.3766 44.3862C27.5301 44.9884 28.0212 45.4999 28.6446 45.4999C29.268 45.4999 29.7835 44.9926 29.6808 44.3799C29.1452 41.1853 26.3574 38.75 23 38.75C19.6427 38.75 16.8548 41.1853 16.3193 44.3799C16.2166 44.9926 16.732 45.4999 17.3554 45.4999C17.9789 45.4999 18.47 44.9884 18.6234 44.3862C19.1209 42.4393 20.8916 40.9996 23 40.9996C25.1084 40.9996 26.8792 42.4393 27.3766 44.3862Z" fill="#FF3C78"/>
<path fill-rule="evenodd" clip-rule="evenodd" d="M43.1823 44.3862C43.3358 44.9884 43.8269 45.4999 44.4503 45.4999C45.0737 45.4999 45.5891 44.9926 45.4865 44.3799C44.9509 41.1853 42.163 38.75 38.8057 38.75C35.4484 38.75 32.6605 41.1853 32.1249 44.3799C32.0222 44.9926 32.5377 45.4999 33.1611 45.4999C33.7845 45.4999 34.2756 44.9884 34.4291 44.3862C34.9266 42.4393 36.6973 40.9996 38.8057 40.9996C40.9141 40.9996 42.6848 42.4393 43.1823 44.3862Z" fill="#FF3C78"/>
</g>
<defs>
<clipPath id="clip0_5742_23619">
<rect width="45" height="45" fill="white" transform="translate(0.5 0.5)"/>
</clipPath>
</defs>
</svg>
