<svg viewBox="0 0 22 22" fill="none" xmlns="http://www.w3.org/2000/svg">
    <g clip-path="url(#clip0_966_20534)">
        <path
            d="M6.92098 19.9375C15.2208 19.9375 19.7618 13.0595 19.7618 7.09677C19.7618 6.90341 19.7575 6.70575 19.7489 6.51239C20.6322 5.87357 21.3945 5.08229 22 4.17575C21.1773 4.54178 20.3038 4.78083 19.4094 4.88474C20.3512 4.32023 21.0563 3.43341 21.3941 2.38868C20.5082 2.91374 19.5393 3.28412 18.529 3.48395C17.8483 2.76066 16.9482 2.28175 15.968 2.12127C14.9879 1.9608 13.9821 2.12769 13.1063 2.59615C12.2304 3.06461 11.5333 3.80854 11.1227 4.71293C10.7121 5.61732 10.6108 6.63179 10.8346 7.5995C9.04062 7.50948 7.28561 7.04346 5.68332 6.23165C4.08102 5.41985 2.66722 4.28038 1.53355 2.88712C0.957366 3.88053 0.781052 5.05607 1.04044 6.17481C1.29984 7.29355 1.97547 8.27155 2.93004 8.91005C2.21341 8.8873 1.51248 8.69435 0.885156 8.34716V8.40302C0.884514 9.44553 1.24492 10.4561 1.90512 11.2629C2.56531 12.0698 3.48455 12.6231 4.50656 12.8288C3.84272 13.0104 3.14598 13.0369 2.47027 12.9061C2.75867 13.8027 3.31978 14.5869 4.07529 15.1492C4.8308 15.7115 5.74303 16.0239 6.68465 16.0429C5.08606 17.2986 3.11133 17.9797 1.07852 17.9765C0.718013 17.9759 0.357866 17.9538 0 17.9103C2.06512 19.2352 4.4674 19.9388 6.92098 19.9375Z"
            fill="#AAAAAA" />
    </g>
    <defs>
        <clipPath id="clip0_966_20534">
            <rect width="22" height="22" fill="white" />
        </clipPath>
    </defs>
</svg>