<svg width="19" height="20" viewBox="0 0 19 20" xmlns="http://www.w3.org/2000/svg">
<path d="M17.3102 7.94394C17.0139 7.71246 16.7547 7.44394 16.5602 7.12912C16.4676 6.74949 16.4491 6.36061 16.5139 5.9532C16.5602 5.1569 16.6158 4.24949 16.0047 3.63838C15.3843 3.02727 14.4399 3.08283 13.6713 3.12912C13.2825 3.18468 12.8936 3.16616 12.5139 3.07357C12.1991 2.86986 11.9306 2.61986 11.6991 2.30505C11.1621 1.68468 10.551 0.990234 9.65283 0.990234C8.75468 0.990234 8.14357 1.68468 7.59728 2.31431C7.37505 2.6106 7.10653 2.86986 6.79172 3.06431C6.41209 3.1569 6.0232 3.17542 5.61579 3.1106C4.85653 3.06431 3.91209 3.00875 3.29172 3.61986C2.68061 4.23098 2.73617 5.13838 2.78246 5.9532C2.83802 6.34209 2.8195 6.73098 2.72691 7.11061C2.5232 7.42542 2.2732 7.69394 1.96765 7.92542C1.34728 8.46246 0.652832 9.07357 0.652832 9.98098C0.652832 10.8884 1.34728 11.4902 1.97691 12.0365C2.2732 12.2588 2.53246 12.5273 2.72691 12.8421C2.8195 13.2217 2.83802 13.6199 2.7732 14.018C2.72691 14.8236 2.67135 15.731 3.28246 16.3421C3.89357 16.9532 4.80098 16.8976 5.61579 16.8513C6.00468 16.7958 6.39357 16.8143 6.78246 16.9069C7.09727 17.1106 7.36579 17.3606 7.59728 17.6662C8.13431 18.2865 8.74542 18.981 9.65283 18.981C10.5602 18.981 11.1621 18.2865 11.7084 17.6569C11.9306 17.3606 12.1991 17.1013 12.5139 16.9069C12.8936 16.8143 13.2825 16.7958 13.6899 16.8606C14.4954 16.9069 15.3936 16.9625 16.0047 16.3513C16.6158 15.731 16.5602 14.8328 16.5139 14.018C16.4584 13.6291 16.4769 13.2402 16.5695 12.8606C16.7732 12.5458 17.0232 12.2773 17.3288 12.0458C17.9491 11.5088 18.6436 10.8976 18.6436 9.99024C18.6436 9.08283 17.9491 8.48098 17.3288 7.94394H17.3102ZM15.1158 14.1199C15.1436 14.5736 15.1806 15.2032 15.0139 15.3791C14.8473 15.555 14.2176 15.518 13.7639 15.4902C13.1713 15.4069 12.551 15.4532 11.9491 15.6476C11.4306 15.9162 10.9769 16.3143 10.6343 16.7773C10.2917 17.1754 9.89357 17.6199 9.62505 17.6199C9.35653 17.6199 8.96765 17.1754 8.62505 16.7865C8.2732 16.3143 7.8195 15.9254 7.29172 15.6476C6.96765 15.5273 6.63431 15.4717 6.29172 15.4717C6.03246 15.4717 5.76394 15.4902 5.49542 15.4995C5.04172 15.5273 4.41209 15.5643 4.24542 15.3976C4.0695 15.2217 4.11579 14.5921 4.13431 14.1476C4.21765 13.555 4.17135 12.9347 3.97691 12.3328C3.70839 11.8143 3.31024 11.3606 2.83802 11.0088C2.44913 10.6662 2.01394 10.2773 2.01394 10.0088C2.01394 9.74023 2.45839 9.34209 2.84728 9.00875C3.3195 8.6569 3.70839 8.2032 3.99542 7.66616C4.17135 7.09209 4.22691 6.47172 4.14357 5.88838C4.11579 5.42542 4.07876 4.80505 4.24542 4.62912C4.41209 4.46246 5.04172 4.49949 5.49542 4.51801C6.09728 4.60135 6.70839 4.55505 7.31024 4.36061C7.82876 4.09209 8.28246 3.69394 8.62505 3.23098C8.96765 2.84209 9.35653 2.39764 9.62505 2.39764C9.89357 2.39764 10.2917 2.84209 10.6251 3.23098C10.9676 3.7032 11.4306 4.09209 11.9676 4.37912C12.5417 4.55505 13.1528 4.61061 13.7454 4.52727C14.1991 4.49949 14.8288 4.46246 15.0047 4.62912C15.1806 4.80505 15.1343 5.42542 15.1158 5.87912C15.0325 6.47172 15.0788 7.09209 15.2732 7.69394C15.5417 8.21246 15.9399 8.66616 16.4028 9.00875C16.801 9.35135 17.2454 9.74949 17.2454 10.018C17.2454 10.2865 16.801 10.6754 16.4121 11.0273C15.9491 11.3699 15.551 11.8328 15.2732 12.3699C15.0973 12.9439 15.0417 13.5643 15.1251 14.1476L15.1158 14.1199Z" fill="inherit"/>
<path fill-rule="evenodd" clip-rule="evenodd" d="M17.3103 7.94472C17.3004 7.937 17.2906 7.92924 17.2808 7.92144C16.9968 7.69528 16.7482 7.43422 16.5603 7.12991C16.4677 6.75028 16.4492 6.36139 16.514 5.95398L16.5146 5.94371C16.5607 5.14989 16.6132 4.24765 16.0047 3.63916C15.3844 3.02805 14.4399 3.08361 13.6714 3.1299C13.2825 3.18546 12.8936 3.16694 12.514 3.07435C12.1992 2.87065 11.9307 2.62065 11.6992 2.30583C11.1621 1.68546 10.551 0.991016 9.65288 0.991016C8.75473 0.991016 8.14362 1.68546 7.59732 2.31509C7.3751 2.61139 7.10658 2.87065 6.79177 3.06509C6.41214 3.15768 6.02325 3.1762 5.61584 3.11139C4.85658 3.06509 3.91214 3.00953 3.29177 3.62065C2.68439 4.22802 2.73556 5.12809 2.78166 5.93903L2.78251 5.95398C2.83807 6.34287 2.81955 6.73176 2.72695 7.11139C2.52325 7.4262 2.27325 7.69472 1.9677 7.9262C1.34733 8.46324 0.652881 9.07435 0.652881 9.98176C0.652881 10.8885 1.34628 11.4901 1.97554 12.0361L1.97695 12.0373C2.27325 12.2595 2.53251 12.5281 2.72695 12.8429C2.81955 13.2225 2.83807 13.6206 2.77325 14.0188L2.77253 14.0314C2.72639 14.8338 2.67458 15.7349 3.28251 16.3429C3.88989 16.9502 4.78995 16.8991 5.60089 16.853L5.61584 16.8521C6.00473 16.7966 6.39362 16.8151 6.78251 16.9077C7.09732 17.1114 7.36584 17.3614 7.59732 17.6669C8.13436 18.2873 8.74547 18.9818 9.65288 18.9818C10.5596 18.9818 11.1612 18.2884 11.7072 17.6591L11.7084 17.6577C11.9307 17.3614 12.1992 17.1021 12.514 16.9077C12.8936 16.8151 13.2825 16.7966 13.6899 16.8614L13.7045 16.8622C14.5063 16.9083 15.3973 16.9596 16.0047 16.3521C16.6116 15.736 16.561 14.846 16.5149 14.0357L16.514 14.0188C16.4584 13.6299 16.477 13.241 16.5695 12.8614C16.7732 12.5466 17.0233 12.2781 17.3288 12.0466C17.9492 11.5095 18.6436 10.8984 18.6436 9.99102C18.6436 9.08361 17.9492 8.48176 17.3288 7.94472H17.3103ZM16.6394 12.8915C16.5517 13.2578 16.5346 13.6329 16.5882 14.0082L16.5891 14.0145L16.59 14.0347C16.6128 14.4347 16.6371 14.8631 16.5802 15.2688C16.522 15.6832 16.3784 16.0797 16.0582 16.4048C15.7376 16.7253 15.3428 16.8694 14.9307 16.9275C14.5265 16.9846 14.0996 16.9601 13.7035 16.9373L13.6781 16.9358C13.2847 16.8732 12.9097 16.8899 12.5433 16.9778C12.242 17.1659 11.9835 17.4159 11.7684 17.7027L11.7652 17.707L11.7542 17.7194C11.2158 18.3399 10.5939 19.0568 9.65288 19.0568C8.70567 19.0568 8.07271 18.3307 7.54062 17.716L7.53742 17.7123C7.31376 17.4171 7.05527 17.1753 6.75258 16.9777C6.37689 16.8898 6.00167 16.8728 5.62645 16.9264L5.62011 16.9273L5.60179 16.928C5.20116 16.9508 4.7699 16.9754 4.36239 16.9183C3.94695 16.8601 3.55011 16.7165 3.22948 16.3959C2.90886 16.0753 2.76525 15.6785 2.70708 15.2642C2.64992 14.8571 2.67464 14.4272 2.69745 14.0305L2.69882 14.0067C2.76133 13.6227 2.74472 13.2388 2.65689 12.8722C2.46879 12.5709 2.21874 12.3124 1.93195 12.0973L1.92768 12.0941L1.91522 12.083C1.29471 11.5447 0.577881 10.9228 0.577881 9.98176C0.577881 9.03455 1.30395 8.40159 1.91861 7.8695L1.92231 7.86629C2.21759 7.6426 2.45946 7.38405 2.65707 7.08129C2.74479 6.71493 2.76188 6.33988 2.70826 5.96459L2.70736 5.95825L2.70659 5.93992C2.68381 5.5393 2.65928 5.10804 2.71634 4.70052C2.7745 4.28509 2.91811 3.88824 3.23874 3.56761C3.56419 3.24701 3.97306 3.10327 4.39141 3.0452C4.80859 2.98729 5.24195 3.01345 5.62041 3.03653L5.62768 3.03697C6.02105 3.09955 6.39608 3.08284 6.76244 2.99502C7.06378 2.80692 7.32224 2.55687 7.53732 2.27009L7.54053 2.26581C8.08156 1.64225 8.71482 0.916016 9.65288 0.916016C10.5909 0.916016 11.224 1.64229 11.7559 2.25674L11.7598 2.26126C11.9832 2.56512 12.2414 2.80691 12.5441 3.00446C12.9104 3.09219 13.2855 3.10927 13.6608 3.05566L13.6669 3.05479C14.0499 3.03171 14.4856 3.00581 14.9039 3.06371C15.3234 3.12178 15.7319 3.26512 16.0574 3.58573C16.378 3.90634 16.522 4.30355 16.5802 4.71667C16.6374 5.12342 16.6125 5.55178 16.5897 5.94466L16.5884 5.96582C16.5258 6.35919 16.5425 6.73422 16.6304 7.10058C16.814 7.39485 17.057 7.64863 17.3362 7.86972H17.3568L17.3876 7.89638C17.9997 8.4263 18.7186 9.04859 18.7186 9.99102C18.7186 10.9382 17.9925 11.5712 17.3779 12.1033L17.3742 12.1065C17.0789 12.3302 16.837 12.5887 16.6394 12.8915ZM15.1212 14.1203C15.1211 14.1199 15.1211 14.1194 15.121 14.1189C15.1206 14.1159 15.1202 14.1129 15.1198 14.11C15.0443 13.5379 15.1012 12.9321 15.2732 12.3706C15.551 11.8336 15.9492 11.3706 16.4121 11.0281C16.4295 11.0123 16.447 10.9965 16.4646 10.9807C16.8399 10.6417 17.2455 10.2753 17.2455 10.0188C17.2455 9.75028 16.801 9.35213 16.4029 9.00953C15.9399 8.66694 15.5418 8.21324 15.2732 7.69472C15.0788 7.09287 15.0325 6.4725 15.1158 5.87991C15.1175 5.83853 15.1195 5.79577 15.1214 5.75209C15.141 5.31676 15.1646 4.78979 15.0047 4.6299C14.8288 4.46324 14.1992 4.50028 13.7455 4.52805C13.1529 4.61139 12.5418 4.55583 11.9677 4.3799C11.4307 4.09287 10.9677 3.70398 10.6251 3.23176C10.2918 2.84287 9.89362 2.39842 9.6251 2.39842C9.35918 2.39842 8.97519 2.83433 8.63503 3.22048L8.6251 3.23176C8.28251 3.69472 7.82881 4.09287 7.31029 4.36139C6.70844 4.55583 6.09732 4.60213 5.49547 4.51879C5.4697 4.51774 5.44335 4.51663 5.41656 4.5155C4.97172 4.49672 4.40267 4.47271 4.24547 4.6299C4.07881 4.80583 4.11584 5.4262 4.14362 5.88916C4.22695 6.4725 4.1714 7.09287 3.99547 7.66694C3.70844 8.20398 3.31955 8.65768 2.84733 9.00953C2.45844 9.34287 2.01399 9.74102 2.01399 10.0095C2.01399 10.2781 2.44918 10.6669 2.83807 11.0095C3.31029 11.3614 3.70844 11.8151 3.97695 12.3336C4.1714 12.9355 4.2177 13.5558 4.13436 14.1484C4.13274 14.1874 4.1309 14.2277 4.12902 14.2691C4.10944 14.6997 4.08496 15.2379 4.24547 15.3984C4.41214 15.5651 5.04177 15.5281 5.49547 15.5003C5.58637 15.4971 5.67727 15.4929 5.76781 15.4888C5.94473 15.4806 6.12028 15.4725 6.29177 15.4725C6.63436 15.4725 6.9677 15.5281 7.29177 15.6484C7.81955 15.9262 8.27325 16.3151 8.6251 16.7873L8.63504 16.7986C8.97519 17.1847 9.35918 17.6206 9.6251 17.6206C9.89362 17.6206 10.2918 17.1762 10.6344 16.7781C10.977 16.3151 11.4307 15.9169 11.9492 15.6484C12.551 15.454 13.1714 15.4077 13.764 15.491C14.2177 15.5188 14.8473 15.5558 15.014 15.3799C15.1762 15.2086 15.1454 14.6073 15.1181 14.157C15.1179 14.155 15.1178 14.1529 15.1177 14.1509C15.1177 14.1504 15.1176 14.15 15.1176 14.1495C15.117 14.1398 15.1164 14.1302 15.1158 14.1206L15.1251 14.1484C15.1238 14.1391 15.1225 14.1297 15.1212 14.1203ZM15.0461 14.1242C14.9681 13.5395 15.0261 12.9212 15.2015 12.3487L15.2035 12.3422L15.2066 12.3362C15.4891 11.7902 15.8936 11.3192 16.3645 10.97C16.3809 10.9551 16.3974 10.9403 16.4139 10.9254C16.5934 10.7632 16.7764 10.5979 16.9193 10.4416C16.9975 10.356 17.0615 10.2754 17.1056 10.2018C17.1503 10.1271 17.1705 10.0663 17.1705 10.0188C17.1705 9.97116 17.1502 9.90973 17.1054 9.83436C17.0611 9.76002 16.9968 9.6786 16.9181 9.59256C16.7612 9.42099 16.5548 9.2392 16.356 9.06818C15.8854 8.71939 15.4803 8.25767 15.2066 7.72921L15.2038 7.72369L15.2019 7.71778C15.0043 7.10608 14.9569 6.47557 15.0411 5.87315C15.0427 5.83223 15.0446 5.79021 15.0465 5.74749C15.0553 5.55175 15.0648 5.34119 15.0582 5.15334C15.0543 5.03851 15.0444 4.9355 15.0257 4.85199C15.0068 4.76716 14.9809 4.71261 14.9524 4.68366C14.9235 4.65673 14.868 4.63164 14.7818 4.6131C14.6971 4.59489 14.5927 4.585 14.4767 4.58102C14.2458 4.57309 13.9799 4.58884 13.753 4.60273C13.1498 4.68709 12.5287 4.63027 11.9457 4.45161L11.9388 4.44948L11.9323 4.44605C11.3873 4.15474 10.916 3.75952 10.5662 3.27827C10.3999 3.0843 10.2205 2.88025 10.0502 2.72462C9.96475 2.64653 9.88362 2.58252 9.80943 2.53841C9.73419 2.49367 9.67276 2.47342 9.6251 2.47342C9.57756 2.47342 9.51677 2.4936 9.44234 2.53826C9.36889 2.58233 9.28862 2.64629 9.20366 2.72445C9.03634 2.87839 8.85938 3.07927 8.68985 3.27172L8.68348 3.27895C8.33472 3.74945 7.8731 4.15439 7.34478 4.42799L7.33926 4.43084L7.33334 4.43275C6.72159 4.6304 6.1003 4.67773 5.4888 4.59358C5.46407 4.59257 5.43889 4.59151 5.41335 4.59043C5.20389 4.5816 4.97075 4.57177 4.76579 4.57985C4.65028 4.5844 4.54675 4.59457 4.46339 4.61288C4.37827 4.63158 4.32548 4.65647 4.29922 4.68223C4.27217 4.71127 4.24714 4.7663 4.22864 4.85166C4.21045 4.9356 4.20056 5.03912 4.19659 5.15448C4.18866 5.38422 4.20441 5.65003 4.2183 5.88162C4.30266 6.47567 4.24582 7.106 4.06718 7.68892L4.06505 7.69588L4.06162 7.7023C3.76994 8.24802 3.37457 8.70974 2.8942 9.06814C2.70012 9.23452 2.49591 9.41404 2.34019 9.58444C2.2621 9.66989 2.19809 9.75102 2.15398 9.82521C2.10924 9.90045 2.08899 9.96188 2.08899 10.0095C2.08899 10.0575 2.10888 10.1185 2.15269 10.1928C2.19594 10.2663 2.25879 10.3465 2.33576 10.4314C2.48923 10.6007 2.69098 10.78 2.88535 10.9512C3.36487 11.3091 3.76987 11.7706 4.04355 12.2991L4.04641 12.3046L4.04832 12.3106C4.24595 12.9223 4.29331 13.5528 4.20914 14.1552C4.20753 14.1936 4.20574 14.2332 4.2039 14.2736C4.19506 14.4682 4.18539 14.6811 4.19196 14.8715C4.19594 14.987 4.20583 15.0909 4.22451 15.1752C4.24367 15.2616 4.26987 15.3168 4.29851 15.3454C4.32451 15.3714 4.37746 15.3966 4.46328 15.4153C4.54656 15.4334 4.65002 15.4433 4.76542 15.4473C4.99615 15.4553 5.26332 15.4393 5.49089 15.4254L5.49289 15.4253C5.58186 15.4222 5.67181 15.4181 5.76192 15.4139C5.93996 15.4057 6.11864 15.3975 6.29177 15.3975C6.64266 15.3975 6.9849 15.4544 7.31788 15.5781L7.32699 15.5815C7.86374 15.864 8.32511 16.2599 8.6834 16.74L8.68987 16.7474C8.85939 16.9398 9.03635 17.1407 9.20366 17.2946C9.28862 17.3728 9.36889 17.4367 9.44234 17.4808C9.51677 17.5255 9.57756 17.5456 9.6251 17.5456C9.67274 17.5456 9.73417 17.5254 9.80954 17.4805C9.88387 17.4363 9.9653 17.372 10.0513 17.2933C10.2229 17.1364 10.4047 16.9299 10.5757 16.7312C10.9245 16.2606 11.3862 15.8555 11.9147 15.5818L11.9202 15.579L11.9261 15.5771C12.5381 15.3793 13.1689 15.332 13.7715 15.4163C13.9985 15.4302 14.2642 15.446 14.4937 15.4369C14.609 15.4324 14.7122 15.4217 14.7952 15.4023C14.8805 15.3825 14.9333 15.356 14.9595 15.3283C14.9867 15.2996 15.0121 15.244 15.0308 15.157C15.049 15.0723 15.0589 14.9678 15.0629 14.8519C15.0708 14.62 15.0549 14.3528 15.041 14.1252L15.0461 14.1242Z" fill="inherit"/>
<path d="M4.375 8.5H6.5005V9.17275H5.18425V9.865H6.35425V10.5378H5.18425V11.8638H4.375V8.5Z" fill="inherit"/>
<path d="M9.56505 11.8638H8.6778L8.11717 10.5914H7.69792V11.8638H6.88867V8.5H8.15617C8.9313 8.5 9.42855 8.85588 9.42855 9.55788C9.42855 9.99663 9.23355 10.294 8.8923 10.45L9.56505 11.8638ZM7.69792 9.91863H8.05867C8.3853 9.91863 8.6193 9.87475 8.6193 9.55788C8.6193 9.23613 8.3853 9.17275 8.05867 9.17275H7.69792V9.91863Z" fill="inherit"/>
<path d="M9.93079 8.5H12.0563V9.17275H10.74V9.787H11.91V10.4598H10.74V11.191H12.0563V11.8638H9.93079V8.5Z" fill="inherit"/>
<path d="M12.473 8.5H14.5985V9.17275H13.2823V9.787H14.4523V10.4598H13.2823V11.191H14.5985V11.8638H12.473V8.5Z" fill="inherit"/>
</svg>
