<svg width="24" height="24" viewBox="0 0 24 24"  xmlns="http://www.w3.org/2000/svg">
<path d="M20.4055 14.4015C20.6865 14.0877 20.8578 13.6736 20.8578 13.2205C20.8578 12.2437 20.063 11.4489 19.0862 11.4489H15.6479C15.9884 10.4155 16.1337 9.04434 16.1337 8.45658V7.86646C16.1337 6.56417 15.0739 5.50439 13.7716 5.50439H13.1811C12.9102 5.50439 12.674 5.68864 12.6083 5.95161L12.2867 7.23854C11.8359 9.04079 10.4049 11.0293 8.92387 11.3906C8.66444 10.734 8.02393 10.2679 7.27594 10.2679H3.73285C3.40688 10.2679 3.14233 10.5324 3.14233 10.8584V21.4877C3.14233 21.8136 3.40688 22.0782 3.73285 22.0782H7.27594C7.98023 22.0782 8.58964 21.6652 8.87505 21.0684L10.9041 21.7447C11.5674 21.966 12.2587 22.0782 12.9583 22.0782H17.9052C18.8819 22.0782 19.6768 21.2834 19.6768 20.3066C19.6768 20.0763 19.6327 19.8559 19.5524 19.6539C20.3035 19.4488 20.8578 18.7603 20.8578 17.9446C20.8578 17.4915 20.6865 17.0773 20.4055 16.7636C20.6865 16.4498 20.8578 16.0356 20.8578 15.5825C20.8578 15.1294 20.6865 14.7153 20.4055 14.4015ZM7.86646 20.3066C7.86646 20.6322 7.60151 20.8972 7.27594 20.8972H4.32336V11.4489H7.27594C7.60151 11.4489 7.86646 11.7139 7.86646 12.0394V20.3066ZM17.9052 14.992H19.0862C19.4118 14.992 19.6768 15.2569 19.6768 15.5825C19.6768 15.9081 19.4118 16.173 19.0862 16.173H17.9052C17.5792 16.173 17.3147 16.4376 17.3147 16.7636C17.3147 17.0895 17.5792 17.3541 17.9052 17.3541H19.0862C19.4118 17.3541 19.6768 17.619 19.6768 17.9446C19.6768 18.2702 19.4118 18.5351 19.0862 18.5351H17.9052C17.5792 18.5351 17.3147 18.7996 17.3147 19.1256C17.3147 19.4516 17.5792 19.7161 17.9052 19.7161C18.2308 19.7161 18.4957 19.9811 18.4957 20.3066C18.4957 20.6322 18.2308 20.8972 17.9052 20.8972H12.9583C12.3859 20.8972 11.8202 20.8054 11.2773 20.6243L9.04749 19.8811V12.574C9.97381 12.3981 10.8804 11.8115 11.6989 10.8513C12.4981 9.91357 13.1461 8.67034 13.4323 7.52514L13.6421 6.68542H13.7716C14.4227 6.68542 14.9526 7.21531 14.9526 7.86646V8.45658C14.9526 9.24944 14.7046 10.7702 14.3873 11.4489H13.1811C12.8551 11.4489 12.5906 11.7135 12.5906 12.0394C12.5906 12.3654 12.8551 12.6299 13.1811 12.6299H19.0862C19.4118 12.6299 19.6768 12.8949 19.6768 13.2205C19.6768 13.546 19.4118 13.811 19.0862 13.811H17.9052C17.5792 13.811 17.3147 14.0755 17.3147 14.4015C17.3147 14.7275 17.5792 14.992 17.9052 14.992Z" />
<path d="M6.09491 19.7162C6.42104 19.7162 6.68542 19.4518 6.68542 19.1257C6.68542 18.7995 6.42104 18.5352 6.09491 18.5352C5.76878 18.5352 5.50439 18.7995 5.50439 19.1257C5.50439 19.4518 5.76878 19.7162 6.09491 19.7162Z" />
<path d="M14.362 1.92188C14.0359 1.92188 13.7715 2.18627 13.7715 2.51239V3.73279C13.7715 4.05891 14.0359 4.3233 14.362 4.3233C14.6881 4.3233 14.9525 4.05891 14.9525 3.73279V2.51239C14.9525 2.18627 14.6881 1.92188 14.362 1.92188Z" />
<path d="M11.8566 4.52589L11.0215 3.69078C10.7909 3.46017 10.417 3.46017 10.1864 3.69078C9.95577 3.9214 9.95577 4.29527 10.1864 4.52589L11.0215 5.361C11.2521 5.59157 11.626 5.59161 11.8566 5.361C12.0872 5.13038 12.0872 4.75651 11.8566 4.52589Z" />
<path d="M18.5378 3.69078C18.3072 3.46017 17.9333 3.46017 17.7026 3.69078L16.8675 4.52585C16.6369 4.75647 16.6369 5.13034 16.8675 5.36096C17.0981 5.59157 17.472 5.59161 17.7026 5.361L18.5378 4.52589C18.7684 4.29527 18.7684 3.9214 18.5378 3.69078Z" />
</svg>
