<svg viewBox="0 0 40 40" fill="none" xmlns="http://www.w3.org/2000/svg">
<circle opacity="0.9" cx="20" cy="20" r="19.5" fill="white" stroke="#AAAAAA"/>
<g clip-path="url(#clip0_5648_22635)">
<g clip-path="url(#clip1_5648_22635)">
<path d="M14.6027 22.792L13.9279 25.3109L11.4617 25.3631C10.7247 23.996 10.3066 22.432 10.3066 20.7699C10.3066 19.1627 10.6975 17.647 11.3904 16.3125H11.3909L13.5865 16.715L14.5483 18.8975C14.347 19.4843 14.2373 20.1143 14.2373 20.7699C14.2374 21.4814 14.3662 22.1631 14.6027 22.792Z" fill="#FBBB00"/>
<path d="M29.5228 18.959C29.6341 19.5453 29.6921 20.1508 29.6921 20.7696C29.6921 21.4635 29.6192 22.1404 29.4802 22.7933C29.0084 25.0151 27.7755 26.9551 26.0677 28.328L26.0671 28.3275L23.3016 28.1864L22.9102 25.7431C24.0435 25.0785 24.9291 24.0384 25.3956 22.7933H20.2129V18.959H25.4712H29.5228Z" fill="#518EF8"/>
<path d="M26.0654 28.3278L26.066 28.3283C24.405 29.6634 22.295 30.4622 19.9982 30.4622C16.3071 30.4622 13.098 28.3991 11.4609 25.3631L14.6019 22.792C15.4204 24.9765 17.5277 26.5315 19.9982 26.5315C21.06 26.5315 22.0549 26.2445 22.9085 25.7433L26.0654 28.3278Z" fill="#28B446"/>
<path d="M26.1858 13.3085L23.0459 15.8791C22.1624 15.3268 21.1181 15.0078 19.9992 15.0078C17.4728 15.0078 15.3261 16.6342 14.5486 18.897L11.3912 16.3121H11.3906C13.0037 13.202 16.2533 11.0771 19.9992 11.0771C22.3509 11.0771 24.5072 11.9149 26.1858 13.3085Z" fill="#F14336"/>
</g>
<g clip-path="url(#clip2_5648_22635)">
</g>
</g>
<defs>
<clipPath id="clip0_5648_22635">
<rect width="21.5385" height="21.5385" fill="white" transform="translate(9.23047 10)"/>
</clipPath>
<clipPath id="clip1_5648_22635">
<rect width="19.3846" height="19.3846" fill="white" transform="translate(10.3066 11.0771)"/>
</clipPath>
<clipPath id="clip2_5648_22635">
<rect width="551.385" height="551.385" fill="white" transform="translate(-258.924 -253.847)"/>
</clipPath>
</defs>
</svg>
