<svg viewBox="0 0 34 34" fill="none" xmlns="http://www.w3.org/2000/svg">
    <g clip-path="url(#clip0_1139_17427)">
        <path
            d="M24.3811 22.3161L22.148 20.0811C21.5157 19.4521 20.5336 19.2915 19.7399 19.693C18.556 20.2417 16.9148 19.3718 15.8116 18.2744C14.695 17.1636 13.8206 15.5309 14.3722 14.3666C14.7758 13.5503 14.6143 12.5867 13.9686 11.9443L11.7219 9.70936C11.3318 9.30788 10.7937 9.09375 10.2287 9.09375C9.67711 9.09375 9.13899 9.30788 8.7354 9.70936C6.4215 11.9978 6.4215 15.7451 8.72195 18.0469L15.9731 25.2603C17.0897 26.3711 18.5829 26.9867 20.1704 26.9867C21.7578 26.9867 23.2511 26.3711 24.3677 25.2603C24.7713 24.8722 24.9865 24.3369 24.9865 23.7748C24.9865 23.2127 24.7713 22.6908 24.3677 22.2893L24.3811 22.3161ZM23.2645 24.0692L23.1973 24.1227C22.3901 24.9257 21.3139 25.3674 20.1704 25.3674C19.0269 25.3674 17.9506 24.9257 17.13 24.1094H17.1166L9.90581 16.9094C9.09863 16.1064 8.65468 15.0358 8.65468 13.8982C8.65468 12.7607 9.09863 11.69 9.90581 10.8871C10.0807 10.7131 10.3632 10.7131 10.5381 10.8871L12.7847 13.122C12.9327 13.2558 12.9731 13.47 12.8789 13.6573C12.0852 15.3168 12.7713 17.5919 14.6412 19.4387C16.5112 21.2856 18.7847 21.9681 20.4529 21.1785C20.6278 21.0848 20.843 21.125 20.9776 21.2588L23.2107 23.4938C23.3722 23.6543 23.3856 23.8952 23.2511 24.0826L23.2645 24.0692Z"
            fill="inherit" />
        <path fill-rule="evenodd" clip-rule="evenodd"
            d="M24.6502 9.2145C25.0538 9.53568 25.1076 10.1379 24.7847 10.5394L19.8879 15.4108C19.565 15.8123 18.9596 15.8658 18.556 15.5446C18.1525 15.2234 18.0986 14.6212 18.4215 14.2197L23.3318 9.34832C23.6547 8.94684 24.2601 8.89331 24.6637 9.2145H24.6502Z"
            fill="inherit" />
        <path fill-rule="evenodd" clip-rule="evenodd"
            d="M19.8879 9.34832L24.7847 14.2197C25.1076 14.6212 25.0538 15.21 24.6502 15.5446C24.2466 15.8658 23.6547 15.8123 23.3184 15.4108L18.4215 10.5394C18.0986 10.1379 18.1525 9.54907 18.556 9.2145C18.9596 8.89331 19.5516 8.94684 19.8879 9.34832Z"
            fill="inherit" />
    </g>
    <defs>
        <clipPath id="clip0_1139_17427">
            <rect width="18" height="18" fill="inherit" transform="translate(7 9)" />
        </clipPath>
    </defs>
</svg>