<svg width="24" height="24" viewBox="0 0 24 24" xmlns="http://www.w3.org/2000/svg">
<path fill-rule="evenodd" clip-rule="evenodd" d="M21.438 16.098C21.378 15.9 21.252 15.72 21.084 15.6L14.832 10.908L16.296 9.81005C16.422 9.71405 16.494 9.57005 16.494 9.40805C16.494 8.74805 16.23 8.11205 15.762 7.64405C15.294 7.17605 14.658 6.91205 13.998 6.91205C13.338 6.91205 12.702 7.17605 12.234 7.64405C11.766 8.11205 11.502 8.74805 11.502 9.40805C11.502 9.68405 11.724 9.90605 12 9.90605C12.276 9.90605 12.498 9.68405 12.498 9.40805C12.498 9.01205 12.654 8.62805 12.936 8.35205C13.218 8.07005 13.596 7.91405 13.992 7.91405C14.388 7.91405 14.772 8.07005 15.048 8.35205C15.27 8.57405 15.42 8.86805 15.468 9.17405L13.698 10.5C13.698 10.5 13.686 10.506 13.68 10.512L8.178 14.64V11.352C8.178 11.1 7.974 10.896 7.722 10.896H7.266V5.25605C7.266 5.00405 7.062 4.80005 6.81 4.80005C5.664 4.80005 4.92 5.31005 4.476 5.91605C4.05 6.49805 3.912 7.16405 3.912 7.53005V10.896H3.456C3.204 10.896 3 11.1 3 11.352V18.942C3 19.194 3.204 19.398 3.456 19.398H7.722C7.974 19.398 8.178 19.194 8.178 18.942V17.394H20.478C20.688 17.394 20.892 17.328 21.06 17.208C21.228 17.088 21.354 16.914 21.426 16.716C21.492 16.518 21.492 16.302 21.426 16.104L21.438 16.098ZM4.83 7.53005C4.83 7.33805 4.92 6.87005 5.22 6.45605C5.448 6.14405 5.796 5.85605 6.354 5.75405V10.896H4.83V7.53005ZM3.918 11.814H7.272V13.338H3.918V11.814ZM3.918 18.486V14.25H7.272V15.33L6.912 15.6C6.744 15.726 6.618 15.9 6.558 16.098C6.498 16.296 6.498 16.512 6.558 16.71C6.624 16.908 6.75 17.082 6.924 17.202C7.026 17.274 7.146 17.322 7.266 17.352V18.48H3.912L3.918 18.486ZM7.512 16.398L13.998 11.532L20.484 16.398H7.512Z" fill="inherit"/>
</svg>
