<svg width="24" height="24" viewBox="0 0 24 24" xmlns="http://www.w3.org/2000/svg">
<path d="M8.62798 13.368H7.11598C7.08598 12.738 6.56398 12.24 5.92798 12.24C5.60998 12.24 5.30998 12.366 5.08798 12.588L4.02598 13.65C3.79798 13.872 3.67798 14.172 3.67798 14.49C3.67798 14.808 3.80398 15.108 4.02598 15.33C4.48798 15.792 5.24398 15.792 5.70598 15.33L6.02398 15.012C6.20998 15.456 6.63598 15.744 7.12198 15.744H8.62798C9.28198 15.744 9.81598 15.21 9.81598 14.556C9.81598 13.902 9.28198 13.368 8.62798 13.368ZM5.08798 14.718C4.96198 14.844 4.76398 14.838 4.63798 14.718C4.51798 14.592 4.51798 14.394 4.63798 14.268L4.85998 14.046L5.30998 14.496L5.08798 14.718ZM6.14998 13.656L5.92798 13.878L5.47798 13.428L5.69998 13.206C5.81998 13.08 6.02398 13.08 6.14998 13.206C6.27598 13.326 6.27598 13.53 6.14998 13.656ZM7.43398 14.88H7.11598C6.94198 14.88 6.79798 14.736 6.79798 14.562C6.79798 14.388 6.94198 14.244 7.11598 14.244H7.43398V14.874V14.88ZM8.62198 14.88H8.30398V14.25H8.62198C8.79598 14.25 8.93998 14.394 8.93998 14.568C8.93998 14.742 8.79598 14.886 8.62198 14.886V14.88Z" fill="inherit"/>
<path d="M7.50015 16.374H5.99415C5.75415 16.374 5.55615 16.572 5.55615 16.812C5.55615 17.052 5.75415 17.25 5.99415 17.25H7.50015C7.74015 17.25 7.93815 17.052 7.93815 16.812C7.93815 16.572 7.74015 16.374 7.50015 16.374Z" fill="inherit"/>
<path d="M20.988 11.538C20.4781 10.734 19.68 10.2 18.75 10.032C18.684 10.02 18.6241 10.008 18.5581 10.002C18.5581 10.002 18.5581 10.002 18.5581 9.99598C19.4221 8.86798 19.032 7.17598 19.026 7.15798C18.978 6.94798 18.792 6.80398 18.576 6.80398C18.576 6.80398 18.564 6.80398 18.5581 6.80398C18.486 6.80398 16.794 6.87598 15.936 7.99198C15.318 8.79598 15.3481 9.95998 15.4141 10.536C14.676 10.056 13.794 9.88198 12.936 10.038C12.474 10.122 12.042 10.296 11.664 10.548C11.562 9.20998 10.698 8.03398 9.42605 7.56598V6.40198C9.66605 6.17998 9.80405 5.86198 9.80405 5.53798V4.78798C9.80405 4.13398 9.27005 3.59998 8.61605 3.59998H4.87205C4.21805 3.59998 3.68405 4.13398 3.68405 4.78798V5.53798C3.68405 5.86798 3.82205 6.17998 4.06205 6.40198V7.56598C3.66605 7.70998 3.30605 7.92598 2.98805 8.20198C2.96405 8.21998 2.40005 8.69998 2.17805 9.23398C1.93205 9.71398 1.80005 10.254 1.80005 10.794V18.318C1.80005 18.354 1.80005 18.396 1.80005 18.426C1.80005 18.444 1.80005 18.858 2.00405 19.188C2.33405 19.848 3.00005 20.262 3.73805 20.262H9.76205C10.71 20.262 11.496 19.572 11.664 18.672C11.802 18.852 11.94 19.026 12.09 19.182C12.816 19.938 13.638 20.34 14.478 20.34C14.634 20.34 14.79 20.328 14.94 20.298C15.006 20.286 15.078 20.268 15.144 20.25C15.606 20.13 16.092 20.13 16.554 20.25C16.62 20.268 16.692 20.28 16.758 20.298C17.736 20.472 18.75 20.082 19.608 19.182C20.382 18.378 21 17.196 21.354 15.852C21.93 13.674 21.474 12.306 20.988 11.538ZM20.466 15.618C20.1481 16.812 19.608 17.85 18.942 18.546C18.4921 19.02 17.772 19.542 16.92 19.392C16.878 19.386 16.83 19.374 16.788 19.362C16.17 19.2 15.522 19.2 14.904 19.362C14.862 19.374 14.814 19.386 14.772 19.392C13.9141 19.548 13.2 19.02 12.75 18.546C12.084 17.85 11.544 16.812 11.226 15.618C10.734 13.758 11.094 12.642 11.478 12.03C11.85 11.448 12.426 11.058 13.11 10.932C13.26 10.908 13.41 10.89 13.56 10.89C14.286 10.89 14.976 11.214 15.504 11.796C15.588 11.892 15.714 11.946 15.846 11.946C15.978 11.946 16.098 11.892 16.188 11.796C16.83 11.088 17.7 10.77 18.582 10.932C19.26 11.058 19.8421 11.442 20.2141 12.03C20.604 12.642 20.958 13.758 20.466 15.618ZM16.6741 8.54398C17.0581 8.03998 17.766 7.84198 18.192 7.76398C18.2281 8.19598 18.216 8.92798 17.832 9.43198C17.442 9.93598 16.746 10.182 16.326 10.296C16.29 9.89398 16.278 9.05998 16.6741 8.54398ZM4.55405 4.77598C4.55405 4.60198 4.69805 4.45798 4.87205 4.45798H8.63405C8.80805 4.45798 8.95205 4.60198 8.95205 4.77598V5.52598C8.95205 5.69998 8.80805 5.84398 8.63405 5.84398H4.87205C4.69805 5.84398 4.55405 5.69998 4.55405 5.52598V4.77598ZM8.57405 6.71398V7.36198C8.46605 7.34998 8.35805 7.34998 8.25605 7.34998H5.24405C5.14205 7.34998 5.03405 7.34998 4.92605 7.36198V6.71398H8.56805H8.57405ZM5.25005 8.21998H8.26205C9.66005 8.21998 10.8 9.34198 10.836 10.734H2.67605C2.71205 9.34198 3.85205 8.21998 5.25005 8.21998ZM9.76205 19.386H3.73805C3.31805 19.386 2.93405 19.134 2.76005 18.756H10.734C10.566 19.14 10.182 19.386 9.76205 19.386ZM10.83 17.88H2.67005V11.604H10.674C10.2 12.378 9.78005 13.734 10.344 15.852C10.47 16.338 10.638 16.8 10.83 17.232V17.88Z" fill="inherit"/>
</svg>
