<svg width="19" height="18" viewBox="0 0 19 18" xmlns="http://www.w3.org/2000/svg">
<path fill-rule="evenodd" clip-rule="evenodd" d="M1.25 7.125C1.25 4.43263 3.43261 2.25 6.125 2.25C7.43526 2.25 8.62466 2.76736 9.5 3.60726C10.3753 2.76736 11.5647 2.25 12.875 2.25C15.5674 2.25 17.75 4.43262 17.75 7.125C17.75 9.47559 16.373 11.6245 14.7673 13.2461C13.1543 14.8751 11.1816 16.1038 9.73652 16.5841C9.58297 16.6351 9.41703 16.6351 9.26348 16.5841C7.81841 16.1038 5.84571 14.8751 4.23269 13.2461C2.62697 11.6245 1.25 9.47559 1.25 7.125ZM6.125 3.75C4.26104 3.75 2.75 5.26105 2.75 7.125C2.75 8.89941 3.81053 10.688 5.29856 12.1907C6.68339 13.5892 8.32763 14.6266 9.5 15.0758C10.6724 14.6266 12.3166 13.5892 13.7014 12.1907C15.1895 10.688 16.25 8.89941 16.25 7.125C16.25 5.26105 14.7389 3.75 12.875 3.75C11.7342 3.75 10.7253 4.31534 10.1132 5.1845C9.97273 5.38399 9.74399 5.50268 9.5 5.50268C9.25601 5.50268 9.02727 5.38399 8.88679 5.1845C8.27473 4.31534 7.26584 3.75 6.125 3.75Z" />
</svg>
