<svg viewBox="0 0 11 11" fill="inherit" xmlns="http://www.w3.org/2000/svg">
    <g clip-path="url(#clip0_2000_46685)">
        <path
            d="M7.88792 3.51067C7.89708 3.42359 7.90167 3.3365 7.90167 3.24942C7.90167 1.96609 6.85208 0.916504 5.56417 0.916504C4.27625 0.916504 3.23125 1.96609 3.23125 3.24942C3.23125 3.3365 3.23125 3.42359 3.245 3.51067C2.93333 3.71234 2.75 4.0515 2.75 4.42275C2.75 4.86275 3.025 5.26609 3.43292 5.43109L5.13792 10.2069L5.15625 10.239C5.225 10.4086 5.38542 10.5232 5.56875 10.5232C5.75208 10.5232 5.9125 10.4132 5.98125 10.239H5.99042L7.15 6.994C7.54875 6.8565 7.81458 6.48067 7.81458 6.059V5.38525C8.17208 5.19734 8.39208 4.83067 8.39208 4.42734C8.39208 4.05609 8.20875 3.71692 7.89708 3.51525L7.88792 3.51067ZM5.83 5.509V6.059C5.83 6.47609 6.08667 6.84275 6.47625 6.98484L5.56875 9.51484L4.13417 5.509H5.83ZM6.08208 4.8765H3.83625C3.58875 4.8765 3.3825 4.67484 3.3825 4.42275C3.3825 4.244 3.48792 4.079 3.65292 4.00567H4.79875C4.97292 4.00567 5.115 3.86359 5.115 3.68942C5.115 3.51525 4.97292 3.37317 4.79875 3.37317H3.86833C3.83625 2.90109 3.9875 2.45192 4.30833 2.10359C4.62917 1.75067 5.09208 1.54442 5.56875 1.54442C6.50833 1.54442 7.27375 2.30984 7.27375 3.24942C7.27375 3.37317 7.26 3.49692 7.2325 3.62067L7.16833 3.90025L7.43875 3.99192C7.62667 4.0515 7.75042 4.22567 7.75042 4.42275C7.75042 4.629 7.60833 4.80775 7.41125 4.86275L7.17292 4.92234V6.059C7.17292 6.25609 7.0125 6.4165 6.81542 6.4165C6.61833 6.4165 6.45792 6.25609 6.45792 6.059V5.25692C6.45792 5.04609 6.28833 4.88109 6.08208 4.88109V4.8765Z"
            fill="inherit" />
    </g>
    <defs>
        <clipPath id="clip0_2000_46685">
            <rect width="5.63292" height="9.60208" fill="inherit"
                transform="translate(2.75 0.916504)" />
        </clipPath>
    </defs>
</svg>