<svg viewBox="0 0 18 18" fill="inherit" xmlns="http://www.w3.org/2000/svg">
    <g>
        <path
            d="M9.2325 2.25C5.385 2.25 2.25 5.385 2.25 9.2325C2.25 13.08 5.385 16.215 9.2325 16.215C13.08 16.215 16.215 13.08 16.215 9.2325C16.215 5.385 13.08 2.25 9.2325 2.25ZM9.2325 14.9475C6.0825 14.9475 3.5175 12.3825 3.5175 9.2325C3.5175 6.0825 6.0825 3.5175 9.2325 3.5175C12.3825 3.5175 14.9475 6.0825 14.9475 9.2325C14.9475 12.3825 12.3825 14.9475 9.2325 14.9475Z"
            fill="inherit" />
        <path
            d="M9.23227 5.21289C8.76727 5.21289 8.38477 5.59539 8.38477 6.06039C8.38477 6.52539 8.76727 6.90789 9.23227 6.90789C9.69727 6.90789 10.0798 6.52539 10.0798 6.06039C10.0798 5.59539 9.69727 5.21289 9.23227 5.21289Z"
            fill="inherit" />
        <path
            d="M9.23223 8.1748C8.87973 8.1748 8.59473 8.4598 8.59473 8.8123V12.6223C8.59473 12.9748 8.87973 13.2598 9.23223 13.2598C9.58473 13.2598 9.86973 12.9748 9.86973 12.6223V8.8123C9.86973 8.4598 9.58473 8.1748 9.23223 8.1748Z"
            fill="inherit" />
    </g>
</svg>