<svg width="24" height="24" viewBox="0 0 24 24" xmlns="http://www.w3.org/2000/svg">
<path d="M16.368 5.31598C16.632 5.31598 16.842 5.09998 16.842 4.84198V4.07398C16.842 3.80998 16.626 3.59998 16.368 3.59998C16.11 3.59998 15.894 3.81598 15.894 4.07398V4.84198C15.894 5.10598 16.104 5.31598 16.368 5.31598Z" fill="inherit"/>
<path d="M17.994 5.99393C18.12 5.99393 18.24 5.94593 18.33 5.85593L18.876 5.30993C19.062 5.12393 19.062 4.82393 18.876 4.63793C18.696 4.45793 18.384 4.45793 18.204 4.63793L17.658 5.18393C17.568 5.27393 17.52 5.39393 17.52 5.51993C17.52 5.64593 17.568 5.76593 17.658 5.85593C17.748 5.94593 17.868 5.99393 17.994 5.99393Z" fill="inherit"/>
<path d="M18.198 7.146C18.198 7.41 18.408 7.62 18.672 7.62H19.44C19.704 7.62 19.914 7.404 19.914 7.146C19.914 6.888 19.698 6.672 19.44 6.672H18.672C18.408 6.672 18.198 6.888 18.198 7.146Z" fill="inherit"/>
<path d="M17.6641 8.44201C17.5741 8.53201 17.5261 8.65201 17.5261 8.77801C17.5261 8.90401 17.5741 9.02401 17.6641 9.11401L18.2101 9.66001C18.3001 9.75001 18.4201 9.79801 18.5461 9.79801C18.6721 9.79801 18.7921 9.75001 18.8821 9.66001C19.0681 9.47401 19.0681 9.17401 18.8821 8.98801L18.3361 8.44201C18.1561 8.26201 17.8441 8.26201 17.6641 8.44201Z" fill="inherit"/>
<path d="M15.894 9.45593V10.2239C15.894 10.4879 16.104 10.6979 16.368 10.6979C16.632 10.6979 16.842 10.4819 16.842 10.2239V9.45593C16.842 9.19193 16.626 8.98193 16.368 8.98193C16.11 8.98193 15.894 9.19793 15.894 9.45593Z" fill="inherit"/>
<path d="M18.2761 10.518C17.8441 10.518 17.4361 10.686 17.1241 10.992L13.7701 14.358H10.1281L8.49609 8.25596L11.7481 7.38596C12.0001 7.31996 12.1501 7.05596 12.0841 6.80396C11.5801 4.91396 9.87009 3.60596 7.91409 3.60596H7.87209C7.51209 3.60596 7.14609 3.65996 6.79809 3.75596C4.50009 4.37396 3.1321 6.74396 3.7501 9.04196C3.8161 9.29396 4.0741 9.44396 4.3321 9.37796L7.5841 8.50796L9.15609 14.364H5.22609C4.33209 14.364 3.6001 15.096 3.6001 15.99C3.6001 16.884 4.32609 17.616 5.22609 17.616H5.6161L4.80609 19.236C4.75209 19.35 4.7401 19.476 4.7821 19.596C4.8241 19.716 4.90809 19.812 5.02209 19.872C5.13609 19.926 5.2681 19.938 5.3821 19.896C5.5021 19.854 5.59809 19.77 5.65809 19.656L6.67809 17.61H10.0261L10.5481 19.566C10.5781 19.686 10.6561 19.788 10.7701 19.854C10.8781 19.92 11.0041 19.938 11.1301 19.902C11.2501 19.872 11.3521 19.794 11.4181 19.68C11.4841 19.572 11.4961 19.44 11.4661 19.32L11.0101 17.61H13.7761L14.7961 19.656C14.8501 19.77 14.9521 19.854 15.0721 19.896C15.1201 19.914 15.1741 19.92 15.2221 19.92C15.2941 19.92 15.3661 19.902 15.4321 19.872C15.5461 19.818 15.6301 19.716 15.6721 19.596C15.7141 19.476 15.7021 19.344 15.6481 19.236L14.8081 17.556C14.9221 17.52 15.0421 17.472 15.1561 17.412C15.4441 17.256 15.6901 17.046 15.7921 16.95L19.4341 13.296C20.0641 12.66 20.0641 11.628 19.4341 10.998C19.1281 10.692 18.7201 10.524 18.2881 10.524L18.2761 10.518ZM7.91409 4.55396C7.91409 4.55396 7.96209 4.55396 7.98009 4.55396C9.31209 4.57796 10.4941 5.38196 11.0101 6.59996L4.5661 8.32796C4.3621 6.66596 5.41209 5.10596 7.03809 4.66796C7.32609 4.58996 7.61409 4.55396 7.90809 4.55396H7.91409ZM18.7501 12.63L15.1081 16.284C15.0421 16.35 14.8741 16.488 14.7001 16.578C14.6161 16.62 14.5261 16.668 14.4481 16.668H5.22609C4.85409 16.668 4.5541 16.362 4.5541 15.99C4.5541 15.618 4.85409 15.312 5.22609 15.312H13.9741C14.1001 15.312 14.2201 15.264 14.3101 15.174L17.8021 11.67C18.0601 11.412 18.5041 11.418 18.7561 11.67C19.0201 11.934 19.0201 12.366 18.7561 12.63H18.7501Z" fill="inherit"/>
<path d="M13.2902 7.62598H14.0582C14.3222 7.62598 14.5322 7.40998 14.5322 7.15198C14.5322 6.89398 14.3222 6.67798 14.0582 6.67798H13.2902C13.0262 6.67798 12.8162 6.89398 12.8162 7.15198C12.8162 7.40998 13.0262 7.62598 13.2902 7.62598Z" fill="inherit"/>
<path d="M14.4001 5.85593C14.4901 5.94593 14.6101 5.99393 14.7361 5.99393C14.8621 5.99393 14.9821 5.94593 15.0721 5.85593C15.1621 5.76593 15.2101 5.64593 15.2101 5.51993C15.2101 5.39393 15.1621 5.27393 15.0721 5.18393L14.5261 4.63793C14.3461 4.45793 14.0341 4.45793 13.8541 4.63793C13.7641 4.72793 13.7161 4.84793 13.7161 4.97393C13.7161 5.09993 13.7641 5.21993 13.8541 5.30993L14.4001 5.84993V5.85593Z" fill="inherit"/>
<path d="M16.3682 8.778C17.2682 8.778 17.9942 8.046 17.9942 7.152C17.9942 6.258 17.2622 5.526 16.3682 5.526C15.4742 5.526 14.7422 6.258 14.7422 7.152C14.7422 8.046 15.4742 8.778 16.3682 8.778ZM15.6902 7.152C15.6902 6.78 15.9962 6.474 16.3682 6.474C16.7402 6.474 17.0462 6.78 17.0462 7.152C17.0462 7.524 16.7402 7.83 16.3682 7.83C15.9962 7.83 15.6902 7.524 15.6902 7.152Z" fill="inherit"/>
<path d="M14.4002 8.44201L13.8602 8.98801C13.7702 9.07801 13.7222 9.19801 13.7222 9.32401C13.7222 9.45001 13.7702 9.57001 13.8602 9.66001C13.9502 9.75001 14.0702 9.79801 14.1962 9.79801C14.3222 9.79801 14.4422 9.75001 14.5322 9.66001L15.0782 9.11401C15.1682 9.02401 15.2162 8.90401 15.2162 8.77801C15.2162 8.65201 15.1682 8.53201 15.0782 8.44201C14.8982 8.26201 14.5862 8.26201 14.4062 8.44201H14.4002Z" fill="inherit"/>
</svg>
