<svg viewBox="0 0 322 142" fill="none" xmlns="http://www.w3.org/2000/svg">
<path fill-rule="evenodd" clip-rule="evenodd" d="M72.2966 132.488C68.8415 124.503 72.5294 115.235 80.5337 111.788L299.954 17.2936C307.959 13.8466 317.248 17.5259 320.703 25.5116C324.159 33.4973 320.471 42.7654 312.466 46.2124L93.0457 140.706C85.0414 144.153 75.7517 140.474 72.2966 132.488Z" fill="url(#paint0_linear_5918_183907)"/>
<path fill-rule="evenodd" clip-rule="evenodd" d="M28.6576 105.274C26.9168 101.294 28.7514 96.666 32.7552 94.9358L250.941 0.653594C254.945 -1.07657 259.602 0.74678 261.342 4.72615C263.083 8.70552 261.249 13.334 257.245 15.0642L39.0593 109.346C35.0554 111.077 30.3984 109.253 28.6576 105.274Z" fill="url(#paint1_linear_5918_183907)"/>
<path fill-rule="evenodd" clip-rule="evenodd" d="M237.223 27.7372C239.293 32.5541 237.084 38.1445 232.289 40.2238L13.207 135.22C8.41181 137.299 2.84662 135.08 0.776761 130.263C-1.29309 125.446 0.916206 119.855 5.71137 117.776L224.793 22.7803C229.588 20.701 235.153 22.9204 237.223 27.7372Z" fill="url(#paint2_linear_5918_183907)"/>
<defs>
<linearGradient id="paint0_linear_5918_183907" x1="321.462" y1="13.4686" x2="72.681" y2="13.4685" gradientUnits="userSpaceOnUse">
<stop stop-color="#6458C4"/>
<stop offset="0.265625" stop-color="#BE42B5"/>
<stop offset="0.515625" stop-color="#FF3C78"/>
<stop offset="0.755208" stop-color="#FF6B4D"/>
<stop offset="1" stop-color="#FF9428"/>
</linearGradient>
<linearGradient id="paint1_linear_5918_183907" x1="261.499" y1="-2.20998" x2="29.5671" y2="-2.21" gradientUnits="userSpaceOnUse">
<stop stop-color="#6458C4"/>
<stop offset="0.265625" stop-color="#BE42B5"/>
<stop offset="0.515625" stop-color="#FF3C78"/>
<stop offset="0.755208" stop-color="#FF6B4D"/>
<stop offset="1" stop-color="#FF9428"/>
</linearGradient>
<linearGradient id="paint2_linear_5918_183907" x1="0.510057" y1="138.29" x2="236.406" y2="138.29" gradientUnits="userSpaceOnUse">
<stop stop-color="#6458C4"/>
<stop offset="0.265625" stop-color="#BE42B5"/>
<stop offset="0.515625" stop-color="#FF3C78"/>
<stop offset="0.755208" stop-color="#FF6B4D"/>
<stop offset="1" stop-color="#FF9428"/>
</linearGradient>
</defs>
</svg>
