<svg viewBox="0 0 40 40" fill="none" xmlns="http://www.w3.org/2000/svg">
<circle opacity="0.9" cx="20" cy="20" r="20" fill="#00C44A"/>
<g clip-path="url(#clip0_5648_22648)">
<path fill-rule="evenodd" clip-rule="evenodd" d="M20.0342 10C26.0025 10 30.8379 13.9103 30.8379 18.7457C30.8379 20.598 30.1174 22.3469 28.4708 24.0958C26.2071 26.7709 21.1649 29.8574 20.0342 30.3722C19.0418 30.7329 19.0776 30.2243 19.1015 29.8851C19.1049 29.8375 19.108 29.7932 19.108 29.7551C19.108 29.5494 19.2114 28.8289 19.2114 28.8289C19.3137 28.6232 19.3137 28.2119 19.2114 27.9028C19.1245 27.644 18.7473 27.5297 18.4463 27.4384C18.389 27.4211 18.3345 27.4045 18.2852 27.388C13.0374 26.6686 9.23047 23.0674 9.23047 18.7457C9.23047 13.9092 14.0659 10 20.0342 10ZM27.5446 21.3184C27.5446 21.4218 27.4423 21.5241 27.34 21.5241L27.3389 21.5231H24.3559C24.2536 21.5231 24.1502 21.4207 24.1502 21.3174V16.5843C24.1502 16.482 24.2536 16.3786 24.3569 16.3786H27.34C27.4423 16.3786 27.5457 16.482 27.5457 16.5843V17.3047C27.5457 17.4071 27.4423 17.5104 27.3389 17.5104H25.282V18.3354H27.34C27.4423 18.3354 27.5457 18.4377 27.5457 18.54V19.2615C27.5457 19.3638 27.4423 19.4661 27.3389 19.4661H25.282V20.29H27.34C27.4423 20.29 27.5446 20.3923 27.5446 20.4957V21.3184ZM16.3296 21.3184C16.3296 21.4218 16.2272 21.5241 16.1249 21.5241H16.1239H13.1408C13.0385 21.5241 12.9351 21.4218 12.9351 21.3184V16.5854C12.9351 16.4831 13.0385 16.3797 13.1397 16.3797H13.8612C13.9636 16.3797 14.0669 16.4831 14.0659 16.5843V20.29H16.1249C16.2272 20.29 16.3296 20.3923 16.3296 20.4957V21.3184ZM17.2557 16.3797H17.9772C18.0796 16.3797 18.1819 16.4831 18.1819 16.5854V21.3184C18.1819 21.4218 18.0796 21.5241 17.9772 21.5241H17.2557C17.1534 21.5241 17.0511 21.4218 17.0511 21.3184V16.5854C17.0511 16.4831 17.1534 16.3797 17.2557 16.3797ZM22.4002 16.3797H23.1217H23.1228C23.2246 16.3797 23.3263 16.482 23.5288 16.6855L23.532 16.6887V21.4218C23.532 21.5241 23.4297 21.6275 23.3274 21.6275H22.5036L22.4012 21.5241L20.2399 18.6434V21.4218C20.2399 21.5241 20.1376 21.6264 20.0342 21.6264H19.3148C19.2114 21.6264 19.108 21.5241 19.108 21.4218V16.6877C19.108 16.5854 19.2114 16.4831 19.3148 16.4831H20.0342L22.1956 19.3638V16.5854C22.1956 16.4831 22.2979 16.3797 22.4002 16.3797Z" fill="white"/>
</g>
<defs>
<clipPath id="clip0_5648_22648">
<rect width="21.5385" height="21.5385" fill="white" transform="translate(9.23047 10)"/>
</clipPath>
</defs>
</svg>
