<svg width="84" height="52" viewBox="0 0 84 52" xmlns="http://www.w3.org/2000/svg">
<g clip-path="url(#clip0_1282_48132)">
<path d="M0.0467093 43.9459L0.265346 42.9886C0.4308 42.2795 1.05716 42.0018 1.74262 42.2204C2.48125 42.4391 4.01171 42.8764 5.71353 42.8764C7.13762 42.8764 7.98853 42.0255 7.98853 40.7964C7.98853 37.4814 0.271255 38.3323 0.271255 32.2814C0.271255 29.0786 3.03671 27.0814 6.51126 27.0814C8.15398 27.0814 9.57807 27.4655 10.6476 27.82C11.3567 28.0682 11.6049 28.7241 11.3863 29.4095L11.1144 30.2604C10.8958 30.9459 10.3226 31.2709 9.60762 31.0286C8.6208 30.7273 7.71671 30.5086 6.51716 30.5086C4.95716 30.5086 4.43716 31.3004 4.43716 32.2341C4.43716 35.3245 12.1544 34.3673 12.1544 40.7727C12.1544 44.4659 9.06398 46.3036 5.71944 46.3036C3.60989 46.3036 1.83125 45.8368 0.8208 45.5118C0.164891 45.2932 -0.112836 44.6904 0.0526184 43.9518L0.0467093 43.9459Z" fill="inherit"/>
<path d="M14.4531 28.3164C14.4531 27.5777 14.9436 27.0873 15.6822 27.0873H17.1359C17.8745 27.0873 18.3649 27.5777 18.3649 28.3164V31.9268C18.9677 31.5959 19.8954 31.2709 20.7995 31.2709C23.7009 31.2709 26.2181 32.9432 26.2181 36.9909V45.0686C26.2181 45.8073 25.7277 46.2977 24.989 46.2977H23.5354C22.7968 46.2977 22.3063 45.8073 22.3063 45.0686V37.2095C22.3063 35.2123 21.6209 34.58 20.4449 34.58C19.7359 34.58 19.0504 34.7986 18.3649 35.0704V45.0627C18.3649 45.8014 17.8745 46.2918 17.1359 46.2918H15.6822C14.9436 46.2918 14.4531 45.8014 14.4531 45.0627V28.3104V28.3164Z" fill="inherit"/>
<path d="M28.7109 37.5405C28.7109 33.6286 31.2814 31.2709 34.815 31.2709C38.3487 31.2709 40.9191 33.6227 40.9191 37.5405V40.0341C40.9191 43.9459 38.3487 46.3036 34.815 46.3036C31.2814 46.3036 28.7109 43.9518 28.7109 40.0341V37.5405ZM34.815 42.9886C36.4578 42.9886 37.0309 41.7832 37.0309 39.8982V37.6823C37.0309 35.7914 36.4578 34.5918 34.815 34.5918C33.1723 34.5918 32.5991 35.7973 32.5991 37.6823V39.8982C32.5991 41.7891 33.1723 42.9886 34.815 42.9886Z" fill="inherit"/>
<path d="M43.2129 37.2627C43.2129 33.4868 45.9783 31.265 49.2343 31.265C52.4902 31.265 55.232 33.4809 55.232 37.2627V40.2764C55.232 44.33 52.4665 46.2977 49.5652 46.2977C48.6611 46.2977 47.7038 45.9668 47.1306 45.6418V50.4873C47.1306 51.2259 46.6402 51.7164 45.9015 51.7164H44.4479C43.7093 51.7164 43.2188 51.2259 43.2188 50.4873V37.2686L43.2129 37.2627ZM49.2106 42.9827C50.3865 42.9827 51.3202 42.2145 51.3202 40.1345V37.3986C51.3202 35.5077 50.4161 34.58 49.2402 34.58C48.0643 34.58 47.1306 35.5077 47.1306 37.3986V42.4923C47.8161 42.7641 48.5015 42.9827 49.2106 42.9827Z" fill="inherit"/>
<path d="M61.2773 42.4095L70.6551 47.8223L77.9469 43.6091L61.2773 33.9832V42.4095Z" fill="url(#paint0_linear_1282_48132)"/>
<path d="M61.2773 49.6364C61.2773 51.2377 63.0087 52.2364 64.3973 51.4386L70.6551 47.8223L61.2773 42.4095V49.6364Z" fill="url(#paint1_linear_1282_48132)"/>
<path d="M82.1247 37.5995L64.3915 27.3591C63.0088 26.5614 61.2715 27.56 61.2715 29.1614V33.9832L77.941 43.6091L82.1188 41.1982C83.5015 40.4005 83.5015 38.3973 82.1188 37.5995H82.1247Z" fill="url(#paint2_linear_1282_48132)"/>
<path d="M80.9725 34.5032C80.7538 34.5032 80.5293 34.45 80.3284 34.3318C79.7138 33.9773 79.5011 33.1855 79.8556 32.5709C80.5825 31.3123 80.7775 29.8468 80.3993 28.4405C80.0211 27.0341 79.1229 25.8641 77.8643 25.1373C76.6056 24.4105 75.1402 24.2155 73.7338 24.5936C72.3275 24.9718 71.1575 25.87 70.4306 27.1286C70.0761 27.7432 69.2843 27.9559 68.6697 27.6014C68.0552 27.2468 67.8425 26.455 68.197 25.8405C69.2666 23.985 70.9979 22.6555 73.0661 22.1C75.1343 21.5446 77.297 21.8282 79.1525 22.9036C81.0079 23.9732 82.3375 25.7046 82.8929 27.7727C83.4484 29.8409 83.1647 32.0036 82.0893 33.8591C81.8529 34.2727 81.4156 34.5032 80.9725 34.5032Z" fill="url(#paint3_linear_1282_48132)"/>
<path d="M3.7579 5.89727H1.2229C0.649716 5.89727 0.265625 5.51318 0.265625 4.94V4.19545C0.265625 3.61636 0.649716 3.23227 1.2229 3.23227H9.42472C9.9979 3.23227 10.382 3.61636 10.382 4.18954V4.93409C10.382 5.50727 9.9979 5.89136 9.42472 5.89136H6.88972V16.6755C6.88972 17.2486 6.50563 17.6327 5.93244 17.6327H4.71517C4.14199 17.6327 3.7579 17.2486 3.7579 16.6755V5.89727Z" fill="inherit"/>
<path d="M10.6367 7.45137C10.6367 6.87819 11.0208 6.49409 11.594 6.49409H12.7049C13.2781 6.49409 13.6622 6.87819 13.6622 7.45137V13.1182C13.6622 14.5896 14.259 15.3341 15.1985 15.3341C16.1381 15.3341 16.7349 14.5896 16.7349 13.1182V7.45137C16.7349 6.87819 17.119 6.49409 17.6922 6.49409H18.8208C19.394 6.49409 19.7781 6.87819 19.7781 7.45137V13.2245C19.7781 16.2914 17.6922 17.9105 15.1985 17.9105C12.7049 17.9105 10.6367 16.2914 10.6367 13.2245V7.45137Z" fill="inherit"/>
<path d="M29.2559 11.0914C29.2559 8.04227 31.259 6.21045 34.0068 6.21045C36.7545 6.21045 38.7577 8.04227 38.7577 11.0914V13.0295C38.7577 16.0786 36.7545 17.9104 34.0068 17.9104C31.259 17.9104 29.2559 16.0786 29.2559 13.0295V11.0914ZM34.0068 15.3282C35.2831 15.3282 35.7322 14.3886 35.7322 12.9232V11.1977C35.7322 9.72636 35.2831 8.79272 34.0068 8.79272C32.7304 8.79272 32.2813 9.73227 32.2813 11.1977V12.9232C32.2813 14.3945 32.7304 15.3282 34.0068 15.3282Z" fill="inherit"/>
<path d="M40.9023 10.5182C40.9023 7.94182 42.8819 6.21637 45.4169 6.21637C45.7596 6.21637 46.0787 6.24001 46.4628 6.2991C46.9296 6.38182 47.4851 6.74819 47.3137 7.4691L47.166 8.10728C47.0596 8.5741 46.6992 8.95819 46.0373 8.8341C45.8896 8.81046 45.6769 8.79273 45.4405 8.79273C44.4833 8.79273 43.9278 9.51955 43.9278 10.5182V16.6755C43.9278 17.2486 43.5437 17.6327 42.9705 17.6327H41.8596C41.2864 17.6327 40.9023 17.2486 40.9023 16.6755V10.5182Z" fill="inherit"/>
<path d="M51.154 4.14818C51.3254 3.59272 51.8158 3.23227 52.389 3.23227H54.0908C54.664 3.23227 55.1545 3.59272 55.3258 4.14818L59.0781 16.6341C59.2495 17.2073 58.9717 17.6327 58.3985 17.6327H57.0808C56.5076 17.6327 56.1235 17.355 55.9699 16.7995L55.2431 14.1582H51.2367L50.5099 16.7759C50.3622 17.3314 49.9958 17.6268 49.4226 17.6268H48.0813C47.5081 17.6268 47.2304 17.2014 47.4017 16.6282L51.154 4.14227V4.14818ZM54.5399 11.6232L53.7954 8.89909C53.6063 8.23727 53.4113 7.345 53.2399 6.44682C53.0685 7.33909 52.8558 8.23727 52.6845 8.89909L51.9399 11.6232H54.5399Z" fill="inherit"/>
<path d="M61.207 4.18954C61.207 3.61636 61.5911 3.23227 62.1643 3.23227H65.9166C68.9657 3.23227 70.8566 4.91636 70.8566 7.28C70.8566 8.62136 70.177 9.53727 69.0484 10.0691C70.4961 10.6009 71.3943 11.6468 71.3943 13.2423C71.3943 15.6709 69.202 17.6327 66.0229 17.6327H62.1643C61.5911 17.6327 61.207 17.2486 61.207 16.6755V4.18954ZM65.6802 8.98181C66.9802 8.98181 67.6834 8.32 67.6834 7.42772C67.6834 6.53545 67.1516 5.89136 65.8279 5.89136H64.3388V8.98181H65.6802ZM65.9993 14.9677C67.382 14.9677 68.2152 14.2232 68.2152 13.2423C68.2152 12.2614 67.5534 11.5168 66.1707 11.5168H64.3388V14.9677H65.9993Z" fill="inherit"/>
<path d="M73.3086 8.87545C73.3086 4.89273 75.82 2.95454 79.1881 2.95454C80.4645 2.95454 81.5341 3.12591 82.4677 3.35636C83.0231 3.50409 83.2536 3.97682 83.1295 4.52636L82.9581 5.25318C82.8281 5.80863 82.2963 6.03909 81.7881 5.915C81.1086 5.76727 80.3168 5.61363 79.2118 5.61363C77.5041 5.61363 76.4404 6.52954 76.4404 9.12954V11.7059C76.4404 14.3236 77.5041 15.2395 79.2118 15.2395C80.2754 15.2395 81.1086 15.1095 81.8118 14.9441C82.3672 14.7964 82.8341 15.0268 82.9641 15.5823L83.1354 16.3268C83.2654 16.8823 82.9463 17.3727 82.3672 17.5205C81.5991 17.7095 80.5118 17.9045 79.1941 17.9045C75.8259 17.9045 73.3145 15.9664 73.3145 11.9836V8.87545H73.3086Z" fill="inherit"/>
<path d="M27.2701 6.48819H26.2242V4.17773C26.2242 3.60455 25.8401 3.22046 25.2669 3.22046H24.1383C23.5651 3.22046 23.181 3.60455 23.181 4.17773V6.4941H22.1174C21.9756 6.4941 21.8692 6.53546 21.7747 6.58864C21.5442 6.70682 21.3965 6.93728 21.3965 7.23864V7.77046C21.3965 8.21955 21.6919 8.515 22.141 8.515H23.1869V16.6755C23.1869 17.2486 23.571 17.6327 24.1442 17.6327H25.2728C25.846 17.6327 26.2301 17.2486 26.2301 16.6755V8.515H27.276C27.7251 8.515 28.0206 8.21364 28.0206 7.77046V7.23864C28.0206 6.78955 27.7251 6.4941 27.276 6.4941L27.2701 6.48819Z" fill="inherit"/>
</g>
<defs>
<linearGradient id="paint0_linear_1282_48132" x1="55.2796" y1="34.4855" x2="80.8483" y2="49.6955" gradientUnits="userSpaceOnUse">
<stop stop-color="#6458C4"/>
<stop offset="0.25" stop-color="#BE42B5"/>
<stop offset="0.5" stop-color="#FF3C78"/>
<stop offset="0.75" stop-color="#FF6B4D"/>
<stop offset="1" stop-color="#FF9428"/>
</linearGradient>
<linearGradient id="paint1_linear_1282_48132" x1="50.511" y1="39.6027" x2="71.7955" y2="52.9632" gradientUnits="userSpaceOnUse">
<stop stop-color="#6458C4"/>
<stop offset="0.25" stop-color="#BE42B5"/>
<stop offset="0.5" stop-color="#FF3C78"/>
<stop offset="0.75" stop-color="#FF6B4D"/>
<stop offset="1" stop-color="#FF9428"/>
</linearGradient>
<linearGradient id="paint2_linear_1282_48132" x1="60.9406" y1="29.3091" x2="104.579" y2="55.5927" gradientUnits="userSpaceOnUse">
<stop stop-color="#6458C4"/>
<stop offset="0.25" stop-color="#BE42B5"/>
<stop offset="0.5" stop-color="#FF3C78"/>
<stop offset="0.75" stop-color="#FF6B4D"/>
<stop offset="1" stop-color="#FF9428"/>
</linearGradient>
<linearGradient id="paint3_linear_1282_48132" x1="69.497" y1="22.7914" x2="84.0629" y2="31.0759" gradientUnits="userSpaceOnUse">
<stop stop-color="#6458C4"/>
<stop offset="0.25" stop-color="#BE42B5"/>
<stop offset="0.5" stop-color="#FF3C78"/>
<stop offset="0.75" stop-color="#FF6B4D"/>
<stop offset="1" stop-color="#FF9428"/>
</linearGradient>
<clipPath id="clip0_1282_48132">
<rect width="83.1646" height="52" fill="inherit"/>
</clipPath>
</defs>
</svg>
