<svg width="19" height="18" viewBox="0 0 19 18" xmlns="http://www.w3.org/2000/svg">
<path fill-rule="evenodd" clip-rule="evenodd" d="M1.25 7.875C1.25 3.93999 4.43999 0.75 8.375 0.75C12.31 0.75 15.5 3.93999 15.5 7.875C15.5 9.57235 14.9065 11.1311 13.9156 12.355L16.6705 15.1098C16.9634 15.4027 16.9634 15.8776 16.6705 16.1705C16.3776 16.4634 15.9027 16.4634 15.6098 16.1705L12.855 13.4156C11.6311 14.4065 10.0724 15 8.375 15C4.43999 15 1.25 11.81 1.25 7.875ZM8.375 2.25C5.26841 2.25 2.75 4.76841 2.75 7.875C2.75 10.9816 5.26841 13.5 8.375 13.5C11.4816 13.5 14 10.9816 14 7.875C14 4.76841 11.4816 2.25 8.375 2.25Z" />
</svg>
