<svg viewBox="0 0 34 34" fill="none" xmlns="http://www.w3.org/2000/svg">
    <path fill-rule="evenodd" clip-rule="evenodd"
        d="M22.9227 7.94286C23.2308 8.17631 23.2914 8.61536 23.0579 8.92352L10.5579 25.4235C10.3245 25.7317 9.88542 25.7922 9.57726 25.5588C9.26911 25.3253 9.20855 24.8863 9.442 24.5781L21.942 8.07812C22.1755 7.76996 22.6145 7.7094 22.9227 7.94286Z"
        fill="inherit" />
    <path fill-rule="evenodd" clip-rule="evenodd"
        d="M14.6754 10.2411C15.2952 9.63703 16.132 9.30078 17.0009 9.30078C17.8698 9.30078 18.7066 9.63703 19.3264 10.2411C19.9467 10.8457 20.2987 11.6696 20.2987 12.5326V15.9085C20.2987 16.7715 19.9467 17.5954 19.3264 18.2001C18.7066 18.8041 17.8698 19.1403 17.0009 19.1403C16.132 19.1403 15.2952 18.8041 14.6754 18.2001C14.055 17.5954 13.7031 16.7715 13.7031 15.9085V12.5326C13.7031 11.6696 14.055 10.8457 14.6754 10.2411ZM17.0009 10.7008C16.4918 10.7008 16.0072 10.898 15.6526 11.2436C15.2986 11.5887 15.1031 12.0527 15.1031 12.5326V15.9085C15.1031 16.3884 15.2986 16.8525 15.6526 17.1975C16.0072 17.5431 16.4918 17.7403 17.0009 17.7403C17.5099 17.7403 17.9946 17.5431 18.3492 17.1975C18.7032 16.8525 18.8987 16.3884 18.8987 15.9085V12.5326C18.8987 12.0527 18.7032 11.5887 18.3492 11.2436C17.9946 10.898 17.5099 10.7008 17.0009 10.7008ZM10.8966 16.0601C11.279 16.003 11.6352 16.2667 11.6923 16.649C11.8766 17.8829 12.511 19.0147 13.4846 19.8355C14.4586 20.6567 15.7064 21.1107 17 21.1107C18.2936 21.1107 19.5414 20.6567 20.5154 19.8355C21.489 19.0147 22.1234 17.8829 22.3077 16.649C22.3648 16.2667 22.721 16.003 23.1034 16.0601C23.4858 16.1172 23.7494 16.4735 23.6923 16.8558C23.457 18.432 22.6478 19.869 21.4178 20.9059C20.3664 21.7922 19.0673 22.3362 17.7 22.4752V24.77C17.7 25.1566 17.3866 25.47 17 25.47C16.6134 25.47 16.3 25.1566 16.3 24.77V22.4752C14.9327 22.3362 13.6336 21.7922 12.5822 20.9059C11.3523 19.869 10.5431 18.432 10.3077 16.8558C10.2506 16.4735 10.5143 16.1172 10.8966 16.0601Z"
        fill="inherit" />
</svg>