<svg viewBox="0 0 25 25" fill="inherit" xmlns="http://www.w3.org/2000/svg">
    <g clip-path="url(#clip0_2065_7475)">
        <g clip-path="url(#clip1_2065_7475)">
            <path
                d="M17.6166 11.6227C17.702 11.5052 17.7808 11.3839 17.8531 11.2588C18.9176 9.41499 18.2802 7.03642 16.4299 5.96811C14.5795 4.8998 12.2075 5.54093 11.143 7.38472C11.0708 7.50983 10.9985 7.63495 10.9461 7.77147C10.331 7.80268 9.78627 8.13789 9.47833 8.67127C9.11335 9.30343 9.17389 10.111 9.62308 10.6864L8.11118 18.9622L8.11091 19.0235C8.06902 19.3242 8.20445 19.6219 8.46784 19.774C8.73124 19.926 9.05296 19.9011 9.2962 19.7079L9.30937 19.7155L13.6671 16.0152C14.354 16.1484 15.0477 15.8289 15.3974 15.2231L15.9563 14.2551C16.6258 14.2817 17.246 13.9374 17.5806 13.3579C17.8885 12.8245 17.9065 12.1852 17.626 11.6369L17.6166 11.6227ZM13.0024 12.7867L12.5462 13.5769C12.2002 14.1762 12.2648 14.9159 12.7067 15.4431L9.30424 18.3253L10.5659 11.3801L13.0024 12.7867ZM13.8892 12.0871L10.6626 10.2242C10.307 10.0189 10.1779 9.5581 10.387 9.19592C10.5353 8.93911 10.8236 8.7895 11.1215 8.821L12.7678 9.77146C13.018 9.91593 13.34 9.82965 13.4844 9.57942C13.6289 9.32919 13.5426 9.0072 13.2924 8.86273L11.9557 8.09097C12.3012 7.3861 12.891 6.86624 13.6409 6.63191C14.3946 6.391 15.2308 6.47866 15.9156 6.87405C17.2655 7.65342 17.7303 9.38801 16.9509 10.7379C16.8483 10.9157 16.7259 11.0821 16.5837 11.2371L16.2596 11.5855L16.5721 11.9416C16.7927 12.183 16.826 12.5359 16.6625 12.8191C16.4914 13.1154 16.139 13.2543 15.8102 13.1699L15.4184 13.0578L14.4755 14.6909C14.3121 14.974 13.9485 15.0714 13.6654 14.9079C13.3822 14.7445 13.2848 14.3809 13.4483 14.0978L14.1136 12.9454C14.2885 12.6425 14.1817 12.2648 13.8854 12.0937L13.8892 12.0871Z"
                fill="inherit" />
        </g>
    </g>
    <defs>
        <clipPath id="clip0_2065_7475">
            <rect width="18.2487" height="18.2487" fill="inherit"
                transform="translate(9.19604 0.0356445) rotate(30)" />
        </clipPath>
        <clipPath id="clip1_2065_7475">
            <rect width="9.34488" height="15.9296" fill="inherit"
                transform="translate(12.3867 3.63379) rotate(30)" />
        </clipPath>
    </defs>
</svg>