<svg width="25" height="24" viewBox="0 0 25 24" fill="inherit" xmlns="http://www.w3.org/2000/svg">
    <g>
        <path
            d="M22.6342 9.1074C22.1552 5.60087 19.304 3 15.9281 3H9.06241C5.69797 3 2.83535 5.60087 2.36775 9.1074C2.31072 9.50218 1.50098 15.2961 1.50098 15.7025C1.50098 17.5254 2.90378 19 4.63732 19C5.82342 19 6.90689 18.2917 7.44291 17.1771L9.35893 13.4035H15.643L17.559 17.1771C18.0951 18.2917 19.1785 19 20.3646 19C22.0982 19 23.501 17.5254 23.501 15.7025C23.501 15.2961 22.6912 9.50218 22.6342 9.1074ZM17.2055 5.40348C17.7871 5.40348 18.2547 5.87954 18.2547 6.4717C18.2547 7.06386 17.7871 7.53991 17.2055 7.53991C16.6238 7.53991 16.1562 7.06386 16.1562 6.4717C16.1562 5.87954 16.6238 5.40348 17.2055 5.40348ZM10.1345 9.39768H8.56059V11H6.98672V9.39768H5.41285V7.79536H6.98672V6.19303H8.56059V7.79536H10.1345V9.39768ZM15.107 9.66473C14.5253 9.66473 14.0577 9.18868 14.0577 8.59652C14.0577 8.00435 14.5253 7.5283 15.107 7.5283C15.6886 7.5283 16.1562 8.00435 16.1562 8.59652C16.1562 9.18868 15.6886 9.66473 15.107 9.66473ZM17.2055 11.8012C16.6238 11.8012 16.1562 11.3251 16.1562 10.7329C16.1562 10.1408 16.6238 9.66473 17.2055 9.66473C17.7871 9.66473 18.2547 10.1408 18.2547 10.7329C18.2547 11.3251 17.7871 11.8012 17.2055 11.8012ZM19.304 9.66473C18.7223 9.66473 18.2547 9.18868 18.2547 8.59652C18.2547 8.00435 18.7223 7.5283 19.304 7.5283C19.8856 7.5283 20.3532 8.00435 20.3532 8.59652C20.3532 9.18868 19.8856 9.66473 19.304 9.66473Z"
            fill="inherit" />
    </g>
</svg>