<svg width="21" height="21" viewBox="0 0 21 21"  xmlns="http://www.w3.org/2000/svg">
<g clip-path="url(#clip0_2878_63392)">
<path d="M10.5 14.1946C8.6216 14.1924 7.09937 12.6702 7.09714 10.7918V6.02786C7.09714 4.14834 8.62085 2.625 10.5 2.625C12.3791 2.625 13.9029 4.14834 13.9029 6.02786V10.7918C13.9006 12.6702 12.3784 14.1924 10.5 14.1946ZM16.625 10.7918C16.625 10.4159 16.3202 10.1111 15.9443 10.1111C15.5684 10.1111 15.2636 10.4159 15.2636 10.7918C15.2636 13.4227 13.1306 15.5557 10.4996 15.5557C7.86867 15.5557 5.73607 13.4227 5.73607 10.7918C5.73607 10.4159 5.43125 10.1111 5.05535 10.1111C4.67944 10.1111 4.375 10.4159 4.375 10.7918C4.375 14.1746 7.11724 16.9168 10.5 16.9168C13.8828 16.9168 16.625 14.1746 16.625 10.7918ZM11.1803 18.2779V16.2361C11.1803 15.8602 10.8755 15.5553 10.4996 15.5553C10.1237 15.5553 9.81891 15.8602 9.81891 16.2361V18.2779C9.81891 18.6538 10.1237 18.9586 10.4996 18.9586C10.8755 18.9586 11.1803 18.6538 11.1803 18.2779Z" />
</g>
<defs>
<clipPath id="clip0_2878_63392">
<rect width="12.25" height="16.3336"  transform="translate(4.375 2.625)"/>
</clipPath>
</defs>
</svg>
