<svg width="40" height="40" viewBox="0 0 40 40" fill="none" xmlns="http://www.w3.org/2000/svg">
<g clip-path="url(#clip0_5668_14084)">
<path d="M20 40C31.0457 40 40 31.0457 40 20C40 8.9543 31.0457 0 20 0C8.9543 0 0 8.9543 0 20C0 31.0457 8.9543 40 20 40Z" fill="#6DC0DB"/>
<path d="M25.0193 8.84375H14.9803C13.7529 8.84375 12.749 9.84766 12.749 11.075V28.9234C12.749 30.1508 13.7529 31.1547 14.9803 31.1547H25.0201C26.2475 31.1547 27.2514 30.1508 27.2514 28.9234V11.075C27.2514 9.84766 26.2475 8.84375 25.0201 8.84375H25.0193ZM20.5576 28.9234H19.442C18.8842 28.9234 18.3264 28.4773 18.3264 27.8078C18.3264 27.25 18.8842 26.6922 19.442 26.6922H20.5576C21.2271 26.6922 21.6732 27.25 21.6732 27.8078C21.6732 28.4773 21.2271 28.9234 20.5576 28.9234ZM25.0193 24.4617H14.9803V11.075H25.0201V24.4609L25.0193 24.4617Z" fill="white"/>
</g>
<defs>
<clipPath id="clip0_5668_14084">
<rect width="40" height="40" fill="white"/>
</clipPath>
</defs>
</svg>
