<svg width="24" height="24" viewBox="0 0 24 24" fill="inherit" xmlns="http://www.w3.org/2000/svg">
    <g>
        <path
            d="M21.65 9.56036L14 4.15036C13.76 3.98036 13.44 3.96036 13.18 4.09036C12.92 4.23036 12.75 4.50036 12.75 4.79036V7.28036C10.24 7.47036 7.88 8.55036 6.09 10.3404C4.1 12.3304 3 14.9804 3 17.7904V19.9604C3 20.4004 3.36 20.7504 3.79 20.7504C4.14 20.7504 4.45 20.5104 4.55 20.1804L4.63 19.8904C5.69 16.1904 8.93 13.5404 12.74 13.2104V15.6304C12.74 15.9304 12.9 16.2004 13.17 16.3304C13.43 16.4704 13.75 16.4504 13.99 16.2704L21.64 10.8504C21.85 10.7004 21.97 10.4604 21.97 10.2004C21.97 9.94036 21.85 9.70036 21.64 9.55036L21.65 9.56036ZM13.54 11.5804C12.35 11.5804 11.18 11.7704 10.06 12.1504C7.92 12.8804 6.07 14.2504 4.75 16.0704C5.56 11.9304 9.23 8.83036 13.54 8.83036C13.98 8.83036 14.33 8.47036 14.33 8.04036V6.32036L19.82 10.2004L14.33 14.0904V12.3704C14.33 11.9304 13.98 11.5804 13.54 11.5804Z"
            fill="inherit" />
    </g>
</svg>