<svg width="25" height="24" viewBox="0 0 25 24" fill="inherit" xmlns="http://www.w3.org/2000/svg">
    <path fill-rule="evenodd" clip-rule="evenodd"
        d="M7.25049 12C7.25049 12.2298 7.20522 12.4574 7.11728 12.6697C7.02933 12.882 6.90043 13.0749 6.73793 13.2374C6.57542 13.3999 6.3825 13.5288 6.17018 13.6168C5.95786 13.7047 5.7303 13.75 5.50049 13.75C5.27067 13.75 5.04311 13.7047 4.83079 13.6168C4.61847 13.5288 4.42555 13.3999 4.26305 13.2374C4.10055 13.0749 3.97164 12.882 3.8837 12.6697C3.79575 12.4574 3.75049 12.2298 3.75049 12C3.75049 11.5359 3.93486 11.0908 4.26305 10.7626C4.59124 10.4344 5.03636 10.25 5.50049 10.25C5.96462 10.25 6.40974 10.4344 6.73793 10.7626C7.06611 11.0908 7.25049 11.5359 7.25049 12ZM21.2505 12C21.2505 12.4641 21.0661 12.9092 20.7379 13.2374C20.4097 13.5656 19.9646 13.75 19.5005 13.75C19.0364 13.75 18.5912 13.5656 18.2631 13.2374C17.9349 12.9092 17.7505 12.4641 17.7505 12C17.7505 11.5359 17.9349 11.0908 18.2631 10.7626C18.5912 10.4344 19.0364 10.25 19.5005 10.25C19.9646 10.25 20.4097 10.4344 20.7379 10.7626C21.0661 11.0908 21.2505 11.5359 21.2505 12ZM12.5005 13.75C12.9646 13.75 13.4097 13.5656 13.7379 13.2374C14.0661 12.9092 14.2505 12.4641 14.2505 12C14.2505 11.5359 14.0661 11.0908 13.7379 10.7626C13.4097 10.4344 12.9646 10.25 12.5005 10.25C12.0364 10.25 11.5912 10.4344 11.2631 10.7626C10.9349 11.0908 10.7505 11.5359 10.7505 12C10.7505 12.4641 10.9349 12.9092 11.2631 13.2374C11.5912 13.5656 12.0364 13.75 12.5005 13.75Z"
        fill="inherit" />
</svg>