<svg width="24" height="24" viewBox="0 0 24 24" fill="inherit" xmlns="http://www.w3.org/2000/svg">
    <g>
        <path
            d="M18.3023 10.6045C18.6849 10.6045 19 10.2894 19 9.90675V7.80225C19 7.41961 18.6849 7.1045 18.3023 7.1045H16.1977C15.8151 7.1045 15.5 7.41961 15.5 7.80225C15.5 8.18489 15.8151 8.5 16.1977 8.5H16.6029L12.6977 12.4051L11.0884 10.7958C10.8183 10.5257 10.3682 10.5257 10.0981 10.7958L6.3955 14.4984V5.69775C6.3955 5.31511 6.08039 5 5.69775 5C5.31511 5 5 5.31511 5 5.69775V16.8955C5 18.0547 5.94534 19 7.1045 19H18.3023C18.6849 19 19 18.6849 19 18.3023C19 17.9196 18.6849 17.6045 18.3023 17.6045H7.1045C6.72187 17.6045 6.40675 17.2894 6.40675 16.9068V16.5016L10.6045 12.3039L12.2138 13.9132C12.4839 14.1833 12.9341 14.1833 13.2042 13.9132L17.6045 9.51286V9.91801C17.6045 10.3006 17.9196 10.6158 18.3023 10.6158V10.6045Z"
            fill="inherit" />
    </g>
</svg>