<svg viewBox="0 0 30 30" fill="none" xmlns="http://www.w3.org/2000/svg">
    <g>
        <path
            d="M22.4375 6.94981C18.175 2.6873 11.225 2.6873 6.9625 6.94981C4.8875 9.02481 3.75 11.7623 3.75 14.6873C3.75 17.6123 4.8875 20.3623 6.9625 22.4248C9.1 24.5623 11.9 25.6248 14.7 25.6248C17.5 25.6248 20.3 24.5623 22.4375 22.4248C26.7 18.1623 26.7 11.2123 22.4375 6.94981ZM14.7 23.7248C9.725 23.7248 5.6625 19.6748 5.6625 14.6873C5.6625 9.69981 9.7125 5.66231 14.7 5.66231C19.6875 5.66231 23.7375 9.71231 23.7375 14.6998C23.7375 19.6873 19.6875 23.7373 14.7 23.7373V23.7248Z"
            fill="white" />
        <path
            d="M16.5123 10.5498C15.9873 10.5498 15.5498 10.9748 15.5498 11.5123V17.8623C15.5498 18.3873 15.9748 18.8123 16.5123 18.8123C17.0498 18.8123 17.4623 18.3873 17.4623 17.8623V11.5123C17.4623 10.9873 17.0373 10.5498 16.5123 10.5498Z"
            fill="white" />
        <path
            d="M12.8875 10.5498C12.3625 10.5498 11.9375 10.9748 11.9375 11.5123V17.8623C11.9375 18.3873 12.3625 18.8123 12.8875 18.8123C13.4125 18.8123 13.8375 18.3873 13.8375 17.8623V11.5123C13.8375 10.9873 13.4125 10.5498 12.8875 10.5498Z"
            fill="white" />
    </g>
</svg>