<svg width="24" height="24" viewBox="0 0 24 24"  xmlns="http://www.w3.org/2000/svg">
<path d="M10.6452 5.89929C11.0252 6.27896 11.5243 6.46875 12.0235 6.46875C12.5226 6.46875 13.0218 6.27896 13.4018 5.89929L14.991 4.31157C15.3595 3.94331 15.5625 3.45361 15.5625 2.93271C15.5625 2.4118 15.3595 1.92206 14.991 1.55385C14.2309 0.794551 12.9944 0.794551 12.2344 1.55385L12.0235 1.76451L11.8126 1.55385C11.0525 0.794551 9.81596 0.794551 9.05594 1.55385C8.68737 1.92211 8.48438 2.4118 8.48438 2.93271C8.48438 3.45361 8.68737 3.94335 9.05594 4.31157L10.6452 5.89929ZM9.96725 2.46794C10.096 2.33931 10.2652 2.27496 10.4343 2.27496C10.6035 2.27496 10.7726 2.33927 10.9014 2.46794L11.5679 3.13382C11.8197 3.38538 12.2274 3.38538 12.4792 3.13382L13.1457 2.46794C13.4033 2.21065 13.8222 2.21065 14.0798 2.46794C14.2041 2.59217 14.2725 2.75721 14.2725 2.93271C14.2725 3.10821 14.2041 3.27325 14.0798 3.39748L12.4906 4.9852C12.233 5.24245 11.8141 5.24249 11.5565 4.9852L9.9673 3.39748C9.84296 3.27325 9.7745 3.10821 9.7745 2.93271C9.7745 2.75721 9.84292 2.59217 9.96725 2.46794Z" />
<path d="M20.5367 11.2134C20.0005 10.3124 19.2435 9.45199 18.7313 8.99902C17.4802 7.89263 16.3825 7.93177 15.8393 8.0536C15.5489 8.11874 15.2804 8.237 15.0493 8.39879C14.208 7.82701 13.2036 7.54688 12.0087 7.54688C10.7868 7.54688 9.76409 7.83981 8.91137 8.43798C8.68931 8.28994 8.43485 8.18114 8.16075 8.11969C7.61767 7.99782 6.51973 7.95872 5.26882 9.06503C4.75646 9.51808 3.99947 10.3785 3.46335 11.2795C2.65936 12.6307 2.50557 13.7689 3.00629 14.6627C3.592 15.7079 4.50779 15.9935 5.14498 16.0715C5.05225 16.5466 4.99687 17.0655 4.99687 17.6703C4.99687 18.7867 5.25739 19.7563 5.77112 20.5524C6.22732 21.2592 6.87813 21.8223 7.70545 22.226C9.15595 22.9338 10.8561 23.0156 12.0087 23.0156C13.1613 23.0156 14.8614 22.9338 16.3119 22.226C17.1393 21.8223 17.7901 21.2592 18.2462 20.5524C18.7601 19.7565 19.0205 18.7868 19.0205 17.6703C19.0205 17.0372 18.9599 16.4982 18.8591 16.0049C19.4961 15.9262 20.4092 15.6396 20.9937 14.5966C21.4944 13.7029 21.3406 12.5647 20.5367 11.2134ZM5.80184 13.961C5.69356 14.2488 5.58893 14.5267 5.49303 14.8064C4.91093 14.7765 4.45335 14.6084 4.13061 14.0325C3.80779 13.4562 4.19184 12.5759 4.57087 11.9389C5.0333 11.1617 5.69932 10.4051 6.12248 10.0309C6.94426 9.30412 7.5756 9.30967 7.87866 9.37769C7.88614 9.37937 7.89357 9.38113 7.90096 9.38293C7.1072 10.3481 6.63368 11.5647 6.24086 12.7431C6.08987 13.1959 5.94351 13.5847 5.80184 13.961ZM12.523 17.4713C12.3466 17.6472 12.1351 17.7701 12.0087 17.7701C11.8822 17.7701 11.6707 17.6473 11.4944 17.4713C11.3173 17.2947 11.1937 17.0808 11.1937 16.9511C11.1937 16.8401 11.2279 16.8069 11.3046 16.7747C11.4335 16.7206 11.6506 16.6964 12.0087 16.6964C12.3668 16.6964 12.5839 16.7206 12.7129 16.7747C12.7895 16.807 12.8237 16.8401 12.8237 16.9511C12.8237 17.0808 12.7 17.2947 12.523 17.4713ZM17.1634 19.8531C16.8365 20.3596 16.3599 20.7681 15.7468 21.0673C14.7708 21.5435 13.6053 21.6803 12.6531 21.7154V18.9231C12.9989 18.7775 13.2711 18.5457 13.4332 18.3841C13.687 18.1309 14.1126 17.6082 14.1126 16.9511C14.1126 16.3332 13.7759 15.823 13.2118 15.586C12.9094 15.459 12.5608 15.4072 12.0087 15.4072C11.4565 15.4072 11.108 15.4591 10.8056 15.586C10.2415 15.8229 9.90477 16.3332 9.90477 16.9511C9.90477 17.6081 10.3304 18.1309 10.5842 18.3841C10.7462 18.5457 11.0184 18.7775 11.3643 18.9231V21.7153C10.4121 21.6802 9.24657 21.5435 8.27058 21.0672C7.6575 20.7681 7.18089 20.3596 6.85398 19.8531C6.47693 19.2689 6.28576 18.5345 6.28576 17.6703C6.28576 16.3347 6.58878 15.5295 7.00824 14.415C7.15403 14.0276 7.30481 13.627 7.46362 13.1509C7.83694 12.0311 8.28295 10.8824 9.01252 10.0664C9.7631 9.22699 10.7152 8.83603 12.0087 8.83603C13.3022 8.83603 14.2543 9.22699 15.0049 10.0664C15.7346 10.8824 16.1805 12.0311 16.5538 13.1509C16.7118 13.6248 16.8625 14.0254 17.0092 14.415C17.4286 15.5295 17.7316 16.3346 17.7316 17.6703C17.7316 18.5346 17.5405 19.269 17.1634 19.8531ZM19.8693 13.9663C19.5456 14.5441 19.0862 14.7114 18.5015 14.7406C18.4117 14.4824 18.3147 14.2248 18.2146 13.9587C18.073 13.5826 17.9267 13.1937 17.7765 12.7432C17.3758 11.5411 16.8912 10.2992 16.0681 9.32492C16.0855 9.32007 16.1033 9.3156 16.1213 9.31156C16.4245 9.24366 17.0557 9.23803 17.8776 9.96486C18.3006 10.3389 18.9667 11.0956 19.4291 11.8727C19.8082 12.5098 20.1922 13.3901 19.8693 13.9663Z" />
<path d="M10.2656 12C9.9032 12 9.60938 12.2874 9.60938 12.642V13.608C9.60938 13.9626 9.9032 14.25 10.2656 14.25C10.6281 14.25 10.9219 13.9626 10.9219 13.608V12.642C10.9219 12.2874 10.6281 12 10.2656 12Z" />
<path d="M13.7344 12C13.3719 12 13.0781 12.2874 13.0781 12.642V13.608C13.0781 13.9626 13.3719 14.25 13.7344 14.25C14.0968 14.25 14.3906 13.9626 14.3906 13.608V12.642C14.3907 12.2874 14.0968 12 13.7344 12Z" />
</svg>
