<svg viewBox="0 0 34 34" fill="none" xmlns="http://www.w3.org/2000/svg">
    <path fill-rule="evenodd" clip-rule="evenodd"
        d="M10.2278 10.2278C10.5315 9.92406 11.024 9.92406 11.3277 10.2278L17 15.9001L22.6723 10.2278C22.976 9.92406 23.4685 9.92406 23.7722 10.2278C24.0759 10.5315 24.0759 11.024 23.7722 11.3277L18.0999 17L23.7722 22.6723C24.0759 22.976 24.0759 23.4685 23.7722 23.7722C23.4685 24.0759 22.976 24.0759 22.6723 23.7722L17 18.0999L11.3277 23.7722C11.024 24.0759 10.5315 24.0759 10.2278 23.7722C9.92406 23.4685 9.92406 22.976 10.2278 22.6723L15.9001 17L10.2278 11.3277C9.92406 11.024 9.92406 10.5315 10.2278 10.2278Z"
        fill="inherit" />
</svg>