<svg viewBox="0 0 10 11" xmlns="http://www.w3.org/2000/svg">
    <g>
        <path
            d="M9.00433 4.15365L6.29183 1.44531C6.146 1.29948 5.91266 1.29948 5.76683 1.44531C5.696 1.51615 5.6585 1.60781 5.6585 1.70781C5.6585 1.80781 5.696 1.89948 5.76683 1.97031L5.95433 2.15781L4.31266 3.79948C3.89183 3.72031 3.45016 3.73698 3.0335 3.84115C2.52933 3.97031 2.06683 4.23698 1.70016 4.60365C1.62933 4.67448 1.59183 4.76615 1.59183 4.86615C1.59183 4.96615 1.62933 5.05781 1.70016 5.12865L3.24183 6.67031L0.941829 8.97865C0.870996 9.04948 0.833496 9.14115 0.833496 9.24115C0.833496 9.34115 0.870996 9.43281 0.941829 9.50365C1.01266 9.57448 1.10433 9.61198 1.20433 9.61198C1.30433 9.61198 1.396 9.57448 1.46683 9.50365L3.771 7.19948L5.31266 8.74115C5.3835 8.81198 5.47516 8.84948 5.57516 8.84948C5.67516 8.84948 5.76683 8.81198 5.83766 8.74115C6.2085 8.37031 6.471 7.90781 6.60016 7.40781C6.7085 6.99531 6.721 6.55365 6.64183 6.12865L8.2835 4.48698L8.471 4.67448C8.54183 4.74531 8.6335 4.78281 8.7335 4.78281C8.8335 4.78281 8.92516 4.74531 8.996 4.67448C9.14183 4.52865 9.14183 4.29531 8.996 4.14948L9.00433 4.15365ZM5.8835 6.10781C5.97933 6.47031 5.9835 6.85781 5.88766 7.22031C5.821 7.47448 5.71266 7.71615 5.5585 7.93281L4.03766 6.41198L2.51683 4.89115C2.7335 4.73698 2.971 4.62865 3.22516 4.56198C3.59183 4.46615 3.97516 4.47031 4.33766 4.56615C4.46266 4.59948 4.60016 4.56615 4.696 4.47031L6.4835 2.68281L7.76266 3.96198L5.97933 5.74531C5.88766 5.83698 5.85016 5.97448 5.8835 6.10365V6.10781Z"
            fill="inherit" />
    </g>
</svg>