<svg viewBox="0 0 30 30" fill="none" xmlns="http://www.w3.org/2000/svg">
    <g>
        <path
            d="M22.4375 6.95005C18.175 2.68755 11.225 2.68755 6.9625 6.95005C4.8875 9.02505 3.75 11.7626 3.75 14.6876C3.75 17.6126 4.8875 20.3626 6.9625 22.4251C9.1 24.5626 11.9 25.625 14.7 25.625C17.5 25.625 20.3 24.5626 22.4375 22.4251C26.7 18.1625 26.7 11.2125 22.4375 6.95005ZM14.7 23.725C9.725 23.725 5.6625 19.6751 5.6625 14.6876C5.6625 9.70005 9.7125 5.66255 14.7 5.66255C19.6875 5.66255 23.7375 9.71255 23.7375 14.7001C23.7375 19.6876 19.6875 23.7376 14.7 23.7376V23.725Z"
            fill="white" />
        <path
            d="M12.8877 10.3751C12.2502 10.0001 11.4502 10.4626 11.4502 11.2126V18.1876C11.4502 18.9251 12.2502 19.3876 12.8877 19.0251L18.9252 15.5376C19.5627 15.1626 19.5627 14.2376 18.9252 13.8751L12.8877 10.3876V10.3751Z"
            fill="white" />
    </g>
</svg>