<svg viewBox="0 0 30 31" fill="none" xmlns="http://www.w3.org/2000/svg">
<path fill-rule="evenodd" clip-rule="evenodd" d="M15 1.81961C15.6136 1.81961 16.1111 2.31707 16.1111 2.93072L16.1111 14.3904L27.5708 14.3904C28.1844 14.3904 28.6819 14.8879 28.6819 15.5015C28.6819 16.1152 28.1844 16.6126 27.5708 16.6126L16.1111 16.6126L16.1111 28.0723C16.1111 28.6859 15.6137 29.1834 15 29.1834C14.3863 29.1834 13.8889 28.6859 13.8889 28.0723L13.8889 16.6126L2.42921 16.6126C1.81556 16.6126 1.3181 16.1152 1.3181 15.5015C1.3181 14.8879 1.81556 14.3904 2.42921 14.3904L13.8889 14.3904L13.8889 2.93072C13.8889 2.31707 14.3864 1.81961 15 1.81961Z" fill="white"/>
</svg>
