<svg width="19" height="18" viewBox="0 0 19 18" xmlns="http://www.w3.org/2000/svg">
<path fill-rule="evenodd" clip-rule="evenodd" d="M9.29298 0.749516C9.43026 0.709453 9.57613 0.709472 9.7134 0.74957L16.3225 2.68021C16.6423 2.77365 16.8622 3.06691 16.8622 3.40013V7.35941C16.8622 11.8438 13.9924 15.8249 9.73798 17.2424C9.5841 17.2937 9.41775 17.2937 9.26387 17.2425C5.00838 15.8249 2.1377 11.843 2.1377 7.35758V3.40013C2.1377 3.06684 2.35764 2.77353 2.67758 2.68016L9.29298 0.749516ZM3.6377 3.96253V7.35758C3.6377 11.1133 5.98888 14.4567 9.50086 15.7367C13.0118 14.4567 15.3622 11.1142 15.3622 7.35941V3.96238L9.503 2.2508L3.6377 3.96253ZM13.7037 6.08201C13.9966 6.3749 13.9966 6.84978 13.7037 7.14267L9.29558 11.5508C9.15492 11.6915 8.96416 11.7705 8.76525 11.7705C8.56633 11.7705 8.37557 11.6915 8.23492 11.5508L5.66349 8.9794C5.37059 8.68651 5.37059 8.21164 5.66349 7.91874C5.95638 7.62585 6.43125 7.62585 6.72415 7.91874L8.76525 9.95984L12.6431 6.08201C12.936 5.78912 13.4108 5.78912 13.7037 6.08201Z" />
</svg>
