<svg width="15" height="16" viewBox="0 0 15 16" fill="none" xmlns="http://www.w3.org/2000/svg">
    <rect y="0.5" width="15" height="15" rx="7.5" fill="#FF6B4D" />
    <g>
        <path
            d="M10.9236 7.18335C10.8961 6.35377 10.2178 5.70752 9.37442 5.70752H5.98275C5.13942 5.70752 4.46109 6.35835 4.43359 7.18335L4.2915 10.905V10.9509C4.2915 11.7942 4.98817 12.4817 5.84067 12.4817H9.56692C9.97484 12.4817 10.369 12.3029 10.6578 11.9959C10.9465 11.6796 11.0932 11.29 11.0703 10.9004L10.9282 7.18335H10.9236ZM10.2086 7.1971L10.3507 10.9096C10.3507 11.125 10.2728 11.3313 10.1261 11.4917C9.97942 11.6567 9.77317 11.7484 9.56692 11.7484H5.84067C5.39609 11.7484 5.02942 11.3909 5.02942 10.9554L5.1715 7.19252C5.18984 6.78919 5.51525 6.46835 5.91859 6.44085H9.40192C9.85109 6.44085 10.1903 6.7571 10.2132 7.1971H10.2086Z"
            fill="white" />
        <path
            d="M7.67861 8.97104C8.67778 8.97104 9.46153 8.19645 9.46153 7.21103C9.46153 7.10562 9.42486 7.01395 9.35611 6.94979C9.2232 6.81687 8.96195 6.81687 8.82445 6.94979C8.7557 7.01395 8.71903 7.1102 8.71903 7.21103C8.71903 7.78853 8.2607 8.24228 7.67403 8.24228C7.08736 8.24228 6.62903 7.78853 6.62903 7.21103C6.62903 7.10562 6.59236 7.01395 6.52361 6.94979C6.3907 6.81687 6.12945 6.81687 5.99653 6.94979C5.92778 7.01854 5.89111 7.1102 5.89111 7.21103C5.89111 8.19645 6.67486 8.97104 7.67403 8.97104H7.67861Z"
            fill="white" />
        <path
            d="M5.54271 5.25872C5.61604 5.33206 5.71229 5.37331 5.81771 5.37331C5.92312 5.37331 6.01937 5.33206 6.09271 5.25872C6.24396 5.10747 6.24396 4.85997 6.09271 4.70872L5.24937 3.86539C5.09812 3.71414 4.85063 3.71414 4.69937 3.86539C4.54812 4.01664 4.54812 4.26414 4.69937 4.41539L5.54271 5.25872Z"
            fill="white" />
        <path
            d="M9.53932 5.37331C9.64473 5.37331 9.74098 5.33206 9.81432 5.25872L10.6576 4.41539C10.8089 4.26414 10.8089 4.01664 10.6576 3.86539C10.5064 3.71414 10.2589 3.71414 10.1076 3.86539L9.26432 4.70872C9.11307 4.85997 9.11307 5.10747 9.26432 5.25872C9.33765 5.33206 9.4339 5.37331 9.53932 5.37331Z"
            fill="white" />
        <path
            d="M7.67865 4.88734C7.89406 4.88734 8.06823 4.71317 8.06823 4.49775V3.30609C8.06823 3.09067 7.89406 2.9165 7.67865 2.9165C7.46323 2.9165 7.28906 3.09067 7.28906 3.30609V4.49775C7.28906 4.71317 7.46323 4.88734 7.67865 4.88734Z"
            fill="white" />
    </g>
</svg>