<svg width="15" height="16" viewBox="0 0 15 16" fill="none" xmlns="http://www.w3.org/2000/svg">
    <rect y="0.5" width="15" height="15" rx="7.5" fill="#64BE3C" />
    <g>
        <path
            d="M11.2462 4.01672C11.2462 3.87158 11.1286 3.75391 10.9834 3.75391C10.956 3.75391 10.9285 3.75391 10.901 3.75391C9.48499 3.75391 7.90418 4.49528 6.88039 5.61714C5.8762 5.64852 4.93478 6.04862 4.21694 6.76646C4.14242 6.84099 4.11888 6.9469 4.15026 7.04496C4.18164 7.14303 4.26794 7.21363 4.36993 7.22932L5.31527 7.36662C5.22505 7.47253 5.22897 7.63335 5.33096 7.73142L7.27264 9.6731C7.32364 9.72409 7.39032 9.75155 7.46485 9.75155C7.53154 9.75155 7.59038 9.72802 7.64137 9.68487L7.77866 10.6302C7.79435 10.7283 7.86496 10.8107 7.96694 10.842C7.99048 10.8499 8.01794 10.8538 8.04932 10.8538C8.12385 10.8538 8.19838 10.8224 8.25329 10.7714C8.96328 10.0614 9.36731 9.12002 9.39477 8.11975C10.5441 7.07242 11.2933 5.44847 11.258 4.01672H11.2462ZM8.77108 8.67284C8.67693 9.13178 8.49649 9.57111 8.22191 9.95945L8.11993 9.25731L8.77108 8.67676V8.67284ZM8.90837 7.82164L7.46877 9.10432L5.88797 7.52352L6.02526 7.36662L7.17458 6.08C8.05716 5.06013 9.43399 4.36191 10.701 4.29522C10.6382 5.56222 9.93609 6.94298 8.90837 7.82164ZM5.74676 6.87629L5.04069 6.7743C5.42903 6.4958 5.86443 6.31536 6.3273 6.22514L5.74676 6.87629Z"
            fill="white" />
        <path
            d="M9.66153 5.33889C9.50855 5.18591 9.30457 5.09961 9.08883 5.09961C8.87309 5.09961 8.66911 5.18591 8.51613 5.33889C8.1984 5.65662 8.1984 6.17048 8.51613 6.48821C8.66911 6.64119 8.87309 6.72749 9.08883 6.72749C9.30457 6.72749 9.50855 6.64511 9.66153 6.48821C9.97926 6.17048 9.97926 5.65662 9.66153 5.33889ZM9.27711 6.10379C9.17513 6.20578 8.99861 6.20578 8.89662 6.10379C8.79071 5.99788 8.79071 5.82529 8.89662 5.7233C8.94762 5.67231 9.0143 5.64485 9.08883 5.64485C9.16336 5.64485 9.23004 5.67231 9.28104 5.7233C9.38695 5.82921 9.38695 6.00181 9.28104 6.10379H9.27711Z"
            fill="white" />
        <path
            d="M5.28742 8.7041C5.01284 8.7041 4.75395 8.81001 4.56959 8.99045C4.24401 9.31995 3.83998 10.6379 3.76153 10.9008C3.73407 10.9949 3.76153 11.1008 3.82822 11.1714C3.87921 11.2224 3.94982 11.2499 4.02042 11.2499C4.04788 11.2499 4.07142 11.2499 4.09888 11.2381C4.36169 11.1596 5.6836 10.7517 6.00526 10.43C6.19746 10.2378 6.30337 9.98287 6.30337 9.71221C6.30337 9.44155 6.19746 9.18658 6.00526 8.99437C5.82089 8.81001 5.562 8.70802 5.28742 8.70802V8.7041ZM5.62084 10.0456C5.51493 10.1515 5.06383 10.3477 4.44014 10.5595C4.65196 9.93187 4.84809 9.4847 4.954 9.37879C5.04422 9.28857 5.1619 9.2415 5.28742 9.2415C5.41294 9.2415 5.53062 9.28857 5.62084 9.37879C5.8052 9.56315 5.8052 9.86127 5.62084 10.0496V10.0456Z"
            fill="white" />
    </g>
</svg>