<svg viewBox="0 0 36 36" fill="none" xmlns="http://www.w3.org/2000/svg">
<rect x="0.500488" width="36" height="36" rx="18" fill="#080808" fill-opacity="0.3"/>
<g clip-path="url(#clip0_7029_55033)">
<path d="M25.766 15.0225L22.1883 11.4448C21.8932 11.1497 21.5938 11 21.2983 11C20.8927 11 20.4195 11.3084 20.4195 12.1776V13.3957C17.8204 13.509 15.3929 14.5749 13.5414 16.4264C11.5806 18.3869 10.5005 20.9937 10.5005 23.767C10.5005 23.9661 10.628 24.1433 10.8169 24.2062C10.865 24.2223 10.9144 24.23 10.9635 24.23C11.1064 24.23 11.2447 24.1636 11.3336 24.0451C13.5198 21.1351 16.811 19.4154 20.4195 19.2799V20.4791C20.4195 21.3481 20.893 21.6568 21.2983 21.6568C21.5938 21.6568 21.8932 21.5071 22.1883 21.212L25.766 17.6343C26.1139 17.2867 26.3052 16.8231 26.3052 16.3285C26.3052 15.834 26.1139 15.3704 25.766 15.0228V15.0225Z" fill="white"/>
</g>
<defs>
<clipPath id="clip0_7029_55033">
<rect width="15.8048" height="13.23" fill="white" transform="translate(10.5005 11)"/>
</clipPath>
</defs>
</svg>
