<svg viewBox="0 0 16 16" fill="inherit" xmlns="http://www.w3.org/2000/svg">
    <path fill-rule="evenodd" clip-rule="evenodd"
        d="M0.666992 7.00033C0.666992 3.50254 3.50254 0.666992 7.00033 0.666992C10.4981 0.666992 13.3337 3.50254 13.3337 7.00033C13.3337 8.50908 12.8061 9.89463 11.9253 10.9825L14.3741 13.4313C14.6344 13.6916 14.6344 14.1137 14.3741 14.3741C14.1137 14.6344 13.6916 14.6344 13.4313 14.3741L10.9825 11.9253C9.89463 12.8061 8.50908 13.3337 7.00033 13.3337C3.50254 13.3337 0.666992 10.4981 0.666992 7.00033ZM7.00033 2.00033C4.23892 2.00033 2.00033 4.23892 2.00033 7.00033C2.00033 9.76174 4.23892 12.0003 7.00033 12.0003C9.76174 12.0003 12.0003 9.76174 12.0003 7.00033C12.0003 4.23892 9.76174 2.00033 7.00033 2.00033Z"
        fill="inherit" />
</svg>