<svg viewBox="0 0 20 20" fill="inherit" xmlns="http://www.w3.org/2000/svg">
    <g>
        <path
            d="M16.0546 7.51858L13.0732 4.53719C12.8273 4.29126 12.5777 4.1665 12.3316 4.1665C11.9935 4.1665 11.5992 4.42349 11.5992 5.14787V6.16293C9.43325 6.25734 7.41032 7.14559 5.8674 8.68851C4.23342 10.3222 3.33334 12.4946 3.33334 14.8056C3.33334 14.9716 3.43958 15.1192 3.59701 15.1717C3.63714 15.1851 3.6783 15.1915 3.7192 15.1915C3.8383 15.1915 3.95355 15.1362 4.02763 15.0374C5.8494 12.6124 8.59208 11.1793 11.5992 11.0664L11.5992 12.0658C11.5992 12.7899 11.9938 13.0472 12.3316 13.0472C12.5777 13.0472 12.8273 12.9224 13.0732 12.6765L16.0546 9.69508C16.3445 9.40543 16.504 9.01906 16.504 8.60696C16.504 8.19486 16.3445 7.80849 16.0546 7.51884V7.51858Z"
            fill="inherit" />
    </g>
</svg>