<svg width="32" height="32" viewBox="0 0 32 32" fill="none" xmlns="http://www.w3.org/2000/svg">
<path fill-rule="evenodd" clip-rule="evenodd" d="M16.0001 0C7.16347 0 0 7.16344 0 16C0 24.8366 7.16347 32 16.0001 32C24.8367 32 32.0001 24.8366 32.0001 16C32.0001 7.16344 24.8367 0 16.0001 0ZM12.4822 7.51822C13.3925 7.4768 13.6833 7.46667 16.0009 7.46667H15.9982C18.3165 7.46667 18.6062 7.4768 19.5165 7.51822C20.4249 7.55982 21.0454 7.70365 21.5894 7.91467C22.1512 8.13245 22.6258 8.42401 23.1005 8.89868C23.5752 9.373 23.8668 9.84909 24.0854 10.4103C24.2952 10.9529 24.4392 11.573 24.4819 12.4815C24.5228 13.3917 24.5334 13.6826 24.5334 16.0001C24.5334 18.3176 24.5228 18.6078 24.4819 19.518C24.4392 20.4261 24.2952 21.0464 24.0854 21.5891C23.8668 22.1502 23.5752 22.6263 23.1005 23.1006C22.6264 23.5753 22.151 23.8675 21.5899 24.0855C21.047 24.2965 20.4262 24.4403 19.5177 24.482C18.6075 24.5234 18.3175 24.5335 15.9998 24.5335C13.6824 24.5335 13.3918 24.5234 12.4815 24.482C11.5732 24.4403 10.953 24.2965 10.41 24.0855C9.84913 23.8675 9.37303 23.5753 8.89889 23.1006C8.4244 22.6263 8.13284 22.1502 7.9147 21.5889C7.70385 21.0464 7.56003 20.4263 7.51825 19.5178C7.47701 18.6076 7.4667 18.3176 7.4667 16.0001C7.4667 13.6826 7.47736 13.3915 7.51807 12.4813C7.55896 11.5732 7.70297 10.9529 7.91452 10.4102C8.13319 9.84909 8.42475 9.373 8.89943 8.89868C9.37374 8.42419 9.84984 8.13263 10.4111 7.91467C10.9537 7.70365 11.5738 7.55982 12.4822 7.51822Z" fill="#080808"/>
<path fill-rule="evenodd" clip-rule="evenodd" d="M15.2353 9.00213C15.3839 9.0019 15.5438 9.00197 15.7164 9.00205L16.0008 9.00213C18.2792 9.00213 18.5493 9.01031 19.449 9.0512C20.281 9.08925 20.7326 9.22827 21.0334 9.34507C21.4316 9.49974 21.7155 9.68463 22.014 9.9833C22.3127 10.282 22.4976 10.5664 22.6526 10.9646C22.7694 11.2651 22.9086 11.7167 22.9465 12.5487C22.9874 13.4482 22.9963 13.7184 22.9963 15.9958C22.9963 18.2732 22.9874 18.5434 22.9465 19.443C22.9084 20.275 22.7694 20.7265 22.6526 21.027C22.4979 21.4252 22.3127 21.7088 22.014 22.0072C21.7154 22.3059 21.4318 22.4908 21.0334 22.6455C20.7329 22.7628 20.281 22.9015 19.449 22.9395C18.5494 22.9804 18.2792 22.9893 16.0008 22.9893C13.7222 22.9893 13.4521 22.9804 12.5526 22.9395C11.7205 22.9011 11.269 22.7621 10.968 22.6453C10.5698 22.4906 10.2853 22.3057 9.98665 22.0071C9.68798 21.7084 9.50309 21.4247 9.34807 21.0263C9.23126 20.7258 9.09206 20.2743 9.05419 19.4422C9.0133 18.5427 9.00513 18.2725 9.00513 15.9937C9.00513 13.7149 9.0133 13.4461 9.05419 12.5465C9.09224 11.7145 9.23126 11.263 9.34807 10.9622C9.50273 10.5639 9.68798 10.2795 9.98665 9.98081C10.2853 9.68214 10.5698 9.49725 10.968 9.34223C11.2688 9.22489 11.7205 9.08622 12.5526 9.048C13.3398 9.01244 13.6448 9.00178 15.2353 9V9.00213ZM20.5559 10.419C19.9905 10.419 19.5319 10.8772 19.5319 11.4427C19.5319 12.008 19.9905 12.4667 20.5559 12.4667C21.1212 12.4667 21.5799 12.008 21.5799 11.4427C21.5799 10.8774 21.1212 10.4187 20.5559 10.4187V10.419ZM11.6185 15.9978C11.6185 13.5777 13.5806 11.6156 16.0006 11.6155C18.4207 11.6155 20.3824 13.5776 20.3824 15.9978C20.3824 18.4179 18.4209 20.3791 16.0008 20.3791C13.5807 20.3791 11.6185 18.4179 11.6185 15.9978Z" fill="#080808"/>
<path d="M16.001 13.1562C17.5718 13.1562 18.8455 14.4297 18.8455 16.0007C18.8455 17.5716 17.5718 18.8452 16.001 18.8452C14.4299 18.8452 13.1565 17.5716 13.1565 16.0007C13.1565 14.4297 14.4299 13.1562 16.001 13.1562Z" fill="#080808"/>
</svg>
