<svg width="32" height="32" viewBox="0 0 32 32" fill="none" xmlns="http://www.w3.org/2000/svg">
<path fill-rule="evenodd" clip-rule="evenodd" d="M16 0C7.16344 0 0 7.16344 0 16C0 24.8366 7.16344 32 16 32C24.8366 32 32 24.8366 32 16C32 7.16344 24.8366 0 16 0ZM16.2666 7.46667C21.7073 7.46667 26.1333 11.0326 26.1333 15.4158C26.1333 17.1701 25.4484 18.7499 24.0185 20.3066H24.0189C21.9489 22.6721 17.3197 25.5532 16.2666 25.9937C15.2432 26.422 15.3614 25.7527 15.4082 25.4875C15.4095 25.4799 15.4108 25.4726 15.412 25.4657C15.437 25.3185 15.5527 24.6273 15.5527 24.6273C15.586 24.3771 15.6205 23.9892 15.521 23.7415C15.4103 23.4688 14.973 23.3272 14.6517 23.2585C9.91016 22.6362 6.4 19.3453 6.4 15.4158C6.4 11.0326 10.8266 7.46667 16.2666 7.46667Z" fill="#080808"/>
<path d="M14.2095 13.3359H13.5238C13.4187 13.3359 13.3333 13.4242 13.3333 13.5325V17.9393C13.3333 18.0479 13.4187 18.1359 13.5238 18.1359H14.2095C14.3147 18.1359 14.3999 18.0479 14.3999 17.9393V13.5325C14.3999 13.4242 14.3147 13.3359 14.2095 13.3359Z" fill="#080808"/>
<path d="M18.9996 13.3359H18.2778C18.1671 13.3359 18.0773 13.4242 18.0773 13.5325V16.1506L16.0225 13.4234C16.0178 13.4164 16.0124 13.4098 16.0069 13.4034L16.0055 13.4022C16.0016 13.3978 15.9976 13.3939 15.9935 13.39C15.9923 13.3889 15.9911 13.3879 15.9898 13.3867C15.9864 13.3836 15.9829 13.3807 15.9791 13.378C15.9775 13.3765 15.9758 13.3753 15.974 13.3739C15.9704 13.3716 15.9671 13.3691 15.9635 13.367C15.9615 13.3656 15.9596 13.3644 15.9574 13.3635C15.9539 13.3613 15.9503 13.3592 15.9468 13.3575C15.9446 13.3565 15.9426 13.3553 15.9404 13.3545C15.9367 13.3528 15.9329 13.3511 15.929 13.3497C15.9266 13.3489 15.9247 13.3482 15.9225 13.3474C15.9185 13.346 15.9146 13.3447 15.9105 13.3437C15.9083 13.3429 15.9059 13.3425 15.9035 13.3418C15.8996 13.341 15.8959 13.34 15.8921 13.3392C15.8893 13.3388 15.8864 13.3385 15.8836 13.3383C15.8801 13.3375 15.8765 13.3373 15.873 13.3369C15.8696 13.3365 15.8663 13.3365 15.8627 13.3363C15.8601 13.3363 15.8582 13.3359 15.8556 13.3359H15.134C15.0233 13.3359 14.9333 13.4242 14.9333 13.5325V17.9393C14.9333 18.0479 15.0233 18.1359 15.134 18.1359H15.8556C15.9665 18.1359 16.0562 18.0479 16.0562 17.9393V15.322L18.1136 18.0528C18.1278 18.0725 18.1454 18.0886 18.1645 18.1014C18.1651 18.1018 18.1659 18.1024 18.1665 18.103C18.1706 18.1055 18.1748 18.108 18.1789 18.1103C18.1809 18.1115 18.1827 18.1123 18.1846 18.1133C18.1876 18.115 18.191 18.1165 18.1941 18.1179C18.1975 18.1193 18.2004 18.1206 18.204 18.122C18.2059 18.1228 18.2079 18.1235 18.2099 18.1241C18.2146 18.1259 18.219 18.1272 18.2235 18.1286C18.2245 18.1286 18.2255 18.129 18.2265 18.1291C18.2428 18.1334 18.26 18.1359 18.2778 18.1359H18.9996C19.1105 18.1359 19.2 18.0479 19.2 17.9393V13.5325C19.2 13.4242 19.1105 13.3359 18.9996 13.3359Z" fill="#080808"/>
<path d="M12.6052 17.0324H10.6941V13.5329C10.6941 13.4241 10.6066 13.3359 10.499 13.3359H9.7954C9.68756 13.3359 9.6001 13.4241 9.6001 13.5329V17.9388V17.9392C9.6001 17.9921 9.62105 18.04 9.65469 18.0753C9.65546 18.0762 9.65623 18.0772 9.65738 18.0782C9.65834 18.0791 9.6593 18.0799 9.66026 18.0809C9.69544 18.115 9.74273 18.1359 9.79521 18.1359H12.6052C12.713 18.1359 12.8001 18.0475 12.8001 17.9388V17.2294C12.8001 17.1206 12.713 17.0324 12.6052 17.0324Z" fill="#080808"/>
<path d="M22.7385 14.4394C22.8463 14.4394 22.9334 14.3514 22.9334 14.2425V13.5331C22.9334 13.4243 22.8463 13.3359 22.7385 13.3359H19.9287C19.876 13.3359 19.8282 13.3573 19.793 13.3916L19.7907 13.3937L19.7876 13.3972C19.7542 13.4325 19.7334 13.4802 19.7334 13.5329V17.939C19.7334 17.9919 19.7544 18.04 19.788 18.0753L19.7907 18.0782L19.7936 18.0809C19.8286 18.1148 19.876 18.1359 19.9283 18.1359H22.7385C22.8463 18.1359 22.9334 18.0475 22.9334 17.939V17.2294C22.9334 17.1208 22.8463 17.0324 22.7385 17.0324H20.8276V16.2876H22.7385C22.8463 16.2876 22.9334 16.1994 22.9334 16.0906V15.3813C22.9334 15.2725 22.8463 15.1841 22.7385 15.1841H20.8276V14.4394H22.7385Z" fill="#080808"/>
</svg>
