<svg width="32" height="32" viewBox="0 0 32 32" fill="none" xmlns="http://www.w3.org/2000/svg">
<path fill-rule="evenodd" clip-rule="evenodd" d="M0 16C0 7.16344 7.16347 0 16.0001 0C24.8367 0 32.0001 7.16344 32.0001 16C32.0001 24.8366 24.8367 32 16.0001 32C7.16347 32 0 24.8366 0 16ZM12.1996 22.6989C11.3984 23.5001 10.1009 23.5 9.30046 22.699C8.49963 21.8982 8.49964 20.6006 9.30041 19.8001L13.5431 15.5575C14.3436 14.757 15.6412 14.757 16.4417 15.5575C16.8126 15.9284 17.4142 15.9284 17.7852 15.5575C18.1561 15.1865 18.1561 14.5849 17.7852 14.214C16.2428 12.6716 13.742 12.6716 12.1996 14.214L7.95688 18.457C6.41451 19.9993 6.41449 22.5 7.95683 24.0424C9.49925 25.5859 12.0001 25.5858 13.5432 24.0424L15.6642 21.9215C16.0351 21.5505 16.0351 20.9489 15.6642 20.578C15.2932 20.207 14.6916 20.207 14.3206 20.578L12.1996 22.6989ZM24.0428 7.95686C22.5004 6.4145 19.9989 6.4145 18.4565 7.95686L15.9118 10.5015C15.5409 10.8724 15.5409 11.474 15.9118 11.845C16.2828 12.2159 16.8844 12.2159 17.2554 11.845L19.8 9.30037C20.6005 8.49992 21.8988 8.49992 22.6992 9.30037C23.4997 10.1008 23.4997 11.3984 22.6992 12.1988L18.0325 16.8655C17.232 17.6659 15.9345 17.6659 15.134 16.8655C14.763 16.4945 14.1614 16.4945 13.7905 16.8655C13.4195 17.2364 13.4195 17.838 13.7905 18.209C15.3329 19.7513 17.8336 19.7513 19.376 18.209L24.0428 13.5423C25.5852 12 25.5852 9.49922 24.0428 7.95686Z" fill="#080808"/>
</svg>
