<svg viewBox="0 0 30 30" fill="inherit" xmlns="http://www.w3.org/2000/svg">
    <path
        d="M22.0571 27.5H7.93441C4.94253 27.5 2.5 25.0917 2.5 22.1417V21.9667L3.04091 7.675C3.13387 4.73333 5.5764 2.5 8.47532 2.5H21.5162C24.4151 2.5 26.8577 4.73333 26.9506 7.675L27.4915 21.9583C27.5845 23.3833 27.0352 24.725 26.0463 25.8C25.0575 26.875 23.6883 27.5 22.2431 27.5H22.0656H22.0571ZM8.47532 4.28333C6.48073 4.28333 4.94253 5.8 4.84956 7.675L4.30865 22.1417C4.30865 24.1083 5.93982 25.7167 7.93441 25.7167H22.2431C23.2404 25.7167 24.1447 25.2667 24.7786 24.5583C25.4124 23.85 25.7759 22.95 25.7759 21.9667L25.235 7.68333C25.142 5.71667 23.6038 4.29167 21.6092 4.29167H8.47532V4.28333Z"
        fill="inherit" />
    <path fill-rule="evenodd" clip-rule="evenodd"
        d="M2.25018 21.9572L2.79103 7.6671C2.79102 7.66737 2.79104 7.66684 2.79103 7.6671C2.88889 4.58406 5.44861 2.25 8.47532 2.25H21.5162C24.543 2.25 27.1027 4.58331 27.2005 7.6664C27.2005 7.66616 27.2005 7.66663 27.2005 7.6664L27.7412 21.9455C27.8382 23.4472 27.2575 24.8525 26.2303 25.9693C25.1963 27.0933 23.7614 27.75 22.2431 27.75H7.93441C4.80779 27.75 2.25 25.233 2.25 22.1417L2.25018 21.9572ZM27.4916 21.9583L26.9506 7.675C26.8577 4.73333 24.4151 2.5 21.5162 2.5H8.47532C5.5764 2.5 3.13387 4.73333 3.04091 7.675L2.5 21.9667V22.1417C2.5 25.0917 4.94253 27.5 7.93441 27.5H22.2431C23.6883 27.5 25.0575 26.875 26.0463 25.8C27.0352 24.725 27.5845 23.3833 27.4916 21.9583ZM8.22532 4.29135C6.35348 4.41198 4.93861 5.87912 4.84956 7.675L4.30865 22.1417C4.30865 24.1083 5.93982 25.7167 7.93441 25.7167H22.2431C23.2404 25.7167 24.1447 25.2667 24.7786 24.5583C25.4124 23.85 25.7759 22.95 25.7759 21.9667L25.235 7.68333C25.142 5.71667 23.6038 4.29167 21.6092 4.29167H8.47532V4.28333C8.39115 4.28333 8.30779 4.28603 8.22532 4.29135ZM8.22889 4.54167C6.4895 4.65995 5.18253 6.02262 5.09933 7.6859C5.0993 7.68639 5.09928 7.68689 5.09925 7.68738L4.55866 22.1463C4.56119 23.9695 6.07612 25.4667 7.93441 25.4667H22.2431C23.1632 25.4667 24.0016 25.0517 24.5923 24.3916C25.1857 23.7285 25.5247 22.889 25.5259 21.9713L24.9852 7.69514C24.9852 7.69482 24.9853 7.69545 24.9852 7.69514C24.8984 5.8674 23.4752 4.54167 21.6092 4.54167H8.22889Z"
        fill="inherit" />
    <path
        d="M15.0009 13.2167C11.4681 13.2167 8.66211 10.45 8.66211 6.96668C8.66211 6.43335 9.02553 6.07501 9.56644 6.07501C10.1073 6.07501 10.4708 6.43335 10.4708 6.96668C10.4708 9.46668 12.4654 11.4333 15.0009 11.4333C17.5363 11.4333 19.5309 9.46668 19.5309 6.96668C19.5309 6.43335 19.8944 6.07501 20.4353 6.07501C20.9762 6.07501 21.3396 6.43335 21.3396 6.96668C21.3396 10.45 18.5336 13.2167 15.0009 13.2167Z"
        fill="inherit" />
    <path fill-rule="evenodd" clip-rule="evenodd"
        d="M15.0009 13.4667C11.3333 13.4667 8.41211 10.5914 8.41211 6.96668C8.41211 6.64164 8.52403 6.35173 8.73591 6.14283C8.94747 5.93422 9.23973 5.82501 9.56644 5.82501C9.89314 5.82501 10.1854 5.93422 10.397 6.14283C10.6088 6.35173 10.7208 6.64164 10.7208 6.96668C10.7208 9.3253 12.6001 11.1833 15.0009 11.1833C17.4016 11.1833 19.2809 9.3253 19.2809 6.96668C19.2809 6.64164 19.3929 6.35173 19.6047 6.14283C19.8163 5.93422 20.1086 5.82501 20.4353 5.82501C20.762 5.82501 21.0542 5.93422 21.2658 6.14283C21.4777 6.35173 21.5896 6.64164 21.5896 6.96668C21.5896 10.5914 18.6684 13.4667 15.0009 13.4667ZM8.66211 6.96668C8.66211 10.45 11.4681 13.2167 15.0009 13.2167C18.5336 13.2167 21.3396 10.45 21.3396 6.96668C21.3396 6.43335 20.9762 6.07501 20.4353 6.07501C19.8944 6.07501 19.5309 6.43335 19.5309 6.96668C19.5309 9.46668 17.5363 11.4333 15.0009 11.4333C12.4654 11.4333 10.4708 9.46668 10.4708 6.96668C10.4708 6.43335 10.1073 6.07501 9.56644 6.07501C9.02553 6.07501 8.66211 6.43335 8.66211 6.96668Z"
        fill="inherit" />
</svg>