<svg viewBox="0 0 18 18" fill="none" xmlns="http://www.w3.org/2000/svg">
    <path fill-rule="evenodd" clip-rule="evenodd"
        d="M9 2.25C8.5875 2.25 8.25 2.5875 8.25 3V14.49C8.25 14.9025 8.5875 15.24 9 15.24C9.4125 15.24 9.75 14.9025 9.75 14.49V3C9.75 2.5875 9.4125 2.25 9 2.25ZM12 5.25C11.5875 5.25 11.25 5.5875 11.25 6V12C11.25 12.4125 11.5875 12.75 12 12.75C12.4125 12.75 12.75 12.4125 12.75 12V6C12.75 5.5875 12.4125 5.25 12 5.25ZM5.25 6C5.25 5.5875 5.5875 5.25 6 5.25C6.4125 5.25 6.75 5.5875 6.75 6V12C6.75 12.4125 6.4125 12.75 6 12.75C5.5875 12.75 5.25 12.4125 5.25 12V6ZM3 6.75C2.5875 6.75 2.25 7.0875 2.25 7.5V9.75C2.25 10.1625 2.5875 10.5 3 10.5C3.4125 10.5 3.75 10.1625 3.75 9.75V7.5C3.75 7.0875 3.4125 6.75 3 6.75ZM14.25 7.5C14.25 7.0875 14.5875 6.75 15 6.75C15.4125 6.75 15.75 7.0875 15.75 7.5V9.75C15.75 10.1625 15.4125 10.5 15 10.5C14.5875 10.5 14.25 10.1625 14.25 9.75V7.5Z"
        fill="#64BE3C" />
</svg>