<svg viewBox="0 0 34 34" fill="none" xmlns="http://www.w3.org/2000/svg">
    <path fill-rule="evenodd" clip-rule="evenodd"
        d="M19.015 10.3684C19.2592 10.4843 19.4149 10.7304 19.4149 11.0008V23.0008C19.4149 23.2712 19.2592 23.5174 19.0149 23.6332C18.7706 23.7491 18.4814 23.714 18.272 23.5429L14.193 20.2107L10.0002 20.2119C9.81456 20.2119 9.63646 20.1382 9.50514 20.0069C9.37383 19.8757 9.30005 19.6976 9.30005 19.5119V14.4892C9.30005 14.1026 9.61345 13.7892 10 13.7892H14.193L18.2722 10.4586C18.4816 10.2876 18.7707 10.2525 19.015 10.3684ZM18.0149 12.476L14.8852 15.0314C14.7602 15.1335 14.6038 15.1892 14.4424 15.1892H10.7V18.8117L14.4422 18.8106C14.6037 18.8106 14.7602 18.8664 14.8853 18.9685L18.0149 21.5251V12.476ZM22.4766 14.1858C22.7743 13.9392 23.2155 13.9806 23.4622 14.2783C24.95 16.0743 25.158 18.4935 23.7508 20.5965C23.5358 20.9178 23.1011 21.004 22.7798 20.789C22.4585 20.574 22.3723 20.1393 22.5873 19.818C23.6428 18.2405 23.4851 16.5005 22.3841 15.1714C22.1374 14.8737 22.1788 14.4324 22.4766 14.1858Z"
        fill="inherit" />
    <path fill-rule="evenodd" clip-rule="evenodd"
        d="M24.4788 8.99011C24.7608 9.25452 24.7751 9.6975 24.5107 9.97954L9.51073 25.9795C9.24632 26.2616 8.80333 26.2759 8.52129 26.0115C8.23925 25.747 8.22496 25.3041 8.48938 25.022L23.4894 9.02202C23.7538 8.73999 24.1968 8.7257 24.4788 8.99011Z"
        fill="inherit" />
</svg>