<svg width="24" height="24" viewBox="0 0 24 24" xmlns="http://www.w3.org/2000/svg">
<g clip-path="url(#clip0_3057_12837)">
<path d="M20.84 7.54L20.19 4.93C19.9 3.79 18.89 3 17.72 3H6.23004C5.05004 3 4.04004 3.79 3.75004 4.93L3.10004 7.54C2.85004 8.54 3.07004 9.58 3.70004 10.39C3.73004 10.43 3.78004 10.47 3.82004 10.51V17.18C3.82004 18.96 5.27004 20.41 7.05004 20.41H16.89C18.67 20.41 20.12 18.96 20.12 17.18V10.51C20.12 10.51 20.2 10.44 20.24 10.39C20.87 9.58 21.09 8.54 20.84 7.54ZM10.27 15.94C10.27 15.49 10.45 15.06 10.77 14.74C11.09 14.42 11.52 14.24 11.97 14.24C12.42 14.24 12.85 14.42 13.17 14.74C13.49 15.06 13.67 15.49 13.67 15.94V18.87H10.28V15.94H10.27ZM14.25 13.66C13.64 13.05 12.83 12.72 11.97 12.72C11.11 12.72 10.3 13.06 9.69004 13.66C9.08004 14.27 8.75004 15.08 8.75004 15.94V18.87H7.06004C6.13004 18.87 5.36004 18.11 5.36004 17.17V11.5C5.67004 11.6 5.99004 11.66 6.33004 11.66C7.37004 11.66 8.29004 11.17 8.89004 10.41C9.52004 11.17 10.46 11.66 11.52 11.66H12.41C13.47 11.66 14.41 11.16 15.05 10.4C15.65 11.16 16.57 11.66 17.62 11.66C17.96 11.66 18.28 11.59 18.59 11.5V17.17C18.59 18.1 17.83 18.87 16.89 18.87H15.19V15.94C15.19 15.08 14.85 14.27 14.25 13.66ZM4.91004 9.45C4.57004 9.01 4.45004 8.45 4.58004 7.91L5.23004 5.3C5.34004 4.85 5.75004 4.53 6.22004 4.53H8.07004V8.23C8.07004 8.23 8.07004 8.27 8.07004 8.29V8.39C8.07004 9.36 7.28004 10.15 6.31004 10.15C5.86004 10.15 5.45004 9.98 5.12004 9.69C5.12004 9.69 5.10004 9.67 5.09004 9.66C5.02004 9.59 4.95004 9.53 4.89004 9.45H4.91004ZM18.82 9.66C18.82 9.66 18.81 9.67 18.8 9.68C18.47 9.97 18.05 10.14 17.61 10.14C16.64 10.14 15.85 9.35 15.85 8.38V4.53H17.71C18.18 4.53 18.59 4.85 18.7 5.3L19.35 7.91C19.48 8.45 19.37 9.01 19.02 9.45C18.96 9.53 18.89 9.59 18.81 9.66H18.82ZM14.32 8.23C14.32 9.28 13.46 10.14 12.41 10.14H11.52C10.49 10.14 9.65004 9.32 9.62004 8.3V4.53H14.33V8.23H14.32Z" fill="url(#paint0_linear_3057_12837)"/>
</g>
<defs>
<linearGradient id="paint0_linear_3057_12837" x1="11.97" y1="3" x2="11.97" y2="20.2561" gradientUnits="userSpaceOnUse">
<stop stop-color="#FF3C78"/>
<stop offset="1" stop-color="#FF1A60"/>
</linearGradient>
<clipPath id="clip0_3057_12837">
<rect width="17.94" height="17.4" fill="white" transform="translate(3 3)"/>
</clipPath>
</defs>
</svg>
