<svg width="58" height="58" viewBox="0 0 58 58" fill="none" xmlns="http://www.w3.org/2000/svg">
<path d="M52.3281 13.084C52.9534 13.084 53.4609 13.5915 53.4609 14.2168C53.4609 14.8421 52.9534 15.3496 52.3281 15.3496C51.7028 15.3496 51.1953 14.8421 51.1953 14.2168C51.1953 13.5915 51.7028 13.084 52.3281 13.084Z" fill="#AEEA93"/>
<path d="M52.3281 42.5371C52.9534 42.5371 53.4609 43.0446 53.4609 43.6699C53.4609 44.2952 52.9534 44.8027 52.3281 44.8027C51.7028 44.8027 51.1953 44.2952 51.1953 43.6699C51.1953 43.0446 51.7028 42.5371 52.3281 42.5371Z" fill="#AEEA93"/>
<path d="M46.6641 49.334C47.9158 49.334 48.9297 50.3479 48.9297 51.5996C48.9297 52.8514 47.9158 53.8652 46.6641 53.8652C45.4123 53.8652 44.3984 52.8514 44.3984 51.5996C44.3984 50.3479 45.4123 49.334 46.6641 49.334Z" fill="#AEEA93"/>
<path d="M44.3984 2.88867C45.0237 2.88867 45.5312 3.39617 45.5312 4.02148C45.5312 4.6468 45.0237 5.1543 44.3984 5.1543C43.7731 5.1543 43.2656 4.6468 43.2656 4.02148C43.2656 3.39617 43.7731 2.88867 44.3984 2.88867Z" fill="#AEEA93"/>
<path d="M28.5391 6.28711C16.026 6.28711 5.88281 16.4303 5.88281 28.9434C5.88281 41.4564 16.026 51.5996 28.5391 51.5996C41.0521 51.5996 51.1953 41.4564 51.1953 28.9434C51.1953 16.4303 41.0521 6.28711 28.5391 6.28711Z" fill="#64BE3C"/>
<path d="M28.5391 45.9355C19.1548 45.9355 11.5469 38.3276 11.5469 28.9434C11.5469 19.5591 19.1548 11.9512 28.5391 11.9512C37.9233 11.9512 45.5312 19.5591 45.5312 28.9434C45.5312 38.3276 37.9233 45.9355 28.5391 45.9355Z" fill="white"/>
<path d="M36.9614 23.5877C37.8463 24.4724 37.8463 25.9065 36.9614 26.7912L28.9513 34.8025L25.7477 38.0061L22.543 34.8025L20.1403 32.3987C19.6986 31.9569 19.4766 31.3769 19.4766 30.7969C19.4766 30.2169 19.6986 29.6369 20.1403 29.195C21.0251 28.3102 22.4593 28.3102 23.3439 29.195L25.7477 31.5977L33.7579 23.5877C34.2009 23.1459 34.7797 22.9238 35.3597 22.9238C35.9397 22.9238 36.5186 23.1459 36.9614 23.5877Z" fill="#64BE3C"/>
<path d="M11.5469 51.5996C12.1722 51.5996 12.6797 52.1071 12.6797 52.7324C12.6797 53.3577 12.1722 53.8652 11.5469 53.8652C10.9214 53.8652 10.4141 53.3577 10.4141 52.7324C10.4141 52.1071 10.9214 51.5996 11.5469 51.5996Z" fill="#AEEA93"/>
<path d="M8.71484 5.1543C10.2793 5.1543 11.5469 6.42191 11.5469 7.98633C11.5469 9.55074 10.2793 10.8184 8.71484 10.8184C7.15032 10.8184 5.88281 9.55074 5.88281 7.98633C5.88281 6.42191 7.15032 5.1543 8.71484 5.1543Z" fill="#AEEA93"/>
<path d="M4.75 14.2168C5.37531 14.2168 5.88281 14.7243 5.88281 15.3496C5.88281 15.9749 5.37531 16.4824 4.75 16.4824C4.12457 16.4824 3.61719 15.9749 3.61719 15.3496C3.61719 14.7243 4.12457 14.2168 4.75 14.2168Z" fill="#AEEA93"/>
<path d="M4.75 42.5371C5.37531 42.5371 5.88281 43.0446 5.88281 43.6699C5.88281 44.2952 5.37531 44.8027 4.75 44.8027C4.12457 44.8027 3.61719 44.2952 3.61719 43.6699C3.61719 43.0446 4.12457 42.5371 4.75 42.5371Z" fill="#AEEA93"/>
</svg>
