<svg viewBox="0 0 34 34" fill="none" xmlns="http://www.w3.org/2000/svg">
    <g clip-path="url(#clip0_1139_17445)">
        <path
            d="M16.9574 10.3485C18.3835 10.3485 19.7565 10.8061 20.8952 11.6469H20.7249C20.2567 11.6469 19.8842 12.0194 19.8842 12.4877C19.8842 12.956 20.2673 13.3285 20.7249 13.3285H22.9599C23.4282 13.3285 23.8007 12.956 23.8007 12.4877V10.242C23.8007 9.77375 23.4282 9.40125 22.9599 9.40125C22.4917 9.40125 22.1192 9.77375 22.1192 10.242V10.4655C20.6611 9.29482 18.8412 8.65625 16.9574 8.65625C12.3916 8.66689 8.66663 12.4025 8.66663 16.9896C8.66663 17.4579 9.03912 17.8304 9.50741 17.8304C9.97569 17.8304 10.3482 17.4579 10.3482 16.9896C10.3482 13.3285 13.3175 10.3485 16.9574 10.3485Z"
            fill="inherit" />
        <path
            d="M24.4926 16.1697C24.0243 16.1697 23.6518 16.5422 23.6518 17.0105C23.6518 20.6716 20.6824 23.6516 17.0426 23.6516C15.6377 23.6516 14.2754 23.2046 13.1579 22.3851H13.3495C13.8178 22.3851 14.1903 22.0126 14.1903 21.5444C14.1903 21.0761 13.8072 20.7036 13.3495 20.7036H11.0932C11.0932 20.7036 11.0294 20.7036 10.9762 20.7142H10.9229C10.9229 20.7142 10.8804 20.7355 10.8272 20.7568C10.8059 20.7568 10.7846 20.7674 10.7739 20.7781C10.7527 20.7781 10.7314 20.7994 10.7101 20.81C10.6782 20.8206 10.6569 20.8419 10.6462 20.8526L10.7207 20.9909L10.6143 20.8739C10.6143 20.8739 10.593 20.8951 10.5611 20.9164C10.5398 20.9377 10.5185 20.9484 10.5185 20.959C10.4972 20.9803 10.4759 21.0016 10.4547 21.0335C10.444 21.0548 10.4334 21.0654 10.4227 21.0761C10.4014 21.0974 10.3908 21.1293 10.3802 21.1506C10.3695 21.1719 10.3589 21.2038 10.3482 21.2357L10.3163 21.3209C10.3163 21.3209 10.3057 21.3634 10.3057 21.3847C10.3057 21.4166 10.3057 21.4486 10.3057 21.4805V23.7687C10.3057 24.237 10.6782 24.6095 11.1464 24.6095C11.6147 24.6095 11.9872 24.2263 11.9872 23.7687V23.5665C13.4347 24.6946 15.2227 25.3119 17.0745 25.3119C21.6403 25.3119 25.3653 21.5763 25.3653 16.9892C25.3653 16.5209 24.9928 16.1484 24.5245 16.1484L24.4926 16.1697Z"
            fill="inherit" />
    </g>
    <defs>
        <clipPath id="clip0_1139_17445">
            <rect width="16.6667" height="16.6667" fill="inherit"
                transform="translate(8.66663 8.66602)" />
        </clipPath>
    </defs>
</svg>