<svg viewBox="0 0 24 24" xmlns="http://www.w3.org/2000/svg">
<g clip-path="url(#clip0_3656_16298)">
<path d="M15.1492 21.0028H8.85073C7.54351 20.9809 6.47396 19.9546 6.38753 18.6335L5.64209 7.15821C5.64209 6.99444 5.69611 6.83066 5.80414 6.69964C5.92298 6.56862 6.08503 6.49219 6.25789 6.49219H17.742C18.0769 6.49219 18.3578 6.76515 18.3578 7.11454C18.3578 7.12546 18.3578 7.14729 18.3578 7.15821L17.6448 18.6335C17.5584 19.9655 16.4672 21.0028 15.1492 21.0028ZM6.94931 7.73689L7.57592 18.5571C7.61913 19.234 8.18091 19.7581 8.85073 19.7581H15.1492C15.819 19.7581 16.37 19.234 16.424 18.5571L17.0938 7.76964L6.94931 7.72597V7.73689Z" fill="inherit"/>
<path d="M19.3842 7.73689H4.6158C4.28089 7.73689 4 7.45301 4 7.11454C4 6.77607 4.28089 6.49219 4.6158 6.49219H19.3842C19.7191 6.49219 20 6.77607 20 7.11454C20 7.45301 19.7191 7.73689 19.3842 7.73689Z" fill="inherit"/>
<path d="M14.4685 7.7341H9.54207C9.20716 7.7341 8.92627 7.45022 8.92627 7.11175V5.61593C8.94788 4.73154 9.6501 4.02184 10.5252 4H13.4745C14.3604 4.02184 15.0735 4.75337 15.0735 5.6596V7.11175C15.0735 7.45022 14.7926 7.7341 14.4577 7.7341H14.4685ZM10.1579 6.4894H13.8527V5.6596C13.8527 5.45215 13.6906 5.28838 13.4854 5.28838H10.536C10.3307 5.28838 10.1687 5.45215 10.1687 5.6596V6.4894H10.1579Z" fill="inherit"/>
<path d="M14.4688 17.6847C14.1339 17.6847 13.853 17.4008 13.853 17.0623V10.4349C13.853 10.0964 14.1339 9.8125 14.4688 9.8125C14.8037 9.8125 15.0846 10.0964 15.0846 10.4349V17.0733C15.0846 17.4117 14.8037 17.6956 14.4688 17.6956V17.6847Z" fill="inherit"/>
<path d="M9.54207 17.6847C9.20716 17.6847 8.92627 17.4008 8.92627 17.0623V10.4349C8.92627 10.0964 9.20716 9.8125 9.54207 9.8125C9.87698 9.8125 10.1579 10.0964 10.1579 10.4349V17.0733C10.1579 17.4117 9.87698 17.6956 9.54207 17.6956V17.6847Z" fill="inherit"/>
<path d="M12.0054 17.6847C11.6705 17.6847 11.3896 17.4008 11.3896 17.0623V10.4349C11.3896 10.0964 11.6705 9.8125 12.0054 9.8125C12.3404 9.8125 12.6212 10.0964 12.6212 10.4349V17.0733C12.6212 17.4117 12.3404 17.6956 12.0054 17.6956V17.6847Z" fill="inherit"/>
</g>
<defs>
<clipPath id="clip0_3656_16298">
<rect width="16" height="17" fill="white" transform="translate(4 4)"/>
</clipPath>
</defs>
</svg>
