<svg viewBox="0 0 34 34" fill="inherit" xmlns="http://www.w3.org/2000/svg">
    <g>
        <path
            d="M24.3023 16.6045C24.6849 16.6045 25 16.2894 25 15.9068V13.8023C25 13.4196 24.6849 13.1045 24.3023 13.1045H22.1977C21.8151 13.1045 21.5 13.4196 21.5 13.8023C21.5 14.1849 21.8151 14.5 22.1977 14.5H22.6029L18.6977 18.4051L17.0884 16.7958C16.8183 16.5257 16.3682 16.5257 16.0981 16.7958L12.3955 20.4984V11.6977C12.3955 11.3151 12.0804 11 11.6977 11C11.3151 11 11 11.3151 11 11.6977V22.8955C11 24.0547 11.9453 25 13.1045 25H24.3023C24.6849 25 25 24.6849 25 24.3023C25 23.9196 24.6849 23.6045 24.3023 23.6045H13.1045C12.7219 23.6045 12.4068 23.2894 12.4068 22.9068V22.5016L16.6045 18.3039L18.2138 19.9132C18.4839 20.1833 18.9341 20.1833 19.2042 19.9132L23.6045 15.5129V15.918C23.6045 16.3006 23.9196 16.6158 24.3023 16.6158V16.6045Z"
            fill="inherit" />
    </g>
</svg>