<svg width="24" height="24" viewBox="0 0 24 24"  xmlns="http://www.w3.org/2000/svg">
<path d="M21.9426 6.92695C21.0553 6.81319 20.2363 7.06346 19.622 7.72325L19.5082 7.83701C18.6664 6.26715 17.142 6.2444 16.05 6.40366C15.8907 6.42641 15.7542 6.56292 15.7542 6.74493V6.90419C14.8214 6.76768 13.8658 6.85869 13.024 7.15446C12.8875 6.97245 12.7282 6.81319 12.5235 6.67668C12.6145 5.88037 12.3642 5.08407 11.8182 4.49252C11.2721 3.90098 10.5213 3.58246 9.70227 3.60521C9.08798 2.28562 7.60913 1.55757 6.17577 1.92159C4.71967 2.26287 3.7641 3.60521 3.83236 5.06131C3.12706 5.40259 2.60377 6.03963 2.39901 6.83594C2.19424 7.60949 2.3535 8.4513 2.80854 9.1111C2.53552 9.61164 2.49001 10.2259 2.71753 10.8175C3.0133 11.591 3.69585 12.1598 4.51491 12.3191C5.37947 12.5238 6.5398 13.5704 7.01758 14.6397C7.15409 14.9355 7.26785 15.1858 7.40436 15.3905C7.1996 15.4588 7.01758 15.5498 6.83557 15.6408C6.47155 15.8228 6.17577 16.0503 5.92551 16.3234C5.28846 15.4816 4.69692 15.0265 4.15088 14.9583C3.80961 14.9128 3.49109 15.0038 3.19531 15.2085C2.71753 15.5726 2.44451 16.2779 2.92229 17.1879C2.19424 17.4837 1.76196 17.9842 1.76196 18.553C1.76196 19.1218 2.19424 19.5996 2.92229 19.8954C2.44451 20.8054 2.71753 21.5107 3.19531 21.8748C3.42283 22.0568 3.69585 22.1478 3.96887 22.1478C4.03712 22.1478 4.08263 22.1478 4.15088 22.125C4.69692 22.034 5.28846 21.6017 5.92551 20.7599C6.17577 21.0329 6.47155 21.2605 6.83557 21.4425C7.81389 21.9658 9.15624 22.1933 10.6123 22.1933C14.7531 22.1933 19.9632 20.4642 21.4876 19.4858C21.8744 19.2356 22.0791 18.8943 22.0791 18.553C22.0791 18.2117 21.8744 17.8705 21.4876 17.6202C21.1691 17.4154 20.6685 17.1652 20.0315 16.8921C20.1225 16.8239 20.1908 16.7329 20.259 16.6419C21.3966 15.3678 21.7606 13.5932 21.2601 11.8185C21.3056 11.8185 21.3738 11.8185 21.4194 11.7958C21.5786 11.773 21.7151 11.6365 21.7151 11.4545C21.7379 10.3852 21.5786 8.92909 20.0315 8.24654L20.0998 8.17828C20.5775 7.67775 21.1691 7.49574 21.8516 7.58674C22.0336 7.60949 22.2157 7.47298 22.2384 7.29097C22.2612 7.13171 22.1247 6.97245 21.9426 6.92695ZM7.65463 14.344C7.08584 13.0926 5.74349 11.8868 4.67417 11.6365C4.05988 11.5228 3.58209 11.1132 3.37733 10.5672C3.19531 10.1122 3.26357 9.63439 3.51384 9.29311C3.60484 9.1566 3.60484 8.99734 3.51384 8.86083C3.03605 8.3603 2.89954 7.67775 3.0588 7.01795C3.21807 6.35816 3.69585 5.83487 4.33289 5.60735C4.49216 5.5391 4.56041 5.40259 4.56041 5.24333C4.3784 4.03749 5.15195 2.87716 6.35779 2.58139C7.54087 2.28562 8.76946 2.92266 9.17899 4.083C9.22449 4.24226 9.38375 4.33326 9.54301 4.31051C10.2256 4.21951 10.8626 4.46977 11.3176 4.97031C11.7727 5.47084 11.9774 6.15339 11.8182 6.81319C11.7954 6.97245 11.8637 7.13171 12.0229 7.19997C12.4097 7.38198 12.6827 7.76876 12.751 8.24654C12.8192 8.83808 12.5917 9.42962 12.0912 9.8164C11.2721 10.5445 10.6578 12.2281 10.7488 13.5932C10.7716 14.1392 10.7716 14.5715 10.7261 14.9128C9.77053 14.9128 8.88322 14.981 8.08691 15.1858C7.92765 14.9355 7.79114 14.6625 7.65463 14.344ZM4.05988 21.4652C3.90061 21.488 3.7641 21.4425 3.62759 21.3515C3.08156 20.9192 3.51384 20.2139 3.74135 19.9181C3.80961 19.8271 3.83236 19.7133 3.78686 19.5996C3.74135 19.4858 3.65035 19.4176 3.55934 19.3948C2.89954 19.2128 2.44451 18.8715 2.44451 18.553C2.44451 18.2345 2.89954 17.8932 3.53659 17.734C3.65035 17.7112 3.74135 17.6202 3.7641 17.5292C3.78686 17.4382 3.78686 17.3017 3.7186 17.2107C3.51384 16.9149 3.08156 16.1868 3.60484 15.7773C3.74135 15.6636 3.87786 15.6408 4.03712 15.6636C4.31014 15.7091 4.78793 15.9593 5.49323 16.9377C5.24296 17.4154 5.10645 17.9615 5.10645 18.5758C5.10645 19.1901 5.24296 19.7361 5.49323 20.2139C4.81068 21.1467 4.33289 21.4197 4.05988 21.4652ZM21.3966 18.553C21.3966 18.6668 21.2828 18.8033 21.1008 18.917C19.9632 19.6451 16.3685 20.8964 12.933 21.3287V19.7589C12.933 19.5768 12.7737 19.4176 12.5917 19.4176C12.4097 19.4176 12.2505 19.5768 12.2505 19.7589V21.397C11.0219 21.5107 9.83878 21.5335 8.83771 21.3742V19.4403C8.83771 19.2583 8.67845 19.0991 8.49644 19.0991C8.31442 19.0991 8.15516 19.2583 8.15516 19.4403V21.215C7.79114 21.1239 7.44986 20.9874 7.15409 20.8282C6.24403 20.3276 5.81175 19.5768 5.81175 18.5303C5.81175 17.4837 6.24403 16.7329 7.15409 16.2324C7.9049 15.8228 8.88322 15.6408 9.99804 15.5953V17.2562C9.99804 17.4382 10.1573 17.5974 10.3393 17.5974C10.5213 17.5974 10.6806 17.4382 10.6806 17.2562V15.5953C11.8864 15.6181 13.206 15.7773 14.5029 16.0276V18.3255C14.5029 18.5075 14.6621 18.6668 14.8441 18.6668C15.0261 18.6668 15.1854 18.5075 15.1854 18.3255V16.1641C17.8246 16.7329 20.2363 17.6202 21.1008 18.189C21.2828 18.3027 21.3966 18.4393 21.3966 18.553ZM19.7585 16.1869C19.622 16.3461 19.4627 16.4826 19.3262 16.5964C17.2103 15.8228 14.1388 15.0265 11.4086 14.89C11.4541 14.5032 11.4541 14.0482 11.4314 13.5022C11.3631 12.3418 11.8637 10.863 12.5462 10.2942C13.206 9.74815 13.5473 8.95184 13.4335 8.11003C13.4108 7.97352 13.388 7.85976 13.3425 7.746C14.1161 7.47298 15.0261 7.42748 15.8907 7.60949C16.0045 7.95077 16.2092 8.24654 16.4595 8.51956C15.9817 8.81533 15.5949 9.29311 15.3447 9.88465C15.2764 10.0439 15.3447 10.2259 15.4812 10.3169C16.0727 10.6582 16.687 10.8175 17.2558 10.7492C17.2558 11.3408 17.4606 11.9323 17.8929 12.4783C17.9611 12.5693 18.0521 12.6148 18.1659 12.6148C18.2114 12.6148 18.2796 12.5921 18.3251 12.5693C18.8939 12.2508 19.3035 11.8185 19.5537 11.318C19.8495 11.5455 20.1908 11.7048 20.532 11.7958C21.0781 13.4112 20.7823 15.0493 19.7585 16.1869ZM21.0553 11.1587C20.532 11.1587 20.0998 10.9312 19.6902 10.4762C19.5992 10.3852 19.4627 10.3397 19.349 10.3852C19.2352 10.4079 19.1214 10.5217 19.0987 10.6355C19.0077 11.0905 18.7119 11.5 18.2796 11.7958C18.0066 11.3408 17.8929 10.8402 18.0066 10.3852C18.0294 10.2714 17.9839 10.1349 17.8929 10.0667C17.8246 10.0212 17.7563 9.97566 17.6653 9.97566C17.6198 9.97566 17.5971 9.97566 17.5516 9.99841C17.0965 10.1577 16.596 10.1122 16.1182 9.88465C16.3685 9.42962 16.7553 9.08835 17.1876 8.95184C17.3013 8.90634 17.3923 8.81533 17.4151 8.67882C17.4378 8.54231 17.3923 8.42855 17.2786 8.3603C16.778 7.99627 16.505 7.58674 16.4368 7.06346C17.7563 6.9497 18.5299 7.33647 18.9849 8.3603L18.5982 8.74707C18.4616 8.88358 18.4616 9.08835 18.5982 9.22486C18.6664 9.29311 18.7574 9.31587 18.8484 9.31587C18.9394 9.31587 19.0304 9.29311 19.0987 9.22486L19.531 8.76983C20.5548 9.13385 21.0098 9.8619 21.0553 11.1587Z" />
<path fill-rule="evenodd" clip-rule="evenodd" d="M9.84762 3.3704C10.6752 3.38703 11.4323 3.72899 11.9904 4.33362C12.552 4.94204 12.8248 5.74879 12.769 6.56414C12.896 6.66094 13.0061 6.76668 13.1044 6.88058C13.864 6.63947 14.701 6.55493 15.5291 6.64011C15.5746 6.38692 15.7818 6.20545 16.0164 6.17177C16.5757 6.09022 17.2687 6.05122 17.9387 6.24702C18.5416 6.42321 19.1169 6.78721 19.555 7.45671C20.2137 6.81573 21.0678 6.57856 21.9724 6.69455L21.9861 6.6963L21.9995 6.69964C22.2551 6.76355 22.5145 7.00622 22.4707 7.32206C22.4303 7.63635 22.1275 7.85749 21.8226 7.81938L21.8216 7.81926L21.8207 7.81913C21.2832 7.74748 20.8224 7.86172 20.4334 8.18623C21.8341 8.98059 21.9708 10.4445 21.9495 11.4574C21.9483 11.7247 21.7721 11.9316 21.5506 12.0048C21.9693 13.7621 21.5777 15.5118 20.4406 16.7905L20.4399 16.7914C20.4355 16.7973 20.431 16.8032 20.4265 16.8093C20.9275 17.0338 21.3339 17.2428 21.6143 17.4231L21.6149 17.4235C22.0494 17.7046 22.3135 18.112 22.3135 18.5531C22.3135 18.9941 22.0494 19.4015 21.6149 19.6827L21.6146 19.6829L21.6142 19.6831C20.8215 20.1919 19.1101 20.8762 17.0935 21.4324C15.0712 21.9902 12.7112 22.4277 10.6123 22.4277C9.13936 22.4277 7.75418 22.1987 6.72785 21.6507C6.42884 21.5009 6.17163 21.3215 5.94639 21.1131C5.36019 21.833 4.78204 22.2512 4.20646 22.3533C4.11125 22.3823 4.03896 22.3822 3.97398 22.3822H3.96887C3.64438 22.3822 3.3204 22.2742 3.05108 22.0596C2.77218 21.8463 2.55115 21.5317 2.47079 21.1366C2.4024 20.8003 2.43868 20.42 2.60894 20.0112C1.96269 19.6898 1.52759 19.1889 1.52759 18.5531C1.52759 17.9201 1.9593 17.3995 2.60916 17.0727C2.43871 16.6637 2.40237 16.2832 2.47079 15.9468C2.55136 15.5507 2.77334 15.2355 3.05327 15.0222L3.05752 15.0189L3.06191 15.0159C3.3982 14.7831 3.77409 14.6719 4.18092 14.7259C4.77128 14.8001 5.3584 15.2446 5.9466 15.9702C6.17252 15.7611 6.43061 15.5813 6.73076 15.4312L6.73643 15.4284C6.83916 15.377 6.94718 15.323 7.0624 15.2724C6.98089 15.1199 6.90432 14.9539 6.82416 14.78C6.81773 14.7661 6.81127 14.7521 6.80478 14.738L6.80418 14.7367L6.8036 14.7354C6.58038 14.2358 6.19235 13.732 5.75267 13.3278C5.31149 12.9223 4.84219 12.6388 4.46522 12.5482C3.5701 12.3724 2.82318 11.75 2.49867 10.9014C2.2662 10.2968 2.29016 9.66396 2.53851 9.12668C2.10578 8.43214 1.96162 7.57341 2.17222 6.77684C2.38067 5.9671 2.89513 5.30579 3.59456 4.92056C3.59211 3.41643 4.60139 2.05098 6.12018 1.69397C7.61427 1.31556 9.15119 2.03781 9.84762 3.3704ZM19.9321 8.01451C20.4656 7.45685 21.1328 7.25484 21.8813 7.35433C21.9396 7.36119 21.9998 7.31049 22.0058 7.26197L22.0061 7.25993L22.0064 7.2579C22.0065 7.25707 22.0082 7.24173 21.9866 7.21564C21.967 7.19186 21.9353 7.16945 21.8968 7.15747C21.0818 7.05721 20.3469 7.2887 19.7935 7.88303L19.7907 7.88609L19.4508 8.22596L19.3017 7.94784C18.9123 7.22178 18.3735 6.86245 17.8072 6.69695C17.2316 6.52875 16.6165 6.55796 16.0838 6.63565L16.0835 6.6357L16.0831 6.63575C16.0306 6.64325 15.9886 6.68821 15.9886 6.745V7.17544L15.7203 7.13617C14.8237 7.00497 13.9065 7.09288 13.1017 7.37566L12.9396 7.43261L12.8365 7.29516C12.7139 7.13174 12.5735 6.99179 12.3935 6.87176L12.2744 6.79236L12.2906 6.65014C12.3741 5.91966 12.1445 5.19162 11.646 4.65157C11.146 4.10992 10.4604 3.81869 9.70878 3.83957L9.5548 3.84385L9.48979 3.7042C8.92204 2.48458 7.55537 1.81311 6.23347 2.14883L6.23137 2.14936L6.22926 2.14986C4.88799 2.46422 4.00327 3.70209 4.06648 5.05041L4.07372 5.20497L3.93444 5.27236C3.29252 5.58297 2.81397 6.16339 2.626 6.89438L2.62579 6.89518L2.62558 6.89599C2.43903 7.60073 2.58373 8.37237 3.00148 8.97811L3.08334 9.09681L3.01429 9.2234C2.77541 9.66136 2.73254 10.2037 2.93628 10.7334L2.93645 10.7338C3.20291 11.4307 3.8189 11.945 4.55964 12.0891L4.5643 12.09L4.56892 12.0911C5.05578 12.2064 5.59703 12.548 6.0699 12.9827C6.54561 13.42 6.97635 13.9736 7.23099 14.5429C7.23118 14.5433 7.23138 14.5438 7.23157 14.5442L7.24126 14.5652C7.37528 14.8556 7.47853 15.0793 7.59937 15.2606L7.76959 15.5159L7.47848 15.613C7.29191 15.6752 7.12425 15.7586 6.94039 15.8505C6.60203 16.0197 6.32927 16.2298 6.09828 16.4818L5.90828 16.6891L5.73862 16.4649C5.10856 15.6323 4.56774 15.2466 4.12181 15.1909L4.12086 15.1908L4.11991 15.1907C3.84615 15.1542 3.58675 15.224 3.33318 15.3982C3.13735 15.5489 2.98569 15.7671 2.93014 16.0402C2.87441 16.3143 2.91156 16.6633 3.12981 17.079L3.24994 17.3079L3.01051 17.4051C2.32769 17.6825 1.99634 18.1189 1.99634 18.5531C1.99634 18.9835 2.3227 19.3989 3.01051 19.6783L3.24994 19.7756L3.12981 20.0044C2.91156 20.4201 2.87441 20.7692 2.93014 21.0432C2.98608 21.3182 3.13951 21.5377 3.33736 21.6884L3.33956 21.6901L3.34173 21.6918C3.52701 21.84 3.74819 21.9135 3.96887 21.9135C4.00548 21.9135 4.02185 21.9133 4.03655 21.9118C4.04759 21.9107 4.059 21.9087 4.07677 21.9027L4.09421 21.8969L4.11235 21.8939C4.56896 21.8178 5.11351 21.4446 5.73862 20.6186L5.90828 20.3944L6.09828 20.6016C6.32927 20.8536 6.60203 21.0637 6.94039 21.2329L6.94327 21.2344L6.94611 21.2359C7.87614 21.7333 9.17446 21.959 10.6123 21.959C12.6542 21.959 14.9697 21.5319 16.9688 20.9806C18.9734 20.4277 20.6292 19.7583 21.3609 19.2887C21.6995 19.0694 21.8448 18.7944 21.8448 18.5531C21.8448 18.3117 21.6995 18.0367 21.3608 17.8174C21.0588 17.6232 20.5723 17.379 19.9392 17.1076L19.5666 16.948L19.8909 16.7047C19.9506 16.6599 19.9997 16.5971 20.0715 16.5013L20.0775 16.4933L20.0842 16.4859C21.1631 15.2775 21.5156 13.5878 21.0345 11.8822L20.9505 11.5842H21.2601C21.2841 11.5842 21.3013 11.5841 21.3164 11.5826C21.3195 11.5823 21.3219 11.5819 21.3237 11.5817L21.3486 11.5692L21.3862 11.5638C21.4387 11.5563 21.4807 11.5114 21.4807 11.4546V11.4521L21.4808 11.4496C21.5033 10.3935 21.3416 9.08076 19.9369 8.46104L19.6238 8.3229L19.9321 8.01451ZM21.3277 11.5809C21.3276 11.581 21.3276 11.581 21.3276 11.581L21.3277 11.5809ZM8.95596 4.15539C8.5857 3.11558 7.48154 2.54211 6.41463 2.80884L6.41413 2.80896L6.41362 2.80909C5.32473 3.07617 4.62836 4.12323 4.79216 5.20842L4.79479 5.22581V5.2434C4.79479 5.4773 4.68696 5.71067 4.42522 5.82285L4.41855 5.82571L4.41172 5.82815C3.84786 6.02953 3.42704 6.49134 3.28664 7.07302C3.14328 7.66693 3.26839 8.26433 3.68337 8.69907L3.6975 8.71387L3.70885 8.7309C3.85234 8.94613 3.85234 9.20796 3.70885 9.42319L3.70594 9.42756L3.70284 9.43179C3.50246 9.70503 3.44166 10.097 3.59494 10.4802L3.59589 10.4826L3.59678 10.485C3.77232 10.9531 4.18238 11.3072 4.71685 11.4061L4.72224 11.4071L4.72758 11.4084C5.31489 11.5458 5.95246 11.937 6.50939 12.4412C7.06883 12.9476 7.56798 13.587 7.868 14.2471L7.86905 14.2494L7.87005 14.2517C7.97722 14.5018 8.08274 14.7192 8.19802 14.9176C8.91469 14.7523 9.69324 14.6886 10.5144 14.6796C10.5358 14.3928 10.5329 14.0407 10.5148 13.6059C10.4673 12.8861 10.6052 12.0927 10.8581 11.3869C11.1103 10.6831 11.4862 10.0406 11.9355 9.6413L11.9415 9.63594L11.9479 9.63101C12.3799 9.29719 12.5766 8.78895 12.5185 8.27665C12.4595 7.8702 12.2309 7.55831 11.9262 7.41355C11.6559 7.29526 11.5514 7.02353 11.5862 6.78011L11.5877 6.76909L11.5903 6.75827C11.7296 6.18135 11.5523 5.57692 11.1442 5.12804C10.7386 4.68186 10.1772 4.46278 9.57492 4.54278C9.31444 4.5794 9.03959 4.43287 8.95596 4.15539ZM6.30145 2.35396C7.59862 2.02994 8.94926 2.72796 9.4 4.00506L9.40238 4.0118L9.40434 4.01868C9.41448 4.05414 9.45466 4.08645 9.50987 4.07856L9.51095 4.07841L9.51204 4.07826C10.2745 3.9766 10.9868 4.25806 11.4911 4.81272C11.9901 5.36163 12.2225 6.11655 12.0492 6.85502C12.0459 6.88821 12.052 6.916 12.0619 6.93596C12.0718 6.95575 12.0877 6.97281 12.1153 6.98461L12.119 6.98623L12.1227 6.98797C12.5893 7.20752 12.905 7.66723 12.983 8.21346L12.9835 8.2166L12.9838 8.21975C13.0608 8.8868 12.8047 9.55754 12.2413 9.99669C11.8736 10.3261 11.5351 10.8871 11.2994 11.545C11.0635 12.2034 10.9397 12.9331 10.9827 13.5776L10.9829 13.5806L10.983 13.5835C11.0058 14.1311 11.0068 14.5808 10.9584 14.9438L10.9313 15.1472H10.7261C9.77989 15.1472 8.9146 15.215 8.14528 15.4128L7.98051 15.4552L7.88918 15.3117C7.72137 15.048 7.57951 14.7635 7.44022 14.4387C7.17132 13.8482 6.7154 13.2599 6.19481 12.7887C5.67286 12.3162 5.10672 11.98 4.62578 11.866C3.93526 11.7361 3.3926 11.273 3.15877 10.6519C2.95007 10.128 3.0245 9.568 3.32107 9.15975C3.35438 9.10776 3.35646 9.05662 3.32732 9.00474C2.80063 8.44021 2.65766 7.68105 2.83097 6.96303C3.0084 6.22796 3.53972 5.64488 4.24584 5.38966C4.27867 5.37455 4.29484 5.35681 4.3046 5.34031C4.31482 5.32301 4.32384 5.29669 4.32569 5.25816C4.13712 3.93914 4.98568 2.67696 6.30145 2.35396ZM16.722 7.28101C16.823 7.61321 17.0413 7.89643 17.4092 8.16558C17.6087 8.29071 17.6821 8.50255 17.6463 8.71742C17.6077 8.94871 17.4502 9.09928 17.2746 9.16952L17.2665 9.17277L17.2581 9.17541C16.9637 9.26839 16.6835 9.47838 16.4673 9.77242C16.8112 9.88396 17.152 9.88694 17.4624 9.78133C17.4956 9.76594 17.5305 9.75396 17.5699 9.74739C17.6069 9.74123 17.6418 9.74131 17.6611 9.74135C17.6626 9.74135 17.664 9.74136 17.6653 9.74136C17.8288 9.74136 17.9496 9.82255 18.0133 9.86535C18.0167 9.86758 18.0198 9.86972 18.0229 9.87173L18.0283 9.87534L18.0335 9.87924C18.2049 10.0078 18.2748 10.2394 18.2364 10.4312L18.2353 10.4367L18.234 10.4421C18.157 10.7499 18.2025 11.0959 18.3567 11.4389C18.6293 11.1956 18.8067 10.9004 18.8689 10.5896C18.8913 10.4772 18.9539 10.3806 19.024 10.3105C19.0896 10.2449 19.1784 10.1859 19.2817 10.1602C19.501 10.0831 19.7238 10.1784 19.856 10.3105L19.8603 10.3149L19.8644 10.3195C20.1681 10.6569 20.4692 10.8432 20.8052 10.903C20.7619 10.4097 20.6473 10.0318 20.4622 9.74019C20.2702 9.43786 19.9906 9.20999 19.5931 9.04481L19.2665 9.38853L19.2644 9.39066C19.1367 9.51837 18.9756 9.55031 18.8484 9.55031C18.7213 9.55031 18.5601 9.51837 18.4324 9.39066C18.2044 9.16262 18.2044 8.80946 18.4324 8.58142L18.7022 8.31163C18.5013 7.918 18.2482 7.65613 17.9291 7.49441C17.6195 7.3375 17.2274 7.26443 16.722 7.28101ZM18.141 7.0763C18.615 7.31653 18.9551 7.71614 19.1991 8.26518L19.2645 8.41227L18.7639 8.91287C18.7189 8.95785 18.7189 9.01422 18.7639 9.0592C18.7727 9.068 18.7935 9.08156 18.8484 9.08156C18.9009 9.08156 18.9222 9.06918 18.9317 9.0604L19.466 8.49803L19.6095 8.54907C20.1601 8.74483 20.5769 9.04648 20.8579 9.48891C21.1358 9.92656 21.266 10.4789 21.2896 11.1506L21.2981 11.3932H21.0553C20.4519 11.3932 19.9618 11.1262 19.5212 10.6388C19.503 10.6217 19.482 10.6101 19.4637 10.6049C19.4448 10.5995 19.4365 10.6027 19.436 10.6029L19.416 10.6109L19.3949 10.6151C19.3955 10.615 19.391 10.6159 19.3825 10.6208C19.3742 10.6256 19.3647 10.6328 19.3554 10.642C19.3462 10.6512 19.339 10.6608 19.3342 10.6691C19.3299 10.6766 19.3287 10.681 19.3285 10.6815C19.3285 10.6816 19.3285 10.6815 19.3285 10.6815C19.2234 11.2071 18.8851 11.6656 18.412 11.9893L18.2067 12.1298L18.0787 11.9164C17.7846 11.4264 17.6477 10.865 17.7774 10.3359C17.7823 10.3032 17.7649 10.2668 17.7543 10.256C17.723 10.2353 17.7056 10.2244 17.6894 10.217C17.6757 10.2106 17.6695 10.2101 17.6653 10.2101C17.66 10.2101 17.6559 10.2101 17.6524 10.2101L17.6431 10.2148L17.629 10.2197C17.1069 10.4024 16.5421 10.3462 16.0175 10.0963L15.7931 9.9895L15.9129 9.77178C16.1849 9.27708 16.6116 8.89141 17.1069 8.73164C17.1544 8.71089 17.1772 8.68034 17.1839 8.64036C17.1894 8.60747 17.1845 8.591 17.182 8.58499C17.1801 8.58045 17.1757 8.57196 17.158 8.56134L17.1491 8.55601L17.1407 8.54992C16.6005 8.15704 16.2827 7.69467 16.2043 7.09384L16.1727 6.85105L16.4166 6.83002C17.1001 6.77109 17.6723 6.83874 18.141 7.0763ZM13.6324 7.89937C13.6449 7.95647 13.6551 8.01369 13.6647 8.07157L13.6653 8.07513L13.6658 8.07871C13.7912 9.00698 13.4128 9.88112 12.696 10.4745C12.4019 10.7198 12.1243 11.1856 11.9288 11.7528C11.7351 12.3149 11.6333 12.9439 11.6654 13.4885L11.6655 13.4905L11.6656 13.4925C11.6839 13.9334 11.688 14.3233 11.6642 14.6698C14.3065 14.8376 17.217 15.5887 19.2785 16.3299C19.3829 16.2398 19.4883 16.142 19.5805 16.0344L19.5824 16.0322L19.5843 16.0301C20.5209 14.9894 20.8175 13.4926 20.3475 11.9864C20.1024 11.9099 19.8592 11.8006 19.6321 11.6579C19.3567 12.1023 18.9575 12.4839 18.4397 12.7739L18.4349 12.7766L18.4299 12.779C18.3712 12.8084 18.2645 12.8493 18.1659 12.8493C17.9795 12.8493 17.8198 12.77 17.7074 12.6217C17.3056 12.1134 17.0832 11.5611 17.0326 10.9989C16.4777 11.0077 15.9051 10.8321 15.3641 10.52L15.3575 10.5162L15.3512 10.512C15.1321 10.366 15.0115 10.0678 15.1291 9.79279C15.3561 9.25645 15.6923 8.79978 16.1127 8.47524C15.9529 8.27496 15.8149 8.05677 15.7165 7.81415C15.0073 7.68441 14.276 7.71419 13.6324 7.89937ZM13.2645 7.52506C14.0826 7.23633 15.0367 7.19026 15.939 7.38022L16.0705 7.40791L16.1131 7.53545C16.2129 7.83484 16.3952 8.10263 16.6323 8.36126L16.8235 8.56992L16.5829 8.71891C16.153 8.98505 15.7952 9.42147 15.5605 9.97605L15.5603 9.97655L15.5601 9.97705C15.5421 10.0191 15.5564 10.0822 15.6064 10.1187C16.1638 10.4384 16.7243 10.577 17.2279 10.5166L17.4902 10.4851V10.7493C17.4902 11.2837 17.6744 11.8248 18.0766 12.3329L18.0785 12.3353L18.0804 12.3378C18.1034 12.3685 18.1242 12.3797 18.1612 12.3805C18.163 12.3802 18.1653 12.3797 18.168 12.379C18.1709 12.3783 18.1743 12.3774 18.1782 12.3762C18.1922 12.372 18.2062 12.3665 18.2164 12.3617C18.744 12.0649 19.117 11.6673 19.3441 11.2133L19.4712 10.9589L19.6966 11.1323C19.9658 11.3393 20.2784 11.4857 20.5924 11.5694L20.7138 11.6018L20.7541 11.7208C21.3236 13.4056 21.0201 15.1338 19.9346 16.3416C19.7846 16.5162 19.6127 16.6628 19.4762 16.7765L19.3725 16.8629L19.2457 16.8166C17.1443 16.0483 14.0967 15.2592 11.3969 15.1242L11.1466 15.1116L11.1759 14.8627C11.2191 14.4953 11.2198 14.0559 11.1973 13.514C11.1615 12.8987 11.2758 12.2089 11.4857 11.6C11.694 10.9957 12.0079 10.4378 12.3962 10.1142L12.3965 10.1139L12.3968 10.1137C12.9984 9.61577 13.3024 8.89891 13.2017 8.14502C13.1796 8.01276 13.1601 7.9211 13.1249 7.83312L13.0342 7.60635L13.2645 7.52506ZM18.1591 12.3808C18.1591 12.3808 18.1591 12.3808 18.1592 12.3808L18.1591 12.3808ZM10.2324 15.3512V17.2562C10.2324 17.3088 10.2867 17.3631 10.3393 17.3631C10.3919 17.3631 10.4462 17.3088 10.4462 17.2562V15.3565L10.685 15.361C11.9072 15.3841 13.2404 15.5453 14.5473 15.7975L14.7372 15.8342V18.3256C14.7372 18.3781 14.7916 18.4325 14.8441 18.4325C14.8967 18.4325 14.951 18.3781 14.951 18.3256V15.8739L15.2348 15.9351C16.5639 16.2215 17.836 16.5882 18.886 16.9554C19.9284 17.32 20.7693 17.691 21.2274 17.9918C21.333 18.0581 21.4275 18.1361 21.4984 18.2227C21.5669 18.3064 21.631 18.4203 21.631 18.5531C21.631 18.6858 21.5669 18.7998 21.4984 18.8835C21.4272 18.9704 21.3323 19.0487 21.2262 19.1151C20.6294 19.4968 19.4218 19.9988 17.9483 20.4576C16.4676 20.9188 14.6963 21.3431 12.9623 21.5613L12.6986 21.5945V19.7589C12.6986 19.7064 12.6443 19.652 12.5917 19.652C12.5392 19.652 12.4848 19.7064 12.4848 19.7589V21.6107L12.2721 21.6304C11.0356 21.7449 9.83013 21.7695 8.80089 21.6057L8.60334 21.5743V19.4404C8.60334 19.3878 8.54901 19.3335 8.49644 19.3335C8.44387 19.3335 8.38954 19.3878 8.38954 19.4404V21.5152L8.09832 21.4424C7.71472 21.3465 7.35527 21.2028 7.04298 21.0346L7.04206 21.0341L7.04114 21.0336C6.5556 20.7666 6.18586 20.4259 5.93909 20.002C5.6925 19.5783 5.57737 19.0865 5.57737 18.5303C5.57737 17.9742 5.6925 17.4823 5.93909 17.0587C6.18586 16.6348 6.5556 16.2941 7.04114 16.0271L7.0415 16.0269L7.04186 16.0267C7.83876 15.592 8.85899 15.4073 9.98849 15.3612L10.2324 15.3512ZM10.915 15.836V17.2562C10.915 17.5677 10.6508 17.8319 10.3393 17.8319C10.0279 17.8319 9.76367 17.5677 9.76367 17.2562V15.8419C8.76894 15.9024 7.91869 16.0825 7.26671 16.438C6.84237 16.6714 6.54104 16.9564 6.3442 17.2945C6.14714 17.6331 6.04612 18.0399 6.04612 18.5303C6.04612 19.0208 6.14714 19.4276 6.34421 19.7661C6.54095 20.1041 6.8421 20.389 7.26615 20.6224C7.46488 20.7293 7.6858 20.8256 7.92079 20.9032V19.4404C7.92079 19.1289 8.18498 18.8647 8.49644 18.8647C8.80789 18.8647 9.07209 19.1289 9.07209 19.4404V21.1715C9.94473 21.2867 10.9546 21.2717 12.0161 21.1825V19.7589C12.0161 19.4475 12.2803 19.1833 12.5917 19.1833C12.9032 19.1833 13.1674 19.4475 13.1674 19.7589V21.0615C14.7843 20.839 16.4243 20.4413 17.8089 20.0101C19.2753 19.5535 20.4333 19.066 20.9745 18.7197L20.9755 18.719L20.9766 18.7184C21.052 18.6712 21.1046 18.6246 21.1356 18.5867C21.1481 18.5713 21.155 18.5601 21.1588 18.5531C21.155 18.546 21.1481 18.5348 21.1356 18.5195C21.1046 18.4816 21.052 18.435 20.9766 18.3878L20.9743 18.3864L20.972 18.3849C20.565 18.1171 19.7689 17.7607 18.7312 17.3978C17.7742 17.0631 16.6265 16.728 15.4198 16.4559V18.3256C15.4198 18.637 15.1556 18.9012 14.8441 18.9012C14.5327 18.9012 14.2685 18.637 14.2685 18.3256V16.2218C13.1291 16.0102 11.9801 15.8715 10.915 15.836ZM4.00115 15.8953C3.89476 15.8805 3.82954 15.8952 3.75489 15.9574L3.75212 15.9597L3.74929 15.962C3.5889 16.0875 3.5601 16.2583 3.61594 16.4793C3.67315 16.7058 3.81085 16.9319 3.90923 17.0743C4.03497 17.2458 4.02188 17.4645 3.99148 17.5861C3.94608 17.7677 3.78384 17.921 3.58896 17.9625C3.2955 18.0364 3.05449 18.1497 2.89228 18.2713C2.71964 18.4008 2.67889 18.505 2.67889 18.5531C2.67889 18.6008 2.71914 18.7051 2.89556 18.838C3.06194 18.9634 3.31093 19.083 3.61942 19.1683C3.77915 19.2093 3.93035 19.3273 4.00447 19.5126C4.08362 19.7105 4.04067 19.9097 3.92885 20.0588L3.928 20.0599L3.92712 20.0611C3.82017 20.2001 3.678 20.4203 3.62148 20.6416C3.59384 20.7499 3.58973 20.8469 3.61046 20.9302C3.62968 21.0075 3.6733 21.0865 3.76572 21.1619C3.86405 21.2258 3.94064 21.2449 4.02402 21.2337C4.19629 21.2036 4.59708 21.0099 5.21932 20.1894C4.99313 19.7092 4.87207 19.1704 4.87207 18.5758C4.87207 17.9809 4.99331 17.4417 5.21982 16.9612C4.57751 16.1011 4.17516 15.9253 4.00115 15.8953ZM3.45762 15.595C3.65448 15.4323 3.86082 15.4017 4.07027 15.4316L4.07297 15.432L4.07565 15.4324C4.44179 15.4935 4.96697 15.807 5.68335 16.8007L5.76806 16.9182L5.70084 17.0465C5.46905 17.489 5.34082 17.9974 5.34082 18.5758C5.34082 19.1542 5.46905 19.6627 5.70084 20.1052L5.76859 20.2345L5.68237 20.3524C4.99134 21.2968 4.46607 21.6352 4.09841 21.6965L4.09572 21.6969L4.09302 21.6973C3.86122 21.7304 3.66727 21.6597 3.49759 21.5465L3.48962 21.5412L3.48212 21.5353C3.30657 21.3963 3.20126 21.2271 3.15557 21.0434C3.11089 20.8637 3.12668 20.6848 3.1673 20.5257C3.24705 20.2133 3.43391 19.9337 3.5545 19.7767C3.57859 19.7441 3.581 19.7161 3.56924 19.6867C3.55285 19.6457 3.52358 19.6275 3.5025 19.6223L3.49975 19.6216L3.49701 19.6208C3.14675 19.5242 2.83912 19.3824 2.61344 19.2124C2.3974 19.0495 2.21014 18.8239 2.21014 18.5531C2.21014 18.2827 2.3969 18.0569 2.61103 17.8963C2.83478 17.7285 3.13819 17.592 3.47974 17.5067L3.48515 17.5053L3.49062 17.5042C3.50087 17.5022 3.51367 17.496 3.52499 17.4855C3.53035 17.4805 3.53395 17.4758 3.53602 17.4725C3.53659 17.4716 3.53697 17.4709 3.5372 17.4705C3.54221 17.4494 3.545 17.4206 3.54227 17.3933C3.53938 17.3644 3.53203 17.3526 3.5311 17.3514L3.52843 17.3478L3.5259 17.3441C3.41964 17.1907 3.24036 16.9064 3.16147 16.5941C3.081 16.2756 3.09741 15.8789 3.45762 15.595Z" />
<path d="M10.0208 6.49471C10.1346 6.3582 10.1118 6.13069 9.97533 6.01693C9.83882 5.90317 9.6113 5.92592 9.49754 6.06243L7.99594 7.85981L7.60916 6.3582C7.56366 6.17619 7.38164 6.06243 7.19963 6.10794C7.01762 6.15344 6.90386 6.33545 6.94936 6.51746L7.33614 8.01907L5.17474 7.15451C4.99273 7.08625 4.81071 7.17726 4.71971 7.33652C4.65145 7.51853 4.74246 7.70055 4.90172 7.79155L7.5409 8.86088L7.90493 10.3397L6.67634 9.8392C6.49433 9.77094 6.31232 9.86195 6.22131 10.0212C6.15306 10.2032 6.24406 10.3852 6.40332 10.4762L8.1097 11.1588L8.61023 13.2064C8.65573 13.3657 8.79224 13.4567 8.9515 13.4567H9.04251C9.22452 13.4112 9.33828 13.2292 9.29278 13.0472L8.79224 10.9995L9.95258 9.58893C10.0663 9.45242 10.0436 9.22491 9.90707 9.11115C9.77056 8.99739 9.54305 9.02014 9.42929 9.15665L8.58748 10.1577L8.22345 8.67887L10.0208 6.49471Z" />
<path fill-rule="evenodd" clip-rule="evenodd" d="M9.31758 5.91221C9.51261 5.67844 9.88743 5.63872 10.1253 5.83692C10.359 6.03172 10.399 6.40621 10.2013 6.64416C10.2011 6.64437 10.201 6.64459 10.2008 6.6448L8.47904 8.73705L8.70476 9.65402L9.24914 9.00665C9.24927 9.00649 9.24941 9.00633 9.24954 9.00617C9.44463 8.77263 9.81926 8.73301 10.057 8.93114C10.2908 9.12594 10.3307 9.50045 10.133 9.7384C10.1329 9.7386 10.1327 9.73881 10.1325 9.73902L9.04767 11.0579L9.52006 12.9904C9.52012 12.9906 9.52018 12.9909 9.52024 12.9911C9.59785 13.3032 9.40177 13.6085 9.09926 13.6841L9.07127 13.6911H8.95141C8.69785 13.6911 8.46177 13.5404 8.38478 13.2709L8.38354 13.2665L7.91057 11.3317L6.30107 10.6879L6.28695 10.6798C6.04937 10.544 5.885 10.2503 6.00176 9.93896L6.00838 9.92132L6.01772 9.90497C6.15348 9.6674 6.44718 9.50303 6.75854 9.61979L6.76163 9.62095L7.56732 9.94919L7.34184 9.03319L4.79901 8.00291L4.78534 7.99509C4.54777 7.85933 4.3834 7.56563 4.50016 7.25427L4.50677 7.23664L4.51612 7.22028C4.65187 6.98271 4.94557 6.81834 5.25694 6.9351L5.25932 6.93599L6.99373 7.62976L6.72209 6.57516L6.72189 6.57435C6.64379 6.26197 6.83994 5.95629 7.14269 5.8806C7.45477 5.80258 7.76016 5.99828 7.83622 6.30053L8.10886 7.35901L9.31739 5.91243C9.31744 5.91237 9.31749 5.91231 9.31754 5.91225C9.31756 5.91224 9.31757 5.91222 9.31758 5.91221ZM9.82519 6.19702C9.79008 6.16777 9.71004 6.17347 9.6775 6.21252L7.88282 8.36069L7.38189 6.4159L7.38169 6.41509C7.36637 6.35381 7.30802 6.32244 7.25638 6.33536C7.19533 6.35062 7.16397 6.40858 7.1765 6.46009L7.67836 8.40847L5.09052 7.37333C5.05966 7.36224 5.0318 7.36432 5.00532 7.37566C4.98054 7.38628 4.95472 7.40641 4.93393 7.43583C4.92824 7.46077 4.93126 7.48381 4.94072 7.50588C4.95205 7.53232 4.97421 7.55995 5.00692 7.58138L7.73978 8.68866L8.24235 10.7304L6.59159 10.0578C6.56094 10.0469 6.53325 10.0491 6.50693 10.0604C6.48215 10.071 6.45632 10.0911 6.43554 10.1205C6.42985 10.1455 6.43287 10.1685 6.44233 10.1906C6.45362 10.2169 6.47565 10.2444 6.50817 10.2658L8.30863 10.986L8.83648 13.1454C8.85119 13.1925 8.88791 13.2224 8.95141 13.2224H9.00568C9.05354 13.2006 9.07672 13.1497 9.0653 13.1041L9.06516 13.1035L8.53662 10.9413L9.77195 9.43951L9.77243 9.43893C9.80168 9.40383 9.79598 9.32378 9.75693 9.29124C9.72183 9.26199 9.64179 9.26769 9.60924 9.30674L9.60891 9.30714L8.47001 10.6615L7.96767 8.62077L9.84022 6.34527L9.84068 6.34471C9.86993 6.30961 9.86424 6.22957 9.82519 6.19702Z" />
</svg>
