<svg viewBox="0 0 34 34" fill="none" xmlns="http://www.w3.org/2000/svg">
    <path
        d="M19.5482 19.3777C19.2284 19.0968 18.3502 18.4531 17.137 18.4531C15.9238 18.4531 15.0609 19.0763 14.7461 19.3471C14.4873 19.5667 14.3248 19.817 14.3197 19.817C14.0913 20.1235 14.1066 20.476 14.3451 20.7058C14.4568 20.8131 14.5888 20.8642 14.7258 20.8642C14.8832 20.8642 15.0406 20.7978 15.1776 20.665C15.4213 20.4096 15.5837 20.2563 15.6954 20.1797C16.2233 19.8323 16.5888 19.7659 17.1167 19.7659H17.137C17.7258 19.7659 18.2639 19.9396 18.6548 20.2461C18.7461 20.3176 18.9238 20.4811 18.9847 20.5475L19.1269 20.7007C19.2335 20.8131 19.3502 20.8642 19.5228 20.8642C19.6751 20.8642 19.8172 20.8029 19.9289 20.6956C20.1725 20.4555 20.1776 20.1082 19.939 19.8119C19.939 19.8119 19.7106 19.5258 19.5431 19.3828L19.5482 19.3777Z"
        fill="inherit" />
    <path
        d="M16.9949 14.2246C14.6192 14.2246 12.3756 15.3024 10.8324 17.1874C10.7055 17.3406 10.6446 17.5398 10.6548 17.7442C10.67 17.9485 10.7563 18.1375 10.8984 18.2703C11.0203 18.3827 11.1776 18.4491 11.3401 18.4491C11.3604 18.4491 11.3807 18.4491 11.401 18.4491C11.5837 18.4338 11.7563 18.3469 11.8781 18.1988C13.1573 16.6408 15.0203 15.7469 16.9949 15.7469C18.9695 15.7469 20.8375 16.6408 22.1167 18.2039C22.2487 18.3674 22.4467 18.4542 22.6446 18.4542C22.8071 18.4542 22.9695 18.398 23.0964 18.2805C23.2385 18.1477 23.3248 17.9587 23.3401 17.7544C23.3553 17.55 23.2893 17.3508 23.1675 17.1976C21.6243 15.3127 19.3705 14.2297 16.9949 14.2297V14.2246Z"
        fill="inherit" />
    <path
        d="M25.8169 13.9895C23.6138 11.4558 20.3956 10 16.9996 10C13.6037 10 10.3905 11.4507 8.18236 13.9844C8.05038 14.1325 7.98947 14.3215 7.99962 14.5208C8.00978 14.72 8.10115 14.9039 8.24835 15.0316C8.38033 15.1491 8.54277 15.2052 8.70013 15.2052C8.89302 15.2052 9.08084 15.1235 9.2179 14.9652C11.1671 12.7329 13.9996 11.4558 16.9996 11.4558C19.9996 11.4558 22.8372 12.7329 24.7763 14.9652C24.9083 15.1184 25.1062 15.2001 25.3042 15.2001C25.4666 15.2001 25.624 15.1491 25.7509 15.0367C25.8981 14.909 25.9844 14.7251 25.9996 14.5259C26.0098 14.3266 25.9489 14.1376 25.822 13.9895H25.8169Z"
        fill="inherit" />
    <path
        d="M17.1 24.1004C17.7075 24.1004 18.2 23.6079 18.2 23.0004C18.2 22.3929 17.7075 21.9004 17.1 21.9004C16.4925 21.9004 16 22.3929 16 23.0004C16 23.6079 16.4925 24.1004 17.1 24.1004Z"
        fill="inherit" />
</svg>